<svg id="Layer_1" height="512" viewBox="0 0 512 512" width="512" xmlns="http://www.w3.org/2000/svg" xmlns:xlink="http://www.w3.org/1999/xlink" data-name="Layer 1"><linearGradient id="linear-gradient" gradientUnits="userSpaceOnUse" x1="256" x2="256" y1="480" y2="45.982"><stop offset=".322" stop-color="#a163f5"/><stop offset=".466" stop-color="#b074ee"/><stop offset=".752" stop-color="#d8a1dd"/><stop offset=".898" stop-color="#efbad3"/></linearGradient><linearGradient id="linear-gradient-2" x1="136" x2="136" xlink:href="#linear-gradient" y1="480" y2="45.982"/><linearGradient id="linear-gradient-3" x1="376" x2="376" xlink:href="#linear-gradient" y1="480" y2="45.982"/><linearGradient id="linear-gradient-5" x1="76" x2="76" xlink:href="#linear-gradient" y1="480" y2="45.982"/><linearGradient id="linear-gradient-7" x1="256.007" x2="256.007" xlink:href="#linear-gradient" y1="480" y2="45.982"/><path d="m256 100.5a19.021 19.021 0 0 0 -19 19v43.5h-3a23 23 0 0 0 0 46h3v182.5a19 19 0 0 0 38 0v-182.5h3a23 23 0 0 0 0-46h-3v-43.5a19.021 19.021 0 0 0 -19-19zm-7 19a7 7 0 0 1 14 0v43.5h-14zm14 272a7 7 0 0 1 -14 0v-182.5h14zm15-216.5a11 11 0 0 1 0 22h-44a11 11 0 0 1 0-22z" fill="url(#linear-gradient)"/><path d="m136 100.5a19.021 19.021 0 0 0 -19 19v113.5h-3a23 23 0 0 0 0 46h3v112.5a19 19 0 0 0 38 0v-112.5h3a23 23 0 0 0 0-46h-3v-113.5a19.021 19.021 0 0 0 -19-19zm-7 19a7 7 0 0 1 14 0v113.5h-14zm14 272a7 7 0 0 1 -14 0v-112.5h14zm15-146.5a11 11 0 0 1 0 22h-44a11 11 0 0 1 0-22z" fill="url(#linear-gradient-2)"/><path d="m376 100.5a19.021 19.021 0 0 0 -19 19v163.5h-3a23 23 0 0 0 0 46h3v62.5a19 19 0 0 0 38 0v-62.5h3a23 23 0 0 0 0-46h-3v-163.5a19.021 19.021 0 0 0 -19-19zm-7 19a7 7 0 0 1 14 0v163.5h-14zm14 272a7 7 0 0 1 -14 0v-62.5h14zm15-96.5a11 11 0 0 1 0 22h-44a11 11 0 0 1 0-22z" fill="url(#linear-gradient-3)"/><path d="m462 20h-412a30 30 0 0 0 -30 30v413a30 30 0 0 0 30 30h412a30 30 0 0 0 30-30v-413a30 30 0 0 0 -30-30zm18 443a18 18 0 0 1 -18 18h-412a18 18 0 0 1 -18-18v-413a18 18 0 0 1 18-18h412a18 18 0 0 1 18 18z" fill="url(#linear-gradient)"/><path d="m76 93.066a6 6 0 0 0 6-6v-4.61a6 6 0 0 0 -12 0v4.61a6 6 0 0 0 6 6z" fill="url(#linear-gradient-5)"/><path d="m70 177.855a6 6 0 0 0 12 0v-69.732a6 6 0 1 0 -12 0z" fill="url(#linear-gradient-5)"/><path d="m462 44h-412a6 6 0 0 0 -6 6v48a6 6 0 0 0 12 0v-42h400l.015 401h-400.015v-317a6 6 0 0 0 -12 0v322.5a6.519 6.519 0 0 0 6.5 6.5h411.5a6.8 6.8 0 0 0 1.191-.367 6.139 6.139 0 0 0 4.824-6.009l-.015-412.812a5.843 5.843 0 0 0 -6-5.812z" fill="url(#linear-gradient-7)"/></svg>