<svg id="Layer_1" height="512" viewBox="0 0 512 512" width="512" xmlns="http://www.w3.org/2000/svg" xmlns:xlink="http://www.w3.org/1999/xlink" data-name="Layer 1"><linearGradient id="linear-gradient" gradientUnits="userSpaceOnUse" x1="448.361" x2="448.361" y1="484" y2="75.569"><stop offset=".322" stop-color="#a163f5"/><stop offset=".466" stop-color="#b074ee"/><stop offset=".752" stop-color="#d8a1dd"/><stop offset=".898" stop-color="#efbad3"/></linearGradient><linearGradient id="linear-gradient-3" x1="473.5" x2="473.5" xlink:href="#linear-gradient" y1="484" y2="75.569"/><linearGradient id="linear-gradient-4" x1="297.365" x2="297.365" xlink:href="#linear-gradient" y1="484" y2="75.569"/><linearGradient id="linear-gradient-5" x1="239.471" x2="239.471" xlink:href="#linear-gradient" y1="484" y2="75.569"/><linearGradient id="linear-gradient-6" x1="221.092" x2="221.092" xlink:href="#linear-gradient" y1="484" y2="75.569"/><path d="m440.126 297.141a6 6 0 1 0 -9.6 7.195l26.072 34.8a6 6 0 1 0 9.6-7.195z" fill="url(#linear-gradient)"/><path d="m431.727 169.142a6 6 0 0 0 8.4-1.2l26.072-34.8a6 6 0 1 0 -9.6-7.2l-26.072 34.8a6 6 0 0 0 1.2 8.4z" fill="url(#linear-gradient)"/><path d="m495 227h-43a6 6 0 0 0 0 12h43a6 6 0 0 0 0-12z" fill="url(#linear-gradient-3)"/><path d="m297.243 141.3-4.4 1.851a6 6 0 1 0 4.649 11.062l4.4-1.851a6 6 0 1 0 -4.649-11.062z" fill="url(#linear-gradient-4)"/><path d="m272.72 151.61-71.148 29.9a6 6 0 1 0 4.65 11.062l71.148-29.9a6 6 0 1 0 -4.65-11.062z" fill="url(#linear-gradient-5)"/><path d="m387 188.6v-90.39a25.558 25.558 0 0 0 -51.073-1.667l-176.035 72.457h-83.357a26.417 26.417 0 0 0 -25.7 22h-2.08c-20.955 0-37.755 17.518-37.755 38.471v8.866a37.545 37.545 0 0 0 37.752 37.663h2.08a25.6 25.6 0 0 0 25.168 22.387v123.153c0 9.925 7.89 18.46 17.815 18.46h47.644c9.925 0 17.541-8.535 17.541-18.46v-123.124l176.968 72.85a25.537 25.537 0 0 0 51.032-1.666v-90.39a45.318 45.318 0 0 0 0-90.608zm-336 75.4h-2.248a25.533 25.533 0 0 1 -25.752-25.663v-8.866c0-14.336 11.416-26.471 25.752-26.471h2.248zm96 130h-19.768c-3.309 0-6.232-2.344-6.232-5.653v-60.358a6.2 6.2 0 0 1 6.232-5.989h19.768zm0-84h-19.768a18.21 18.21 0 0 0 -18.232 17.989v60.358c0 9.925 8.307 17.653 18.232 17.653h19.768v15.54c0 3.308-2.232 6.46-5.541 6.46h-47.644c-3.308 0-5.815-3.152-5.815-6.46v-123.54h59zm7-24h-77.465a13.283 13.283 0 0 1 -13.535-13.6v-77c0-7.719 5.815-14.4 13.535-14.4h77.465zm221 83.6a13.55 13.55 0 0 1 -13.841 13.745 13.741 13.741 0 0 1 -13.159-13.868v-173.477a6 6 0 0 0 -12 0v162.263l-170-69.876v-108.967l170-69.875v44.455a6 6 0 0 0 12 0v-55.67a13.74 13.74 0 0 1 13.159-13.865 13.55 13.55 0 0 1 13.841 13.745zm12-102.39v-66.61a33.324 33.324 0 0 1 0 66.608z" fill="url(#linear-gradient-6)"/></svg>