<svg id="Layer_1" height="512" viewBox="0 0 512 512" width="512" xmlns="http://www.w3.org/2000/svg" xmlns:xlink="http://www.w3.org/1999/xlink" data-name="Layer 1"><linearGradient id="linear-gradient" gradientUnits="userSpaceOnUse" x1="123" x2="123" y1="484" y2="73.512"><stop offset=".322" stop-color="#a163f5"/><stop offset=".466" stop-color="#b074ee"/><stop offset=".752" stop-color="#d8a1dd"/><stop offset=".898" stop-color="#efbad3"/></linearGradient><linearGradient id="linear-gradient-3" x1="256" x2="256" xlink:href="#linear-gradient" y1="484" y2="73.512"/><path d="m123 149.218a6 6 0 0 0 -6 6v4.782a6 6 0 0 0 12 0v-4.778a6 6 0 0 0 -6-6.004z" fill="url(#linear-gradient)"/><path d="m123 175.818a6 6 0 0 0 -6 6v60.182a6 6 0 0 0 12 0v-60.182a6 6 0 0 0 -6-6z" fill="url(#linear-gradient)"/><path d="m415.252 118h-13.252v-30.218a6.044 6.044 0 0 0 -6.257-5.782h-68.433a72.009 72.009 0 0 0 -142.62 0h-68.433a5.716 5.716 0 0 0 -5.963 4.994l-3.51 31.006h-10.036c-3.313 0-5.748 3.145-5.748 6.458v341.542a25.816 25.816 0 0 0 25.748 26h278.5a25.816 25.816 0 0 0 25.752-26v-341.542c0-3.313-2.435-6.458-5.748-6.458zm-87.252-24h62v24h-62zm-72-62a60.117 60.117 0 0 1 59.178 50h-118.356a60.117 60.117 0 0 1 59.178-50zm-60 62h120v24h-120zm135.487 113a9.006 9.006 0 0 1 0 18h-19.376a9.006 9.006 0 0 1 0-18zm-209.864-113h62.377v24h-65.141zm78.351 113a9.006 9.006 0 0 1 0 18h-19.374a9.006 9.006 0 0 1 0-18zm209.026 214h-233a6 6 0 0 0 0 12h233v33a14 14 0 0 1 -14 14h-278.252a13.748 13.748 0 0 1 -13.748-13.748v-33.252h31a6 6 0 0 0 0-12h-31v-291h81v65h-3.4a21 21 0 0 0 0 42h19.377a21 21 0 0 0 0-42h-3.977v-65h120v65h-3.889a21 21 0 0 0 0 42h19.376a21 21 0 0 0 0-42h-3.487v-65h81z" fill="url(#linear-gradient-3)"/></svg>