<?xml version="1.0" encoding="UTF-8"?>
<svg xmlns="http://www.w3.org/2000/svg" xmlns:xlink="http://www.w3.org/1999/xlink" id="Layer_1" data-name="Layer 1" viewBox="0 0 512 512" width="512" height="512"><defs><linearGradient id="linear-gradient" x1="256" y1="470" x2="256" y2="82.862" gradientUnits="userSpaceOnUse"><stop offset="0.322" stop-color="#a163f5"/><stop offset="0.466" stop-color="#b074ee"/><stop offset="0.752" stop-color="#d8a1dd"/><stop offset="0.898" stop-color="#efbad3"/></linearGradient><linearGradient id="linear-gradient-2" x1="188.907" y1="470" x2="188.907" y2="82.862" xlink:href="#linear-gradient"/><linearGradient id="linear-gradient-3" x1="139.934" y1="470" x2="139.934" y2="82.862" xlink:href="#linear-gradient"/></defs><path d="M222.435,127.9A33.565,33.565,0,1,0,256,94.332,33.6,33.6,0,0,0,222.435,127.9ZM256,106.332A21.566,21.566,0,1,1,234.435,127.9,21.589,21.589,0,0,1,256,106.332Z" style="fill:url(#linear-gradient)"/><path d="M188.35,109.31l-4.27,2.143a6,6,0,1,0,5.384,10.725l4.27-2.144a6,6,0,1,0-5.384-10.724Z" style="fill:url(#linear-gradient-2)"/><path d="M164.578,121.246,109.906,148.7a6,6,0,1,0,5.385,10.725l54.672-27.453a6,6,0,0,0-5.385-10.725Z" style="fill:url(#linear-gradient-3)"/><path d="M478.585,160.283,257.025,54.5a6,6,0,0,0-5.2.014L33.385,160.3A6,6,0,0,0,30,165.7v22.672A5.7,5.7,0,0,0,36,194H57.153A21.664,21.664,0,0,0,75.03,225.5c.465.029.955.043,1.416.043A22.193,22.193,0,0,0,89,221.491V386.276a29.2,29.2,0,0,0-24.785,18.648l-.79,2.093A27.079,27.079,0,0,0,37,434.085v18.006A5.91,5.91,0,0,0,42.909,458H80a6,6,0,0,0,0-12H49V433.381A14.381,14.381,0,0,1,63.381,419H448.619A14.423,14.423,0,0,1,463,433.381V446H122a6,6,0,0,0,0,12H468.719A6.3,6.3,0,0,0,475,451.719V433.381A26.381,26.381,0,0,0,448.619,407H446.6l-.792-2.079A29.228,29.228,0,0,0,421,386.276V219.908a21.842,21.842,0,0,0,14.529,5.634,21.386,21.386,0,0,0,21.457-22.164A21.07,21.07,0,0,0,454.474,194H476a5.7,5.7,0,0,0,6-5.631V165.7A6,6,0,0,0,478.585,160.283ZM86.014,203.99a9.56,9.56,0,0,1-10.185,9.535,9.664,9.664,0,0,1-8.921-8.924,9.334,9.334,0,0,1,2.347-7.169A10.171,10.171,0,0,1,76,194.416V194h68v.416c5,0,9.728,4.168,9.869,9.29a9.569,9.569,0,1,1-19.135.284,5.992,5.992,0,0,0-6-5.99H92.014A5.992,5.992,0,0,0,86.014,203.99ZM118,210V386H101V210ZM76.4,407a17.124,17.124,0,0,1,14.93-9h36.129a17.124,17.124,0,0,1,14.929,9Zm133.628-2.076L209.21,407H155.423l-.744-2.076A29.055,29.055,0,0,0,130,386.276V219.908a21.522,21.522,0,0,0,14.4,5.634,21.519,21.519,0,0,0,21.474-22.164A20.925,20.925,0,0,0,163.339,194h39.6A21.564,21.564,0,0,0,220.7,225.5c.465.029,1.118.043,1.579.043A22.7,22.7,0,0,0,235,221.491V386.276A29.462,29.462,0,0,0,210.028,404.924Zm89.654-201.218a9.65,9.65,0,1,1-19.3.284,6.012,6.012,0,0,0-6.025-5.99H237.641a5.991,5.991,0,0,0-6,5.99,9.561,9.561,0,0,1-10.185,9.535,9.666,9.666,0,0,1-8.922-8.924,9.476,9.476,0,0,1,2.534-7.169A8.881,8.881,0,0,1,222,194.416V194h68v.416A9.824,9.824,0,0,1,299.682,203.706ZM263,210V386H247V210ZM222.038,407a17.1,17.1,0,0,1,14.918-9h36.129a17.124,17.124,0,0,1,14.93,9Zm133.3-2.076-.76,2.076H300.855l-.863-2.079A29.486,29.486,0,0,0,275,386.276V219.908a22.322,22.322,0,0,0,14.716,5.634,21.648,21.648,0,0,0,21.709-22.164A20.969,20.969,0,0,0,308.9,194h39.814a21.272,21.272,0,0,0-2.451,11.344A21.527,21.527,0,0,0,366.376,225.5c.465.029.782.043,1.243.043,4.552,0,9.381-1.42,12.381-4.051V386.276A29.026,29.026,0,0,0,355.342,404.924Zm78.3,2.076H367.646a17.136,17.136,0,0,1,14.937-9h36.129A17.124,17.124,0,0,1,433.641,407ZM392,386V210h17V386Zm50.347-175.354a9.42,9.42,0,0,1-6.826,2.9,9.553,9.553,0,0,1-9.549-9.552,5.98,5.98,0,0,0-5.986-5.99H383.267a5.991,5.991,0,0,0-6,5.99,9.56,9.56,0,0,1-10.185,9.535,9.456,9.456,0,0,1-6.2-16.093A9.277,9.277,0,0,1,368,194.416V194h67v.416c6,0,9.855,4.168,10,9.29A9.443,9.443,0,0,1,442.347,210.646ZM470,182H42V169.458L254.458,66.566,470,169.481Z" style="fill:url(#linear-gradient)"/></svg>
