<svg id="Layer_1" height="512" viewBox="0 0 512 512" width="512" xmlns="http://www.w3.org/2000/svg" xmlns:xlink="http://www.w3.org/1999/xlink" data-name="Layer 1"><linearGradient id="linear-gradient" gradientUnits="userSpaceOnUse" x1="125" x2="125" y1="484" y2="75.569"><stop offset=".322" stop-color="#a163f5"/><stop offset=".466" stop-color="#b074ee"/><stop offset=".752" stop-color="#d8a1dd"/><stop offset=".898" stop-color="#efbad3"/></linearGradient><linearGradient id="linear-gradient-3" x1="256" x2="256" xlink:href="#linear-gradient" y1="484" y2="75.569"/><path d="m131 207.113a6 6 0 0 0 -12 0v4.778a6 6 0 0 0 12 0z" fill="url(#linear-gradient)"/><path d="m125 227.713a6 6 0 0 0 -6 6v68.178a6 6 0 0 0 12 0v-68.178a6 6 0 0 0 -6-6z" fill="url(#linear-gradient)"/><path d="m474 68h-378a6 6 0 0 0 0 12h16.615l-52.994 93h-21.621a6 6 0 0 1 -6-6v-81.453a5.546 5.546 0 0 1 5.547-5.547h16.453a6 6 0 0 0 0-12h-16a18 18 0 0 0 -18 18v82a18 18 0 0 0 18 18h25v220h-6.571a32.331 32.331 0 0 0 -32.513 32.256 5.787 5.787 0 0 0 6 5.744h114.462a5.787 5.787 0 0 0 6-5.744 32.331 32.331 0 0 0 -32.512-32.256h-8.866v-220h293v220h-7.866a32.331 32.331 0 0 0 -32.512 32.256 5.787 5.787 0 0 0 6 5.744h114.462a5.787 5.787 0 0 0 6-5.744 32.331 32.331 0 0 0 -32.513-32.256h-7.571v-220h26a18 18 0 0 0 18-18v-82a18 18 0 0 0 -18-18zm-356.134 350a20.6 20.6 0 0 1 19.617 14h-100.671a20.6 20.6 0 0 1 19.617-14zm-20.866-145v38h-22v-38zm-22-12v-75h22v75zm22 62v83h-22v-83zm-23.587-150 52.993-93h67.7l-52.994 93zm81.493 0 52.994-93h67.7l-53 93zm81.493 0 53-93h67.7l-52.999 93zm81.5 0 52.993-93h67.7l-52.992 93zm137.672 245a20.6 20.6 0 0 1 19.617 14h-100.671a20.6 20.6 0 0 1 19.617-14zm-19.571-145v38h-22v-38zm-22-12v-75h22v75zm22 62v83h-22v-83zm44-155.931a5.947 5.947 0 0 1 -6 5.931h-74.613l52.994-93h21.619c3.309 0 6 2.238 6 5.547z" fill="url(#linear-gradient-3)"/></svg>