<svg id="Layer_1" height="512" viewBox="0 0 512 512" width="512" xmlns="http://www.w3.org/2000/svg" xmlns:xlink="http://www.w3.org/1999/xlink" data-name="Layer 1"><linearGradient id="linear-gradient" gradientUnits="userSpaceOnUse" x1="256" x2="256" y1="484" y2="73.512"><stop offset=".322" stop-color="#a163f5"/><stop offset=".466" stop-color="#b074ee"/><stop offset=".752" stop-color="#d8a1dd"/><stop offset=".898" stop-color="#efbad3"/></linearGradient><linearGradient id="linear-gradient-2" x1="86.34" x2="86.34" xlink:href="#linear-gradient" y1="484" y2="73.512"/><linearGradient id="linear-gradient-3" x1="94.183" x2="94.183" xlink:href="#linear-gradient" y1="484" y2="73.512"/><path d="m217.292 320h77.416a23.5 23.5 0 1 0 0-47h-77.416a23.5 23.5 0 1 0 0 47zm0-35h77.416a11.5 11.5 0 1 1 0 23h-77.416a11.5 11.5 0 1 1 0-23z" fill="url(#linear-gradient)"/><path d="m87.552 277.337a6 6 0 0 0 5.07-6.8l-.69-4.728a6 6 0 0 0 -11.874 1.734l.69 4.727a5.992 5.992 0 0 0 6.8 5.07z" fill="url(#linear-gradient-2)"/><path d="m95.774 292.127a6 6 0 0 0 -11.874 1.734l8.691 59.546a6 6 0 1 0 11.874-1.733z" fill="url(#linear-gradient-3)"/><path d="m465 186h-11v-102.136a11.54 11.54 0 0 0 -11.573-11.864h-31.243a12.057 12.057 0 0 0 -12.184 11.864v102.136h-286v-102.136a12.057 12.057 0 0 0 -12.184-11.864h-31.243a11.54 11.54 0 0 0 -11.573 11.864v102.136h-11a17.822 17.822 0 0 0 -18 17.767v26.46a17.828 17.828 0 0 0 18 17.773h2.675l26.287 169.93a25.9 25.9 0 0 0 25.694 22.07h308.687a25.9 25.9 0 0 0 25.694-22.069l26.288-169.931h2.675a17.828 17.828 0 0 0 18-17.773v-26.46a17.822 17.822 0 0 0 -18-17.767zm-54-102h31v102h-31zm-341 0h31v102h-31zm401 146a6 6 0 0 1 -6 6h-329a6 6 0 0 0 0 12h314.182l-26 168.1a13.965 13.965 0 0 1 -13.839 11.9h-308.634a14.053 14.053 0 0 1 -13.888-11.9l-26-168.1h32.179a6 6 0 0 0 0-12h-47a6 6 0 0 1 -6-6v-26a6 6 0 0 1 6-6h418a6 6 0 0 1 6 6z" fill="url(#linear-gradient)"/></svg>