<svg id="Layer_1" height="512" viewBox="0 0 512 512" width="512" xmlns="http://www.w3.org/2000/svg" xmlns:xlink="http://www.w3.org/1999/xlink" data-name="Layer 1"><linearGradient id="linear-gradient" gradientUnits="userSpaceOnUse" x1="256" x2="256" y1="484" y2="73.512"><stop offset=".322" stop-color="#a163f5"/><stop offset=".466" stop-color="#b074ee"/><stop offset=".752" stop-color="#d8a1dd"/><stop offset=".898" stop-color="#efbad3"/></linearGradient><linearGradient id="linear-gradient-3" x1="190" x2="190" xlink:href="#linear-gradient" y1="484" y2="73.512"/><linearGradient id="linear-gradient-5" x1="255.5" x2="255.5" xlink:href="#linear-gradient" y1="484" y2="73.512"/><path d="m184 425a12 12 0 0 0 12 12h120a12 12 0 0 0 12-12v-167a12 12 0 0 0 -12-12h-120a12 12 0 0 0 -12 12zm12-167.5 120-.007v16.507h-120zm0 28.5h120v18h-120zm0 30h120v18h-120zm0 30h120v18h-120zm0 30h120v18h-120zm0 30h120v18h-120z" fill="url(#linear-gradient)"/><path d="m336.639 64h-27.639v-18.5c0-9.925-8.038-17.5-17.963-17.5h-70.074c-9.925 0-17.963 7.575-17.963 17.5v18.5h-27.639a36.228 36.228 0 0 0 -36.361 36.006v348.314c0 19.95 16.411 36.68 36.361 36.68h161.278c19.95 0 36.361-16.73 36.361-36.68v-348.314a36.228 36.228 0 0 0 -36.361-36.006zm-121.639-18.5c0-3.309 2.655-5.5 5.963-5.5h70.074c3.308 0 5.963 2.191 5.963 5.5v18.5h-82zm146 403.32a24.18 24.18 0 0 1 -24.18 24.18h-161.64a24.18 24.18 0 0 1 -24.18-24.18v-348.64a24.18 24.18 0 0 1 24.18-24.18h161.64a24.18 24.18 0 0 1 24.18 24.18z" fill="url(#linear-gradient)"/><path d="m190 127a6 6 0 0 0 6-6v-4.778a6 6 0 0 0 -12 0v4.778a6 6 0 0 0 6 6z" fill="url(#linear-gradient-3)"/><path d="m184 204a6 6 0 0 0 12 0v-61.182a6 6 0 1 0 -12 0z" fill="url(#linear-gradient-3)"/><path d="m335.94 84h-160.88a16.06 16.06 0 0 0 -16.06 16.06v26.94a6 6 0 0 0 12 0v-26.94a4.06 4.06 0 0 1 4.06-4.06h160.88a4.06 4.06 0 0 1 4.06 4.06v347.88a4.06 4.06 0 0 1 -4.06 4.06h-160.88a4.06 4.06 0 0 1 -4.06-4.06v-278.94a6 6 0 0 0 -12 0v278.94a16.06 16.06 0 0 0 16.06 16.06h160.88a16.06 16.06 0 0 0 16.06-16.06v-347.88a16.06 16.06 0 0 0 -16.06-16.06z" fill="url(#linear-gradient-5)"/></svg>