<svg id="Layer_1" enable-background="new 0 0 512 512" height="512" viewBox="0 0 512 512" width="512" xmlns="http://www.w3.org/2000/svg" xmlns:xlink="http://www.w3.org/1999/xlink"><linearGradient id="lg1"><stop offset=".322" stop-color="#a163f5"/><stop offset=".466" stop-color="#b074ee"/><stop offset=".752" stop-color="#d8a1dd"/><stop offset=".898" stop-color="#efbad3"/></linearGradient><linearGradient id="SVGID_1_" gradientTransform="matrix(1 0 0 -1 0 514)" gradientUnits="userSpaceOnUse" x1="256" x2="256" xlink:href="#lg1" y1="44" y2="431.138"/><linearGradient id="SVGID_2_" gradientTransform="matrix(1 0 0 -1 0 514)" gradientUnits="userSpaceOnUse" x1="113.557" x2="113.557" xlink:href="#lg1" y1="44" y2="431.138"/><linearGradient id="SVGID_3_" gradientTransform="matrix(1 0 0 -1 0 514)" gradientUnits="userSpaceOnUse" x1="398.436" x2="398.436" xlink:href="#lg1" y1="44" y2="431.138"/><linearGradient id="SVGID_4_" gradientTransform="matrix(1 0 0 -1 0 514)" gradientUnits="userSpaceOnUse" x1="127.953" x2="127.953" xlink:href="#lg1" y1="44" y2="431.138"/><linearGradient id="SVGID_5_" gradientTransform="matrix(1 0 0 -1 0 514)" gradientUnits="userSpaceOnUse" x1="106.935" x2="106.935" xlink:href="#lg1" y1="44" y2="431.138"/><linearGradient id="SVGID_6_" gradientTransform="matrix(1 0 0 -1 0 514)" gradientUnits="userSpaceOnUse" x1="256.002" x2="256.002" xlink:href="#lg1" y1="44" y2="431.138"/><path d="m241.288 262h29.424c9.389 0 17-7.611 17-17s-7.611-17-17-17h-29.424c-9.389 0-17 7.611-17 17s7.611 17 17 17zm0-22h29.424c2.761 0 5 2.239 5 5s-2.239 5-5 5h-29.424c-2.761 0-5-2.239-5-5s2.239-5 5-5z" fill="url(#SVGID_1_)"/><path d="m119.216 265.825c-29.192-3.124-55.389 18.008-58.513 47.199s18.008 55.389 47.199 58.513c29.192 3.124 55.389-18.008 58.513-47.199 0-.002.001-.005.001-.007 3.096-29.182-18.023-55.36-47.2-58.506zm35.271 57.231c-2.406 22.615-22.689 38.999-45.305 36.593-22.615-2.406-38.999-22.689-36.593-45.305 2.406-22.615 22.689-38.999 45.305-36.593.015.002.031.003.046.005 22.589 2.44 38.939 22.706 36.547 45.3z" fill="url(#SVGID_2_)"/><path d="m392.784 265.825c-29.191 3.121-50.324 29.315-47.203 58.506s29.315 50.324 58.506 47.203 50.324-29.315 47.203-58.506c0-.001 0-.002 0-.003-3.155-29.172-29.327-50.286-58.506-47.2zm37.682 78.7c-14.272 17.69-40.183 20.461-57.873 6.189s-20.461-40.183-6.189-57.873c6.854-8.496 16.802-13.92 27.656-15.081 22.585-2.431 42.863 13.907 45.294 36.492.002.018.004.037.006.055 1.189 10.855-2.013 21.735-8.894 30.215z" fill="url(#SVGID_3_)"/><path d="m124.4 149.29c3.026 1.351 6.574-.007 7.925-3.033v-.001l2.129-4.771c1.446-2.982.2-6.571-2.782-8.016-2.982-1.446-6.571-.2-8.016 2.782-.056.115-.108.232-.156.35l-2.129 4.77c-1.348 3.023.007 6.567 3.029 7.919z" fill="url(#SVGID_4_)"/><path d="m119.569 160.121c-3.026-1.35-6.574.009-7.924 3.035l-20.376 45.668c-1.35 3.026.009 6.574 3.035 7.924s6.574-.009 7.924-3.035l20.372-45.668c1.351-3.025-.006-6.572-3.031-7.924z" fill="url(#SVGID_5_)"/><path d="m477.254 268.239-65-130.647c-11.459-25.336-37.892-40.45-65.539-37.475l-.109.011c-34.805 3.799-60.258 34.618-57.41 69.514-21.433-7.783-44.915-7.812-66.368-.083 2.855-35.533-23.636-66.653-59.169-69.508-27.093-2.177-52.646 12.852-63.911 37.587l-65 130.623c-8.15 12.715-13.087 27.222-14.384 42.269-4.382 49.778 31.724 94.606 81.29 100.952 4.01.513 8.048.77 12.09.77 21.326.013 42.007-7.315 58.568-20.752 7.093-5.712 13.316-12.425 18.474-19.93l13.9 4.19c33.464 10.121 69.168 10.158 102.653.105l13.963-4.178c5.142 7.456 11.336 14.129 18.389 19.811 16.56 13.439 37.241 20.768 58.568 20.755 3.383-.001 6.763-.182 10.126-.542 51.395-5.516 88.588-51.652 83.072-103.047-1.544-14.39-6.405-28.226-14.2-40.421zm-176.026-98.612c-2.889-28.72 17.902-54.406 46.594-57.562l.109-.01c22.553-2.439 44.116 9.903 53.434 30.585.031.067.062.134.095.2l48.7 97.874c-40.25-26.697-94.206-18.37-124.534 19.219-5.26 6.507-9.627 13.687-12.987 21.35l-10.312-100.9zm-190.688-26.775c.033-.066.064-.139.095-.207 11.966-26.442 43.103-38.177 69.545-26.21 20.636 9.339 32.966 30.849 30.596 53.375l-3.11 30.583c-.363 3.294 2.013 6.258 5.306 6.621 3.294.363 6.258-2.013 6.621-5.306.004-.034.007-.067.01-.101l1.89-18.584c22.003-9.693 47.075-9.655 69.048.106l10.923 106.871h-90.9l4.751-46.389c.337-3.296-2.061-6.242-5.358-6.58-.204-.021-.408-.031-.613-.031-3.077 0-5.655 2.327-5.969 5.388l-4.01 39.079c-3.359-7.692-7.726-14.902-12.987-21.442-30.306-37.618-84.27-45.975-124.535-19.287zm84.135 184.322-.03.3c-4.908 44.774-45.184 77.093-89.958 72.185-44.654-4.895-76.943-44.977-72.218-89.65.693-6.493 2.158-12.879 4.364-19.025l8.348-16.78c4.691-7.196 10.486-13.608 17.173-19 14.435-11.716 32.464-18.105 51.055-18.093 2.949.001 5.895.158 8.827.472 44.718 4.781 77.126 44.861 72.439 89.589zm109.225 37.191c-31.233 9.375-64.536 9.34-95.75-.1l-11.083-3.342c4.992-9.891 8.187-20.591 9.437-31.6h.017l.06-.589c0-.037.011-.074.015-.111.015-.143.026-.1.04-.247l2.7-26.38h93.354l2.678 26.2c.014.143.025.287.04.43 0 .037.011.073.015.11l.06.589h.017c1.255 11.054 4.472 21.795 9.5 31.719zm103.21 35.41c-44.739 4.784-84.9-27.568-89.751-72.3l-.03-.3c-4.662-44.812 27.887-84.919 72.699-89.581 30.437-3.166 60.086 10.967 76.791 36.606l8.348 16.78c15.261 42.421-6.757 89.181-49.178 104.442-6.099 2.194-12.439 3.654-18.883 4.349z" fill="url(#SVGID_6_)"/></svg>