<svg id="Layer_1" height="512" viewBox="0 0 512 512" width="512" xmlns="http://www.w3.org/2000/svg" xmlns:xlink="http://www.w3.org/1999/xlink" data-name="Layer 1"><linearGradient id="linear-gradient" gradientUnits="userSpaceOnUse" x1="256" x2="256" y1="484" y2="75.569"><stop offset=".322" stop-color="#a163f5"/><stop offset=".466" stop-color="#b074ee"/><stop offset=".752" stop-color="#d8a1dd"/><stop offset=".898" stop-color="#efbad3"/></linearGradient><linearGradient id="linear-gradient-2" x1="328.5" x2="328.5" xlink:href="#linear-gradient" y1="484" y2="75.569"/><linearGradient id="linear-gradient-3" x1="325.095" x2="325.095" xlink:href="#linear-gradient" y1="484" y2="75.569"/><linearGradient id="linear-gradient-4" x1="354.082" x2="354.082" xlink:href="#linear-gradient" y1="484" y2="75.569"/><linearGradient id="linear-gradient-8" x1="86" x2="86" xlink:href="#linear-gradient" y1="484" y2="75.569"/><path d="m463.534 132h-5.534v-18.291a25.709 25.709 0 0 0 -25.709-25.709h-146.506a25.919 25.919 0 0 0 -12.864 3.259l-16.921 9.561-16.922-9.52a25.936 25.936 0 0 0 -12.863-3.3h-146.123a26.168 26.168 0 0 0 -26.092 26.092v17.908h-5.534c-14.336 0-26.466 11.39-26.466 25.726v240.565c0 14.336 12.13 25.709 26.466 25.709h415.068c14.337 0 26.466-11.373 26.466-25.709v-240.565c0-14.336-12.129-25.726-26.466-25.726zm-201.534-20.86 16.858-9.452a13.887 13.887 0 0 1 6.927-1.688h146.123a13.849 13.849 0 0 1 14.092 13.709v252.291a14.094 14.094 0 0 1 -14.092 14h-169.908zm-140-11.14h51v87.089l-21.876-15.029a6.391 6.391 0 0 0 -7.04 0l-22.084 15.029zm356 298.291c0 7.72-6.746 13.709-14.466 13.709h-415.068c-7.72 0-14.466-5.989-14.466-13.709v-240.565c0-7.72 6.746-13.726 14.466-13.726h5.534v42a6 6 0 0 0 12 0v-72.291a13.709 13.709 0 0 1 13.709-13.709h30.291v98.5a6.219 6.219 0 0 0 3.431 5.311 6.444 6.444 0 0 0 2.9.689 6.17 6.17 0 0 0 3.458-1.057l27.873-19.157 27.717 19.059a6.216 6.216 0 0 0 4.391 1.11 6.073 6.073 0 0 0 5.23-5.955v-98.5h41.215a13.881 13.881 0 0 1 6.926 1.688l16.859 9.452v268.86h-169.908a14.133 14.133 0 0 1 -14.092-14.092v-137.908a6 6 0 0 0 -12 0v138a26 26 0 0 0 26 26h351.908a26.168 26.168 0 0 0 26.092-26.092v-221.908h5.534c7.72 0 14.466 6.006 14.466 13.726z" fill="url(#linear-gradient)"/><path d="m291 179h75a12 12 0 0 0 12-12v-21a12 12 0 0 0 -12-12h-75a12 12 0 0 0 -12 12v21a12 12 0 0 0 12 12zm0-33h74.922l.007 21h-74.929z" fill="url(#linear-gradient-2)"/><path d="m288.082 216a6 6 0 0 0 0 12h74.026a6 6 0 0 0 0-12z" fill="url(#linear-gradient-3)"/><g fill="url(#linear-gradient-4)"><path d="m420.082 245h-132a6 6 0 0 0 0 12h132a6 6 0 0 0 0-12z"/><path d="m420.082 274h-132a6 6 0 0 0 0 12h132a6 6 0 0 0 0-12z"/><path d="m420.082 303h-132a6 6 0 0 0 0 12h132a6 6 0 0 0 0-12z"/><path d="m420.082 332h-132a6 6 0 0 0 0 12h132a6 6 0 0 0 0-12z"/></g><path d="m86 132.5a6 6 0 0 0 6-6v-4.778a6 6 0 0 0 -12 0v4.778a6 6 0 0 0 6 6z" fill="url(#linear-gradient-8)"/><path d="m86 217.5a6 6 0 0 0 6-6v-63.182a6 6 0 0 0 -12 0v63.182a6 6 0 0 0 6 6z" fill="url(#linear-gradient-8)"/></svg>