<svg id="Layer_1" height="512" viewBox="0 0 512 512" width="512" xmlns="http://www.w3.org/2000/svg" xmlns:xlink="http://www.w3.org/1999/xlink" data-name="Layer 1"><linearGradient id="linear-gradient" gradientUnits="userSpaceOnUse" x1="111.5" x2="111.5" y1="470" y2="82.862"><stop offset=".322" stop-color="#a163f5"/><stop offset=".466" stop-color="#b074ee"/><stop offset=".752" stop-color="#d8a1dd"/><stop offset=".898" stop-color="#efbad3"/></linearGradient><linearGradient id="linear-gradient-2" x1="107.699" x2="107.699" xlink:href="#linear-gradient" y1="470" y2="82.862"/><linearGradient id="linear-gradient-3" x1="140.805" x2="140.805" xlink:href="#linear-gradient" y1="470" y2="82.862"/><linearGradient id="linear-gradient-5" x1="458" x2="458" xlink:href="#linear-gradient" y1="470" y2="82.862"/><linearGradient id="linear-gradient-7" x1="256" x2="256" xlink:href="#linear-gradient" y1="470" y2="82.862"/><path d="m68 303h87a12 12 0 0 0 12-12v-25a12 12 0 0 0 -12-12h-87a12 12 0 0 0 -12 12v25a12 12 0 0 0 12 12zm0-37h87.18l.008 25h-87.188z" fill="url(#linear-gradient)"/><path d="m149.972 348h-84.545a6 6 0 0 0 0 12h84.545a6 6 0 0 0 0-12z" fill="url(#linear-gradient-2)"/><path d="m216.184 381h-150.757a6 6 0 0 0 0 12h150.757a6 6 0 0 0 0-12z" fill="url(#linear-gradient-3)"/><path d="m216.184 414h-150.757a6 6 0 0 0 0 12h150.757a6 6 0 0 0 0-12z" fill="url(#linear-gradient-3)"/><path d="m458 166.6a6 6 0 0 0 6-6v-5.181a6 6 0 1 0 -12 0v5.181a6 6 0 0 0 6 6z" fill="url(#linear-gradient-5)"/><path d="m458 256.605a6 6 0 0 0 6-6v-66.34a6 6 0 0 0 -12 0v66.34a6 6 0 0 0 6 6z" fill="url(#linear-gradient-5)"/><path d="m433.451 50.272a6.022 6.022 0 0 0 -4.683-2.272h-345.536a6.022 6.022 0 0 0 -4.683 2.272l-58.233 72.728a6.044 6.044 0 0 0 -1.316 3.759v331.2a6.04 6.04 0 0 0 6 6.041h462a6.04 6.04 0 0 0 6-6.046v-331.195a6.044 6.044 0 0 0 -1.316-3.759zm-171.451 9.728h163.886l48.622 61h-212.508zm33 73v91.58l-78 25.959v-117.539zm186 319h-450v-319h56a6 6 0 0 0 0-12h-49.508l48.622-61h163.886v61h-121a6 6 0 0 0 0 12h76v125.891a6.229 6.229 0 0 0 2.725 4.873 6.355 6.355 0 0 0 5.586.813l89.35-30a6.238 6.238 0 0 0 4.339-5.686v-95.891h174z" fill="url(#linear-gradient-7)"/></svg>