<svg id="Layer_1" height="512" viewBox="0 0 512 512" width="512" xmlns="http://www.w3.org/2000/svg" xmlns:xlink="http://www.w3.org/1999/xlink" data-name="Layer 1"><linearGradient id="linear-gradient" gradientUnits="userSpaceOnUse" x1="102" x2="102" y1="470" y2="82.862"><stop offset=".322" stop-color="#a163f5"/><stop offset=".466" stop-color="#b074ee"/><stop offset=".752" stop-color="#d8a1dd"/><stop offset=".898" stop-color="#efbad3"/></linearGradient><linearGradient id="linear-gradient-3" x1="256" x2="256" xlink:href="#linear-gradient" y1="470" y2="82.862"/><path d="m102 46.891a6 6 0 0 0 -6 6v5.18a6 6 0 0 0 12 0v-5.18a6 6 0 0 0 -6-6z" fill="url(#linear-gradient)"/><path d="m102 75.736a6 6 0 0 0 -6 6v56.34a6 6 0 0 0 12 0v-56.34a6 6 0 0 0 -6-6z" fill="url(#linear-gradient)"/><path d="m425.839 20h-60.169a6 6 0 0 0 -5.52 3.648l-18.935 44.452-18.936-44.452a6 6 0 0 0 -5.52-3.648h-230.768a14.008 14.008 0 0 0 -13.991 14v238.651c0 19.849 16.14 36.349 35.991 36.349h84.528c7.72 0 14.481 5.932 14.481 13.651v120.5a48.5 48.5 0 1 0 97 0v-120.5c0-7.719 6.507-13.651 14.227-13.651h85.612a36.478 36.478 0 0 0 36.161-36.349v-238.651a14.154 14.154 0 0 0 -14.161-14zm-133.839 422.827c0 20.126-16 36.972-36.128 37.171a36.591 36.591 0 0 1 -36.872-36.852v-35.146h73zm0-46.827h-73v-34h73zm136-176h-282a6 6 0 0 0 0 12h282v40.651a24.421 24.421 0 0 1 -24.349 24.349h-85.424a26.3 26.3 0 0 0 -26.227 26.227v26.773h-73v-27.349a25.651 25.651 0 0 0 -25.651-25.651h-85.358a23.991 23.991 0 0 1 -23.991-23.991v-41.009h20a6 6 0 0 0 0-12h-20v-186a2 2 0 0 1 2-2h226.793l22.9 53.762a6 6 0 0 0 11.04 0l22.903-53.762h56.2a2.167 2.167 0 0 1 2.164 2.161z" fill="url(#linear-gradient-3)"/></svg>