<svg id="Layer_1" height="512" viewBox="0 0 512 512" width="512" xmlns="http://www.w3.org/2000/svg" xmlns:xlink="http://www.w3.org/1999/xlink" data-name="Layer 1"><linearGradient id="linear-gradient" gradientUnits="userSpaceOnUse" x1="256" x2="256" y1="480" y2="45.982"><stop offset=".322" stop-color="#a163f5"/><stop offset=".466" stop-color="#b074ee"/><stop offset=".752" stop-color="#d8a1dd"/><stop offset=".898" stop-color="#efbad3"/></linearGradient><linearGradient id="linear-gradient-2" x1="441.731" x2="441.731" xlink:href="#linear-gradient" y1="480" y2="45.982"/><linearGradient id="linear-gradient-3" x1="70.269" x2="70.269" xlink:href="#linear-gradient" y1="480" y2="45.982"/><linearGradient id="linear-gradient-4" x1="387.331" x2="387.331" xlink:href="#linear-gradient" y1="480" y2="45.982"/><linearGradient id="linear-gradient-5" x1="124.669" x2="124.669" xlink:href="#linear-gradient" y1="480" y2="45.982"/><linearGradient id="linear-gradient-8" x1="167.283" x2="167.283" xlink:href="#linear-gradient" y1="480" y2="45.982"/><linearGradient id="linear-gradient-9" x1="205.897" x2="205.897" xlink:href="#linear-gradient" y1="480" y2="45.982"/><linearGradient id="linear-gradient-10" x1="255.728" x2="255.728" xlink:href="#linear-gradient" y1="480" y2="45.982"/><path d="m256 78.211a6 6 0 0 0 6-6v-50.539a6 6 0 0 0 -12 0v50.539a6 6 0 0 0 6 6z" fill="url(#linear-gradient)"/><path d="m467 227h-50.539a6 6 0 0 0 0 12h50.539a6 6 0 0 0 0-12z" fill="url(#linear-gradient-2)"/><path d="m95.539 227h-50.539a6 6 0 0 0 0 12h50.539a6 6 0 0 0 0-12z" fill="url(#linear-gradient-3)"/><path d="m369.463 125.209a5.981 5.981 0 0 0 4.243-1.758l35.736-35.736a6 6 0 1 0 -8.485-8.485l-35.737 35.737a6 6 0 0 0 4.243 10.242z" fill="url(#linear-gradient-4)"/><path d="m138.294 341.893-35.736 35.736a6 6 0 1 0 8.485 8.484l35.737-35.736a6 6 0 1 0 -8.486-8.484z" fill="url(#linear-gradient-5)"/><path d="m373.706 341.893a6 6 0 0 0 -8.486 8.484l35.737 35.736a6 6 0 0 0 8.485-8.484z" fill="url(#linear-gradient-4)"/><path d="m138.294 123.451a6 6 0 1 0 8.486-8.484l-35.737-35.737a6 6 0 1 0 -8.485 8.485z" fill="url(#linear-gradient-5)"/><path d="m180.113 150.8a120.448 120.448 0 0 0 -35.886 86.079 6 6 0 0 0 12 0 108.536 108.536 0 0 1 32.339-77.562 6 6 0 1 0 -8.453-8.517z" fill="url(#linear-gradient-8)"/><path d="m207.314 130.459c-3.09 1.7-6.138 3.551-9.06 5.5a6 6 0 1 0 6.672 9.974c2.634-1.762 5.381-3.431 8.167-4.961a6 6 0 0 0 -5.779-10.518z" fill="url(#linear-gradient-9)"/><path d="m349.174 134.18c-25.75-25.41-59.532-39.165-95.093-38.676a133.552 133.552 0 0 0 -131.787 133.383c0 40.881 18.593 79.079 51.012 104.8a69.986 69.986 0 0 1 26.213 50.8 18.285 18.285 0 0 0 -15.909 17.99 17.812 17.812 0 0 0 13.39 17.535v40.613a17.625 17.625 0 0 0 -13.39 17.375 18.151 18.151 0 0 0 18.29 18h108.2a18.151 18.151 0 0 0 18.288-18 17.625 17.625 0 0 0 -13.388-17.375v-40.612a17.813 17.813 0 0 0 13.391-17.539 18.231 18.231 0 0 0 -16.826-18.094 71.783 71.783 0 0 1 27.294-51.218 132.586 132.586 0 0 0 50.3-104.289c-.001-35.626-14.207-69.256-39.985-94.693zm-32.906 343.82a6.034 6.034 0 0 1 -6.165 6h-108.203a6 6 0 1 1 0-12h108.2a6.034 6.034 0 0 1 6.168 6zm-.916-72.244a6.97 6.97 0 0 1 -6.01 3.244h-54.342a6 6 0 0 0 0 12h48v39h-94v-39h4a6 6 0 0 0 0-12h-10.343a6.968 6.968 0 0 1 -6.009-3.244 6.475 6.475 0 0 1 5.252-9.756h108.2a6.475 6.475 0 0 1 5.252 9.756zm16-82.137a84.435 84.435 0 0 0 -31.874 60.381h-37.478v-115h11.722a4.046 4.046 0 0 1 0 8.092 6.012 6.012 0 0 0 0 12.023 16.058 16.058 0 0 0 0-32.115h-35.444a16.046 16.046 0 0 0 0 32.092 5.989 5.989 0 1 0 0-11.977 4.058 4.058 0 0 1 0-8.115h11.722v115h-38.456a82.987 82.987 0 0 0 -30.78-59.867c-29.532-23.432-46.47-58.127-46.47-95.324a121.518 121.518 0 0 1 119.945-121.326c32.323-.446 63.051 12.09 86.5 35.228 23.476 23.166 36.406 53.69 36.409 86.082a120.526 120.526 0 0 1 -45.793 94.826z" fill="url(#linear-gradient-10)"/></svg>