<svg id="Layer_1" height="512" viewBox="0 0 512 512" width="512" xmlns="http://www.w3.org/2000/svg" xmlns:xlink="http://www.w3.org/1999/xlink" data-name="Layer 1"><linearGradient id="linear-gradient" gradientUnits="userSpaceOnUse" x1="255.5" x2="255.5" y1="484" y2="73.512"><stop offset=".322" stop-color="#a163f5"/><stop offset=".466" stop-color="#b074ee"/><stop offset=".752" stop-color="#d8a1dd"/><stop offset=".898" stop-color="#efbad3"/></linearGradient><linearGradient id="linear-gradient-2" x1="151.5" x2="151.5" xlink:href="#linear-gradient" y1="484" y2="73.512"/><linearGradient id="linear-gradient-3" x1="221.5" x2="221.5" xlink:href="#linear-gradient" y1="484" y2="73.512"/><linearGradient id="linear-gradient-4" x1="290.5" x2="290.5" xlink:href="#linear-gradient" y1="484" y2="73.512"/><linearGradient id="linear-gradient-5" x1="360.5" x2="360.5" xlink:href="#linear-gradient" y1="484" y2="73.512"/><linearGradient id="linear-gradient-18" x1="108" x2="108" xlink:href="#linear-gradient" y1="484" y2="73.512"/><linearGradient id="linear-gradient-20" x1="256" x2="256" xlink:href="#linear-gradient" y1="484" y2="73.512"/><path d="m371 61h-231a12 12 0 0 0 -12 12v43a12 12 0 0 0 12 12h231a12 12 0 0 0 12-12v-43a12 12 0 0 0 -12-12zm1 55h-231.522l-.007-43h231.529z" fill="url(#linear-gradient)"/><path d="m123 201v30a12 12 0 0 0 12 12h33a12 12 0 0 0 12-12v-30a12 12 0 0 0 -12-12h-33a12 12 0 0 0 -12 12zm12.43 0h32.57v29h-32.57l-.008-29z" fill="url(#linear-gradient-2)"/><path d="m205 243h33a12 12 0 0 0 12-12v-30a12 12 0 0 0 -12-12h-33a12 12 0 0 0 -12 12v30a12 12 0 0 0 12 12zm-.438-42h32.438v29h-32.438l-.008-29z" fill="url(#linear-gradient-3)"/><path d="m274 243h33a12 12 0 0 0 12-12v-30a12 12 0 0 0 -12-12h-33a12 12 0 0 0 -12 12v30a12 12 0 0 0 12 12zm-.307-42h32.307v29h-32.307l-.007-29z" fill="url(#linear-gradient-4)"/><path d="m344 243h33a12 12 0 0 0 12-12v-30a12 12 0 0 0 -12-12h-33a12 12 0 0 0 -12 12v30a12 12 0 0 0 12 12zm.029-42h32.971v29h-32.971l-.007-29z" fill="url(#linear-gradient-5)"/><path d="m168 259h-33a12 12 0 0 0 -12 12v30a12 12 0 0 0 12 12h33a12 12 0 0 0 12-12v-30a12 12 0 0 0 -12-12zm0 41h-32.57l-.008-29h32.578z" fill="url(#linear-gradient-2)"/><path d="m205 313h33a12 12 0 0 0 12-12v-30a12 12 0 0 0 -12-12h-33a12 12 0 0 0 -12 12v30a12 12 0 0 0 12 12zm-.438-42h32.438v29h-32.438l-.008-29z" fill="url(#linear-gradient-3)"/><path d="m274 313h33a12 12 0 0 0 12-12v-30a12 12 0 0 0 -12-12h-33a12 12 0 0 0 -12 12v30a12 12 0 0 0 12 12zm-.307-42h32.307v29h-32.307l-.007-29z" fill="url(#linear-gradient-4)"/><path d="m344 313h33a12 12 0 0 0 12-12v-30a12 12 0 0 0 -12-12h-33a12 12 0 0 0 -12 12v30a12 12 0 0 0 12 12zm.029-42h32.971v29h-32.971l-.007-29z" fill="url(#linear-gradient-5)"/><path d="m168 329h-33a12 12 0 0 0 -12 12v30a12 12 0 0 0 12 12h33a12 12 0 0 0 12-12v-30a12 12 0 0 0 -12-12zm0 41h-32.57l-.008-29h32.578z" fill="url(#linear-gradient-2)"/><path d="m205 383h33a12 12 0 0 0 12-12v-30a12 12 0 0 0 -12-12h-33a12 12 0 0 0 -12 12v30a12 12 0 0 0 12 12zm-.438-42h32.438v29h-32.438l-.008-29z" fill="url(#linear-gradient-3)"/><path d="m274 383h33a12 12 0 0 0 12-12v-30a12 12 0 0 0 -12-12h-33a12 12 0 0 0 -12 12v30a12 12 0 0 0 12 12zm-.307-42h32.307v29h-32.307l-.007-29z" fill="url(#linear-gradient-4)"/><path d="m344 383h33a12 12 0 0 0 12-12v-30a12 12 0 0 0 -12-12h-33a12 12 0 0 0 -12 12v30a12 12 0 0 0 12 12zm.029-42h32.971v29h-32.971l-.007-29z" fill="url(#linear-gradient-5)"/><path d="m168 399h-33a12 12 0 0 0 -12 12v30a12 12 0 0 0 12 12h33a12 12 0 0 0 12-12v-30a12 12 0 0 0 -12-12zm0 41h-32.57l-.008-29h32.578z" fill="url(#linear-gradient-2)"/><path d="m205 453h33a12 12 0 0 0 12-12v-30a12 12 0 0 0 -12-12h-33a12 12 0 0 0 -12 12v30a12 12 0 0 0 12 12zm-.438-42h32.438v29h-32.438l-.008-29z" fill="url(#linear-gradient-3)"/><path d="m274 453h33a12 12 0 0 0 12-12v-30a12 12 0 0 0 -12-12h-33a12 12 0 0 0 -12 12v30a12 12 0 0 0 12 12zm-.307-42h32.307v29h-32.307l-.007-29z" fill="url(#linear-gradient-4)"/><path d="m344 453h33a12 12 0 0 0 12-12v-30a12 12 0 0 0 -12-12h-33a12 12 0 0 0 -12 12v30a12 12 0 0 0 12 12zm.029-42h32.971v29h-32.971l-.007-29z" fill="url(#linear-gradient-5)"/><path d="m108 189.218a6 6 0 0 0 -6 6v4.782a6 6 0 0 0 12 0v-4.778a6 6 0 0 0 -6-6.004z" fill="url(#linear-gradient-18)"/><path d="m108 215.818a6 6 0 0 0 -6 6v72.182a6 6 0 0 0 12 0v-72.182a6 6 0 0 0 -6-6z" fill="url(#linear-gradient-18)"/><path d="m403 22h-294a26 26 0 0 0 -26 26v416a26 26 0 0 0 26 26h294a26 26 0 0 0 26-26v-416a26 26 0 0 0 -26-26zm14 130h-261a6 6 0 0 0 0 12h261v300a14 14 0 0 1 -14 14h-294.167a13.833 13.833 0 0 1 -13.833-13.833v-300.167h19a6 6 0 0 0 0-12h-19v-104a14 14 0 0 1 14-14h294.167a13.833 13.833 0 0 1 13.833 13.833z" fill="url(#linear-gradient-20)"/></svg>