<svg id="Layer_1" height="512" viewBox="0 0 512 512" width="512" xmlns="http://www.w3.org/2000/svg" xmlns:xlink="http://www.w3.org/1999/xlink" data-name="Layer 1"><linearGradient id="linear-gradient" gradientUnits="userSpaceOnUse" x1="210" x2="210" y1="484" y2="75.569"><stop offset=".322" stop-color="#a163f5"/><stop offset=".466" stop-color="#b074ee"/><stop offset=".752" stop-color="#d8a1dd"/><stop offset=".898" stop-color="#efbad3"/></linearGradient><linearGradient id="linear-gradient-2" x1="302" x2="302" xlink:href="#linear-gradient" y1="484" y2="75.569"/><linearGradient id="linear-gradient-3" x1="394" x2="394" xlink:href="#linear-gradient" y1="484" y2="75.569"/><linearGradient id="linear-gradient-4" x1="117" x2="117" xlink:href="#linear-gradient" y1="484" y2="75.569"/><linearGradient id="linear-gradient-12" x1="58" x2="58" xlink:href="#linear-gradient" y1="484" y2="75.569"/><linearGradient id="linear-gradient-14" x1="256" x2="256" xlink:href="#linear-gradient" y1="484" y2="75.569"/><path d="m187 250h46a10 10 0 0 0 10-10v-41a10 10 0 0 0 -10-10h-46a10 10 0 0 0 -10 10v41a10 10 0 0 0 10 10zm2-49h42v37h-42z" fill="url(#linear-gradient)"/><path d="m279 250h46a10 10 0 0 0 10-10v-41a10 10 0 0 0 -10-10h-46a10 10 0 0 0 -10 10v41a10 10 0 0 0 10 10zm2-49h42v37h-42z" fill="url(#linear-gradient-2)"/><path d="m371 250h46a10 10 0 0 0 10-10v-41a10 10 0 0 0 -10-10h-46a10 10 0 0 0 -10 10v41a10 10 0 0 0 10 10zm2-49h42v37h-42z" fill="url(#linear-gradient-3)"/><path d="m84 285v41a10 10 0 0 0 10 10h46a10 10 0 0 0 10-10v-41a10 10 0 0 0 -10-10h-46a10 10 0 0 0 -10 10zm12 2h43v37h-43z" fill="url(#linear-gradient-4)"/><path d="m187 336h46a10 10 0 0 0 10-10v-41a10 10 0 0 0 -10-10h-46a10 10 0 0 0 -10 10v41a10 10 0 0 0 10 10zm2-49h42v37h-42z" fill="url(#linear-gradient)"/><path d="m279 336h46a10 10 0 0 0 10-10v-41a10 10 0 0 0 -10-10h-46a10 10 0 0 0 -10 10v41a10 10 0 0 0 10 10zm2-49h42v37h-42z" fill="url(#linear-gradient-2)"/><path d="m371 336h46a10 10 0 0 0 10-10v-41a10 10 0 0 0 -10-10h-46a10 10 0 0 0 -10 10v41a10 10 0 0 0 10 10zm2-49h42v37h-42z" fill="url(#linear-gradient-3)"/><path d="m140 360h-46a10 10 0 0 0 -10 10v41a10 10 0 0 0 10 10h46a10 10 0 0 0 10-10v-41a10 10 0 0 0 -10-10zm-1 50h-43v-38h43z" fill="url(#linear-gradient-4)"/><path d="m187 421h46a10 10 0 0 0 10-10v-41a10 10 0 0 0 -10-10h-46a10 10 0 0 0 -10 10v41a10 10 0 0 0 10 10zm2-49h42v38h-42z" fill="url(#linear-gradient)"/><path d="m279 421h46a10 10 0 0 0 10-10v-41a10 10 0 0 0 -10-10h-46a10 10 0 0 0 -10 10v41a10 10 0 0 0 10 10zm2-49h42v38h-42z" fill="url(#linear-gradient-2)"/><path d="m371 421h46a10 10 0 0 0 10-10v-41a10 10 0 0 0 -10-10h-46a10 10 0 0 0 -10 10v41a10 10 0 0 0 10 10zm2-49h42v38h-42z" fill="url(#linear-gradient-3)"/><path d="m58 170.113a6 6 0 0 0 -6 6v4.778a6 6 0 0 0 12 0v-4.778a6 6 0 0 0 -6-6z" fill="url(#linear-gradient-12)"/><path d="m58 196.713a6 6 0 0 0 -6 6v74.178a6 6 0 0 0 12 0v-74.178a6 6 0 0 0 -6-6z" fill="url(#linear-gradient-12)"/><path d="m466 70h-16v-12.647a24 24 0 0 0 -48 0v12.647h-37v-12.647a24 24 0 0 0 -48 0v12.647h-37v-12.647a24 24 0 0 0 -48 0v12.647h-37v-12.647a24 24 0 0 0 -48 0v12.647h-37v-12.647a24 24 0 0 0 -48 0v12.647h-16a25.8 25.8 0 0 0 -26 25.726v355a26.206 26.206 0 0 0 25.881 26.174l420 2.1h.119a26.3 26.3 0 0 0 26-26.353v-356.921a25.8 25.8 0 0 0 -26-25.726zm-52-12.647a12 12 0 0 1 24 0v42a12 12 0 0 1 -24 0zm-85 0a12 12 0 0 1 24 0v42a12 12 0 1 1 -24 0zm-85 0a12 12 0 0 1 24 0v42a12 12 0 1 1 -24 0zm-85 0a12 12 0 0 1 24 0v42a12 12 0 1 1 -24 0zm-85 0a12 12 0 0 1 24 0v42a12 12 0 1 1 -24 0zm406 85.647h-348a6 6 0 0 0 0 12h348v297.571a14.3 14.3 0 0 1 -14 14.429h-.066l-420-2.1a14.182 14.182 0 0 1 -13.934-14.178v-295.722h58a6 6 0 0 0 0-12h-58v-47.274a13.726 13.726 0 0 1 13.726-13.726h16.274v16.807c0 13.427 10.986 24.769 24.411 24.543a24.029 24.029 0 0 0 23.589-24v-17.35h37v16.807c0 13.427 10.986 24.769 24.411 24.543a24.029 24.029 0 0 0 23.589-24v-17.35h37v16.807c0 13.427 10.986 24.769 24.411 24.543a24.029 24.029 0 0 0 23.589-24v-17.35h37v16.807c0 13.427 10.986 24.769 24.411 24.543a24.029 24.029 0 0 0 23.589-24v-17.35h37v16.807c0 13.427 10.986 24.769 24.411 24.543a24.029 24.029 0 0 0 23.589-24v-17.35h16a14 14 0 0 1 14 14z" fill="url(#linear-gradient-14)"/></svg>