<svg id="Layer_1" height="512" viewBox="0 0 512 512" width="512" xmlns="http://www.w3.org/2000/svg" xmlns:xlink="http://www.w3.org/1999/xlink" data-name="Layer 1"><linearGradient id="linear-gradient" gradientUnits="userSpaceOnUse" x1="256" x2="256" y1="484" y2="73.512"><stop offset=".322" stop-color="#a163f5"/><stop offset=".466" stop-color="#b074ee"/><stop offset=".752" stop-color="#d8a1dd"/><stop offset=".898" stop-color="#efbad3"/></linearGradient><linearGradient id="linear-gradient-2" x1="212.208" x2="212.208" xlink:href="#linear-gradient" y1="484" y2="73.512"/><linearGradient id="linear-gradient-3" x1="208.173" x2="208.173" xlink:href="#linear-gradient" y1="484" y2="73.512"/><linearGradient id="linear-gradient-4" x1="71.833" x2="71.833" xlink:href="#linear-gradient" y1="484" y2="73.512"/><linearGradient id="linear-gradient-5" x1="421" x2="421" xlink:href="#linear-gradient" y1="484" y2="73.512"/><path d="m346 282.282a90 90 0 1 0 -90 90 90.1 90.1 0 0 0 90-90zm-168 0a78 78 0 1 1 78 78 78.088 78.088 0 0 1 -78-78z" fill="url(#linear-gradient)"/><path d="m210.711 258.961a5.982 5.982 0 0 0 4.249-1.763c.821-.824 1.692-1.621 2.589-2.369a6 6 0 1 0 -7.69-9.213c-1.175.981-2.318 2.028-3.4 3.109a6 6 0 0 0 4.249 10.236z" fill="url(#linear-gradient-2)"/><path d="m221.721 316.518a38.239 38.239 0 0 1 -15.712-45.148 6 6 0 0 0 -11.308-4.018 50.241 50.241 0 0 0 20.637 59.327 6 6 0 0 0 6.383-10.161z" fill="url(#linear-gradient-3)"/><path d="m71.833 153.948a22.667 22.667 0 1 0 22.667 22.667 22.693 22.693 0 0 0 -22.667-22.667zm0 33.334a10.667 10.667 0 1 1 10.667-10.667 10.679 10.679 0 0 1 -10.667 10.667z" fill="url(#linear-gradient-4)"/><path d="m445 155h-48a18 18 0 0 0 -18 18v18a18 18 0 0 0 18 18h48a18 18 0 0 0 18-18v-18a18 18 0 0 0 -18-18zm6 36a6 6 0 0 1 -6 6h-48a6 6 0 0 1 -6-6v-18a6 6 0 0 1 6-6h48a6 6 0 0 1 6 6z" fill="url(#linear-gradient-5)"/><path d="m468.865 121.922h-119.117l-13.285-33.712a25.747 25.747 0 0 0 -24.214-16.347l-112.48.137a25.761 25.761 0 0 0 -24.2 16.388l-13.25 33.612h-27.319v-13.052a12.26 12.26 0 0 0 -12.333-11.948h-53.334a12.259 12.259 0 0 0 -12.333 11.948v13.052h-13.729a26.193 26.193 0 0 0 -26.271 25.918v266.364c0 14.336 11.934 25.718 26.271 25.718h425.458c14.337 0 26.271-11.382 26.271-25.718v-266.36a26.145 26.145 0 0 0 -26.135-26zm-399.865-12.922h54v13h-54zm414 304.729a14.313 14.313 0 0 1 -14.271 14.271h-425.458a14.313 14.313 0 0 1 -14.271-14.271v-41.729h136.267a127.445 127.445 0 0 0 181.466 0h136.267zm-342.667-131.447a115.667 115.667 0 1 1 115.667 115.666 115.8 115.8 0 0 1 -115.667-115.666zm342.667 77.718h-125.79a127.667 127.667 0 1 0 -202.42 0h-125.79v-212.082a14.057 14.057 0 0 1 14.049-14h143.991a5.96 5.96 0 1 0 0-11.919h-11.828l11.526-29.363a13.939 13.939 0 0 1 13.031-8.9l112.463-.006a13.917 13.917 0 0 1 13.03 8.873l11.438 29.32h-107.741a5.959 5.959 0 0 0 -5.96 5.959v.081a5.96 5.96 0 0 0 5.959 5.96h239.751a14.266 14.266 0 0 1 14.29 14z" fill="url(#linear-gradient)"/></svg>