<svg id="Layer_1" height="512" viewBox="0 0 512 512" width="512" xmlns="http://www.w3.org/2000/svg" xmlns:xlink="http://www.w3.org/1999/xlink" data-name="Layer 1"><linearGradient id="linear-gradient" gradientUnits="userSpaceOnUse" x1="434.84" x2="434.84" y1="484" y2="73.512"><stop offset=".322" stop-color="#a163f5"/><stop offset=".466" stop-color="#b074ee"/><stop offset=".752" stop-color="#d8a1dd"/><stop offset=".898" stop-color="#efbad3"/></linearGradient><linearGradient id="linear-gradient-2" x1="233.451" x2="233.451" xlink:href="#linear-gradient" y1="484" y2="73.512"/><linearGradient id="linear-gradient-3" x1="255.999" x2="255.999" xlink:href="#linear-gradient" y1="484" y2="73.512"/><linearGradient id="linear-gradient-4" x1="294.5" x2="294.5" xlink:href="#linear-gradient" y1="484" y2="73.512"/><linearGradient id="linear-gradient-5" x1="213.5" x2="213.5" xlink:href="#linear-gradient" y1="484" y2="73.512"/><linearGradient id="linear-gradient-6" x1="375" x2="375" xlink:href="#linear-gradient" y1="484" y2="73.512"/><linearGradient id="linear-gradient-7" x1="139.996" x2="139.996" xlink:href="#linear-gradient" y1="484" y2="73.512"/><linearGradient id="linear-gradient-8" x1="147.629" x2="147.629" xlink:href="#linear-gradient" y1="484" y2="73.512"/><linearGradient id="linear-gradient-9" x1="288.606" x2="288.606" xlink:href="#linear-gradient" y1="484" y2="73.512"/><path d="m434.84 437.518a18 18 0 1 0 -18-18 18.021 18.021 0 0 0 18 18zm0-24a6 6 0 1 1 -6 6 6.007 6.007 0 0 1 6-6z" fill="url(#linear-gradient)"/><path d="m233.451 437.518a18 18 0 1 0 -18-18 18.021 18.021 0 0 0 18 18zm0-24a6 6 0 1 1 -6 6 6.006 6.006 0 0 1 6-6z" fill="url(#linear-gradient-2)"/><path d="m420.655 366a37 37 0 0 0 36.319-29.994l36.85-189.447a17.292 17.292 0 0 0 -16.686-20.559h-361.495l-5.993-41.55a37.038 37.038 0 0 0 -36.626-31.45h-38.162a17 17 0 0 0 0 34h38.162a2.985 2.985 0 0 1 2.97 2.46l35.08 244.785a37.154 37.154 0 0 0 33.926 31.646v14.532a56.308 56.308 0 0 0 53.229 56.06 39.328 39.328 0 0 0 35.171 22.251 38.905 38.905 0 0 0 35.12-21.734h131.251a39.038 39.038 0 1 0 35.069-56.266 39.306 39.306 0 0 0 -35.118 22.266h-131.153a39.035 39.035 0 0 0 -70.245-.525 22.377 22.377 0 0 1 -19.324-22.052v-14.423zm14.185 26.518a27 27 0 1 1 -27 27 27.03 27.03 0 0 1 27-27zm-162.714 22.482h124.039a32.417 32.417 0 0 0 -.325 4.951 43.658 43.658 0 0 0 .338 5.049h-124.065a43.658 43.658 0 0 0 .338-5.049 32.417 32.417 0 0 0 -.325-4.951zm-38.675-22.482a27 27 0 1 1 -27 27 27.03 27.03 0 0 1 27-27zm-38.7 21.419a48.41 48.41 0 0 0 -.158 10.129 44.284 44.284 0 0 1 -37.593-43.643v-14.423h10v14.423a34.292 34.292 0 0 0 27.746 33.514zm-47.051-59.937a24.977 24.977 0 0 1 -24.747-21.337l-35.08-245.025a14.822 14.822 0 0 0 -14.849-12.638h-38.162a5 5 0 0 1 0-10h38.162a25.191 25.191 0 0 1 24.748 21.4l6.736 46.578a5.9 5.9 0 0 0 5.938 5.022h366.692c1.527 0 2.862 1.125 3.862 2.247a5.045 5.045 0 0 1 1.047 4.259l-36.847 189.208a24.982 24.982 0 0 1 -24.545 20.286z" fill="url(#linear-gradient-3)"/><path d="m314 288.775v-80.255a19.5 19.5 0 1 0 -39 0v80.255a19.5 19.5 0 1 0 39 0zm-27 0v-80.255a7.5 7.5 0 1 1 15 0v80.255a7.5 7.5 0 1 1 -15 0z" fill="url(#linear-gradient-4)"/><path d="m233 288.775v-80.255a19.5 19.5 0 1 0 -39 0v80.255a19.5 19.5 0 1 0 39 0zm-27 0v-80.255a7.5 7.5 0 1 1 15 0v80.255a7.5 7.5 0 1 1 -15 0z" fill="url(#linear-gradient-5)"/><path d="m395 288.775v-80.255c0-10.773-9.228-19.538-20-19.538s-20 8.765-20 19.538v80.255c0 10.773 9.228 19.537 20 19.537s20-8.764 20-19.537zm-28 0v-80.255c0-4.156 3.844-7.538 8-7.538s8 3.382 8 7.538v80.255c0 4.156-3.844 7.537-8 7.537s-8-3.381-8-7.537z" fill="url(#linear-gradient-6)"/><path d="m141.218 189.26a6 6 0 0 0 5.061-6.811l-.7-4.726a6 6 0 1 0 -11.871 1.749l.7 4.726a6 6 0 0 0 5.928 5.127 6.14 6.14 0 0 0 .882-.065z" fill="url(#linear-gradient-7)"/><path d="m142.649 198.978a6 6 0 0 0 -5.061 6.81l8.211 55.747a6 6 0 0 0 11.871-1.749l-8.211-55.747a6 6 0 0 0 -6.81-5.061z" fill="url(#linear-gradient-8)"/><path d="m435 332.617 34.49-176.471a5.781 5.781 0 0 0 -3.4-6.618 6.848 6.848 0 0 0 -2.74-.527h-276.35a6 6 0 0 0 0 12h269.512l-32.912 169.325a3.271 3.271 0 0 1 -2.945 2.674h-272.955a3.276 3.276 0 0 1 -2.97-2.822l-24.21-169.178h24.48a6 6 0 0 0 0-12h-31.294a6.106 6.106 0 0 0 -2.675.569 6.022 6.022 0 0 0 -3.371 6.281l25.192 176.029a15.2 15.2 0 0 0 14.848 13.121h272.955a14.45 14.45 0 0 0 14.345-12.383z" fill="url(#linear-gradient-9)"/></svg>