<svg id="Layer_1" height="512" viewBox="0 0 512 512" width="512" xmlns="http://www.w3.org/2000/svg" xmlns:xlink="http://www.w3.org/1999/xlink" data-name="Layer 1"><linearGradient id="linear-gradient" gradientUnits="userSpaceOnUse" x1="159.137" x2="159.137" y1="484" y2="75.569"><stop offset=".322" stop-color="#a163f5"/><stop offset=".466" stop-color="#b074ee"/><stop offset=".752" stop-color="#d8a1dd"/><stop offset=".898" stop-color="#efbad3"/></linearGradient><linearGradient id="linear-gradient-2" x1="236" x2="236" xlink:href="#linear-gradient" y1="484" y2="75.569"/><linearGradient id="linear-gradient-6" x1="54" x2="54" xlink:href="#linear-gradient" y1="484" y2="75.569"/><linearGradient id="linear-gradient-8" x1="256" x2="256" xlink:href="#linear-gradient" y1="484" y2="75.569"/><path d="m86.5 162a6 6 0 0 0 6 6h133.274a6 6 0 0 0 0-12h-133.274a6 6 0 0 0 -6 6z" fill="url(#linear-gradient)"/><g fill="url(#linear-gradient-2)"><path d="m86.5 199a6 6 0 0 0 6 6h287a6 6 0 0 0 0-12h-287a6 6 0 0 0 -6 6z"/><path d="m379.5 230h-287a6 6 0 0 0 0 12h287a6 6 0 0 0 0-12z"/><path d="m379.5 266h-287a6 6 0 0 0 0 12h287a6 6 0 0 0 0-12z"/><path d="m379.5 303h-287a6 6 0 0 0 0 12h287a6 6 0 0 0 0-12z"/></g><path d="m54 121.218a6 6 0 0 0 -6 6v4.782a6 6 0 0 0 12 0v-4.778a6 6 0 0 0 -6-6.004z" fill="url(#linear-gradient-6)"/><path d="m54 147.818a6 6 0 0 0 -6 6v77.182a6 6 0 0 0 12 0v-77.182a6 6 0 0 0 -6-6z" fill="url(#linear-gradient-6)"/><path d="m466 45h-380a26.188 26.188 0 0 0 -26 26.184v13.816h-14a26 26 0 0 0 -26 26v260.216a25.784 25.784 0 0 0 25.784 25.784h43.216v63.545a6.27 6.27 0 0 0 2.991 5.462 5.991 5.991 0 0 0 3.009.809 6.118 6.118 0 0 0 3.577-1.291l92.158-68.525h235.265a26 26 0 0 0 26-26v-14h14a25.846 25.846 0 0 0 26-25.784v-260.032a26.188 26.188 0 0 0 -26-26.184zm14 286.216a13.832 13.832 0 0 1 -14 13.784h-14v-233.816a26.261 26.261 0 0 0 -26.184-26.184h-269.816a6 6 0 0 0 0 12h270a14.041 14.041 0 0 1 14 14v260.216a13.784 13.784 0 0 1 -13.784 13.784h-237.465a6.1 6.1 0 0 0 -3.576 1.291l-84.175 62.598v-57.673a6.234 6.234 0 0 0 -6.216-6.216h-48.784a14 14 0 0 1 -14-14v-259.816a14.226 14.226 0 0 1 14.184-14.184h67.816a6 6 0 0 0 0-12h-42v-13.816a14.174 14.174 0 0 1 14-14.184h380a14.174 14.174 0 0 1 14 14.184z" fill="url(#linear-gradient-8)"/></svg>