<svg id="Layer_1" height="512" viewBox="0 0 512 512" width="512" xmlns="http://www.w3.org/2000/svg" xmlns:xlink="http://www.w3.org/1999/xlink" data-name="Layer 1"><linearGradient id="linear-gradient" gradientUnits="userSpaceOnUse" x1="256" x2="256" y1="484" y2="73.512"><stop offset=".322" stop-color="#a163f5"/><stop offset=".466" stop-color="#b074ee"/><stop offset=".752" stop-color="#d8a1dd"/><stop offset=".898" stop-color="#efbad3"/></linearGradient><linearGradient id="linear-gradient-2" x1="284.686" x2="284.686" xlink:href="#linear-gradient" y1="484" y2="73.512"/><linearGradient id="linear-gradient-3" x1="256.104" x2="256.104" xlink:href="#linear-gradient" y1="484" y2="73.512"/><linearGradient id="linear-gradient-4" x1="175.716" x2="175.716" xlink:href="#linear-gradient" y1="484" y2="73.512"/><linearGradient id="linear-gradient-5" x1="135.817" x2="135.817" xlink:href="#linear-gradient" y1="484" y2="73.512"/><linearGradient id="linear-gradient-6" x1="256.784" x2="256.784" xlink:href="#linear-gradient" y1="484" y2="73.512"/><path d="m441.636 153.989a6 6 0 0 0 8.484 0l5.9-5.9a51.851 51.851 0 0 0 0-73.329l-34.063-34.06a51.91 51.91 0 0 0 -73.328 0l-5.9 5.9a6 6 0 0 0 0 8.485l45.017 45.015-17.246 17.242a201.484 201.484 0 0 0 -108.5-35.436v-15.906h31.34a5.792 5.792 0 0 0 5.66-6.083v-13.917a25.741 25.741 0 0 0 -25.66-26h-34.68a25.741 25.741 0 0 0 -25.66 26v13.917a5.792 5.792 0 0 0 5.66 6.083h31.34v15.906a201.493 201.493 0 0 0 -108.572 35.483l-17.228-17.232 45.075-45.075a6 6 0 0 0 0-8.485l-5.9-5.9a51.91 51.91 0 0 0 -73.328 0l-34.068 34.063a51.851 51.851 0 0 0 0 73.329l5.9 5.9a6 6 0 0 0 8.484 0l45.348-45.347 15.919 15.918a202.495 202.495 0 0 0 6.112 324.493l-25.364 33.247a6 6 0 1 0 9.541 7.278l25.776-33.79a202.3 202.3 0 0 0 216.654-.028l24.6 33.77a6 6 0 1 0 9.7-7.066l-24.359-33.435a202.492 202.492 0 0 0 6.015-324.518l15.926-15.926zm-375.514-12.728-1.658-1.661a39.9 39.9 0 0 1 0-56.359l34.063-34.059a39.9 39.9 0 0 1 56.36 0l1.657 1.657zm158.878-87.261v-8a13.729 13.729 0 0 1 13.66-14h34.68a13.729 13.729 0 0 1 13.66 14v8zm221.707 230.517c0 105.156-85.551 190.707-190.707 190.707s-190.707-85.551-190.707-190.707 85.551-190.707 190.707-190.707 190.707 85.551 190.707 190.707zm-91.251-233.678 1.657-1.657a39.9 39.9 0 0 1 56.36 0l34.063 34.063a39.9 39.9 0 0 1 0 56.359l-1.658 1.657z" fill="url(#linear-gradient)"/><path d="m256 206.429a6 6 0 0 0 -6 6v78.61a5.887 5.887 0 0 0 5.977 5.867l57.371.094h.023a5.9 5.9 0 1 0 .024-11.8l-51.395-.138v-72.633a6 6 0 0 0 -6-6z" fill="url(#linear-gradient-2)"/><path d="m81 284.517v.037c0 96.57 78.509 175.13 175.083 175.13s175.126-78.584 175.126-175.167-78.518-175.167-175.109-175.167-175.1 78.58-175.1 175.167zm58.93-106.4a5.922 5.922 0 0 0 4.243 1.7 6.037 6.037 0 0 0 4.243-10.286l-3.943-3.97a163.348 163.348 0 0 1 104.527-44.049v6.358a6 6 0 0 0 12 0v-6.438a161.689 161.689 0 0 1 105.489 43.117l-4.977 4.967a6 6 0 1 0 8.477 8.484l5-4.775a162.584 162.584 0 0 1 44.057 105.775h-7.412a6 6 0 0 0 0 12h7.41a163.548 163.548 0 0 1 -44.079 105.292l-4.977-5.091a5.97 5.97 0 1 0 -8.486 8.4l4.959 4.925a161.648 161.648 0 0 1 -105.461 43.074v-6.383a6 6 0 0 0 -12 0v6.3a163.321 163.321 0 0 1 -104.5-44.015l3.925-3.935a6 6 0 0 0 -8.493-8.486l-3.9 4.127a162.394 162.394 0 0 1 -43.076-104.208h5.328a6 6 0 0 0 0-12h-5.33a161.429 161.429 0 0 1 43.051-104.7z" fill="url(#linear-gradient-3)"/><path d="m172.7 182.956a5.979 5.979 0 0 0 3.643-1.236c1.885-1.442 3.83-2.849 5.784-4.182a6 6 0 0 0 -6.764-9.913c-2.132 1.456-4.256 2.991-6.313 4.565a6 6 0 0 0 3.65 10.766z" fill="url(#linear-gradient-4)"/><path d="m118.78 292a6 6 0 0 0 6-6 131.088 131.088 0 0 1 32.581-86.541 6 6 0 0 0 -9.017-7.918 143.08 143.08 0 0 0 -35.564 94.459 6 6 0 0 0 6 6z" fill="url(#linear-gradient-5)"/><path d="m143.685 259.753a5.991 5.991 0 0 0 5.872 7.247h.012a6.018 6.018 0 0 0 5.862-4.75 103 103 0 1 1 -.934 39.79 6 6 0 1 0 -11.842 1.947 115.174 115.174 0 0 0 116.048 95.5c60.411-1.394 109.857-50.017 112.208-110.4a115.008 115.008 0 0 0 -227.226-29.334z" fill="url(#linear-gradient-6)"/></svg>