<svg id="Layer_1" height="512" viewBox="0 0 512 512" width="512" xmlns="http://www.w3.org/2000/svg" xmlns:xlink="http://www.w3.org/1999/xlink" data-name="Layer 1"><linearGradient id="linear-gradient" gradientUnits="userSpaceOnUse" x1="255.5" x2="255.5" y1="484" y2="73.512"><stop offset=".322" stop-color="#a163f5"/><stop offset=".466" stop-color="#b074ee"/><stop offset=".752" stop-color="#d8a1dd"/><stop offset=".898" stop-color="#efbad3"/></linearGradient><linearGradient id="linear-gradient-2" x1="256" x2="256" xlink:href="#linear-gradient" y1="484" y2="73.512"/><linearGradient id="linear-gradient-3" x1="83" x2="83" xlink:href="#linear-gradient" y1="484" y2="73.512"/><path d="m464 28h-417a26 26 0 0 0 -26 26v299a26 26 0 0 0 26 26h150v65h-22.244a18.008 18.008 0 0 0 -17.756 18.225v15.486c0 3.313 2.442 6.289 5.756 6.289h186.488c3.314 0 5.756-2.976 5.756-6.289v-15.486a18.008 18.008 0 0 0 -17.756-18.225h-22.244v-65h149a26 26 0 0 0 26-26v-299a26 26 0 0 0 -26-26zm-126.756 428a6 6 0 0 1 5.756 6.225v9.775h-174v-9.775a6 6 0 0 1 5.756-6.225zm-128.244-12v-65h94v65zm270-90.977a14.244 14.244 0 0 1 -14.287 13.977h-417.426a14.244 14.244 0 0 1 -14.287-13.977v-32.023h446zm0-44.023h-446v-254.711a14.513 14.513 0 0 1 14.287-14.289h417.426a14.513 14.513 0 0 1 14.287 14.289z" fill="url(#linear-gradient)"/><path d="m256 361.357a17 17 0 1 0 -17-17 17.019 17.019 0 0 0 17 17zm0-22a5 5 0 1 1 -5 5 5.006 5.006 0 0 1 5-5z" fill="url(#linear-gradient-2)"/><path d="m83 99a6 6 0 0 0 6-6v-4.782a6 6 0 0 0 -12 0v4.782a6 6 0 0 0 6 6z" fill="url(#linear-gradient-3)"/><path d="m77 175a6 6 0 0 0 12 0v-60.182a6 6 0 1 0 -12 0z" fill="url(#linear-gradient-3)"/><path d="m446 60h-381a12 12 0 0 0 -12 12v26.816a6 6 0 1 0 12 0v-26.816h382v206h-381.626v-136.817a6.184 6.184 0 0 0 -6.189-6.183 6.184 6.184 0 0 0 -6.185 6.184v136.816a12 12 0 0 0 12 12h381a12 12 0 0 0 12-12v-206a12 12 0 0 0 -12-12z" fill="url(#linear-gradient)"/></svg>