<svg id="Layer_1" height="512" viewBox="0 0 512 512" width="512" xmlns="http://www.w3.org/2000/svg" xmlns:xlink="http://www.w3.org/1999/xlink" data-name="Layer 1"><linearGradient id="linear-gradient" gradientUnits="userSpaceOnUse" x1="256" x2="256" y1="470" y2="82.862"><stop offset=".322" stop-color="#a163f5"/><stop offset=".466" stop-color="#b074ee"/><stop offset=".752" stop-color="#d8a1dd"/><stop offset=".898" stop-color="#efbad3"/></linearGradient><linearGradient id="linear-gradient-2" x1="127" x2="127" xlink:href="#linear-gradient" y1="470" y2="82.862"/><linearGradient id="linear-gradient-4" x1="255.5" x2="255.5" xlink:href="#linear-gradient" y1="470" y2="82.862"/><path d="m476 153a6 6 0 0 0 0-12h-58v-11.444a35.286 35.286 0 0 0 -35.556-35.556h-11.444v-58a6 6 0 0 0 -12 0v58h-42v-58a6 6 0 0 0 -12 0v58h-43v-58a6 6 0 0 0 -12 0v58h-43v-58a6 6 0 0 0 -12 0v58h-42v-58a6 6 0 0 0 -12 0v58h-11.444a35.286 35.286 0 0 0 -35.556 35.556v11.444h-58a6 6 0 0 0 0 12h58v42h-58a6 6 0 0 0 0 12h58v43h-58a6 6 0 0 0 0 12h58v43h-58a6 6 0 0 0 0 12h58v42h-58a6 6 0 0 0 0 12h58v11.444a35.286 35.286 0 0 0 35.556 35.556h11.444v58a6 6 0 0 0 12 0v-58h42v58a6 6 0 0 0 12 0v-58h43v58a6 6 0 0 0 12 0v-58h43v58a6 6 0 0 0 12 0v-58h42v58a6 6 0 0 0 12 0v-58h11.444a35.286 35.286 0 0 0 35.556-35.556v-11.444h58a6 6 0 0 0 0-12h-58v-42h58a6 6 0 0 0 0-12h-58v-43h58a6 6 0 0 0 0-12h-58v-43h58a6 6 0 0 0 0-12h-58v-42zm-69 230a24 24 0 0 1 -24 24h-253a24 24 0 0 1 -24-24v-253a24 24 0 0 1 24-24h253a24 24 0 0 1 24 24z" fill="url(#linear-gradient)"/><path d="m127 122.113a6 6 0 0 0 -6 6v4.778a6 6 0 0 0 12 0v-4.778a6 6 0 0 0 -6-6z" fill="url(#linear-gradient-2)"/><path d="m127 148.713a6 6 0 0 0 -6 6v54.178a6 6 0 0 0 12 0v-54.178a6 6 0 0 0 -6-6z" fill="url(#linear-gradient-2)"/><path d="m328 157h-145a26 26 0 0 0 -26 26v29a6 6 0 0 0 12 0v-29a14 14 0 0 1 14-14h145a14 14 0 0 1 14 14v145a14 14 0 0 1 -14 14h-145a14 14 0 0 1 -14-14v-74a6 6 0 0 0 -12 0v74a26 26 0 0 0 26 26h145a26 26 0 0 0 26-26v-145a26 26 0 0 0 -26-26z" fill="url(#linear-gradient-4)"/></svg>