<svg id="Layer_1" height="512" viewBox="0 0 512 512" width="512" xmlns="http://www.w3.org/2000/svg" xmlns:xlink="http://www.w3.org/1999/xlink" data-name="Layer 1"><linearGradient id="linear-gradient" gradientUnits="userSpaceOnUse" x1="135" x2="135" y1="470" y2="82.862"><stop offset=".322" stop-color="#a163f5"/><stop offset=".466" stop-color="#b074ee"/><stop offset=".752" stop-color="#d8a1dd"/><stop offset=".898" stop-color="#efbad3"/></linearGradient><linearGradient id="linear-gradient-3" x1="256" x2="256" xlink:href="#linear-gradient" y1="470" y2="82.862"/><path d="m135 128.218a6 6 0 0 0 -6 6v4.782a6 6 0 0 0 12 0v-4.778a6 6 0 0 0 -6-6.004z" fill="url(#linear-gradient)"/><path d="m135 154.818a6 6 0 0 0 -6 6v61.182a6 6 0 0 0 12 0v-61.182a6 6 0 0 0 -6-6z" fill="url(#linear-gradient)"/><path d="m486 393h-61v-290.344a16.106 16.106 0 0 0 -1.152-6.019l31.63-31.63a6 6 0 1 0 -8.485-8.485l-31.63 31.63a16.078 16.078 0 0 0 -6.019-1.152h-290.344v-61a6.3 6.3 0 0 0 -6.344-6h-20a5.716 5.716 0 0 0 -5.656 6v61h-61a5.716 5.716 0 0 0 -6 5.656v20a6.3 6.3 0 0 0 6 6.344h61v290.344a16.1 16.1 0 0 0 1.152 6.019l-28.019 28.02a6 6 0 1 0 8.485 8.484l28.019-28.019a16.1 16.1 0 0 0 6.019 1.152h290.344v61a6.3 6.3 0 0 0 6.344 6h20a5.716 5.716 0 0 0 5.656-6v-61h61a5.716 5.716 0 0 0 6-5.656v-20a6.3 6.3 0 0 0 -6-6.344zm-399-286h-55v-8h55zm318 8.485 8-8v285.515h-8zm-286 3.515h43a6 6 0 0 0 0-12h-43v-8h285.515l-8 8h-192.515a6 6 0 0 0 0 12h180.515l-265.515 265.515zm274 8.485v265.515h-265.515zm-286 269.03-8 8v-372.515h8zm306 83.485h-8v-55h8zm67-67h-372.515l8-8h364.515z" fill="url(#linear-gradient-3)"/></svg>