<svg id="Layer_1" height="512" viewBox="0 0 512 512" width="512" xmlns="http://www.w3.org/2000/svg" xmlns:xlink="http://www.w3.org/1999/xlink" data-name="Layer 1"><linearGradient id="linear-gradient" gradientUnits="userSpaceOnUse" x1="142.509" x2="142.509" y1="480" y2="45.982"><stop offset=".322" stop-color="#a163f5"/><stop offset=".466" stop-color="#b074ee"/><stop offset=".752" stop-color="#d8a1dd"/><stop offset=".898" stop-color="#efbad3"/></linearGradient><linearGradient id="linear-gradient-2" x1="370.991" x2="370.991" xlink:href="#linear-gradient" y1="480" y2="45.982"/><linearGradient id="linear-gradient-4" x1="44.762" x2="44.762" xlink:href="#linear-gradient" y1="480" y2="45.982"/><linearGradient id="linear-gradient-5" x1="104.562" x2="104.562" xlink:href="#linear-gradient" y1="480" y2="45.982"/><linearGradient id="linear-gradient-6" x1="256" x2="256" xlink:href="#linear-gradient" y1="480" y2="45.982"/><path d="m94.009 370h97a34.5 34.5 0 0 0 0-69h-97a34.5 34.5 0 0 0 0 69zm0-57h97a22.5 22.5 0 0 1 0 45h-97a22.5 22.5 0 0 1 0-45z" fill="url(#linear-gradient)"/><path d="m295.491 325h151a6 6 0 0 0 0-12h-151a6 6 0 0 0 0 12z" fill="url(#linear-gradient-2)"/><path d="m295.491 357h151a6 6 0 0 0 0-12h-151a6 6 0 0 0 0 12z" fill="url(#linear-gradient-2)"/><path d="m47.15 113h-4.777a6 6 0 1 0 0 12h4.777a6 6 0 1 0 0-12z" fill="url(#linear-gradient-4)"/><path d="m140.15 113h-71.177a6 6 0 0 0 0 12h71.177a6 6 0 0 0 0-12z" fill="url(#linear-gradient-5)"/><path d="m474 86h-436a26 26 0 0 0 -26 26v287a26 26 0 0 0 26 26h436a26 26 0 0 0 26-26v-287a26 26 0 0 0 -26-26zm14 313.525c0 7.72-6.28 14.475-14 14.475h-436c-7.72 0-14-6.755-14-14.475v-159.525h464zm0-243.525h-389a6 6 0 0 0 0 12h389v60h-464v-60h33a6 6 0 0 0 0-12h-33v-43.525a14.518 14.518 0 0 1 14.475-14.475h435.525a14 14 0 0 1 14 14z" fill="url(#linear-gradient-6)"/></svg>