<svg id="Layer_1" height="512" viewBox="0 0 512 512" width="512" xmlns="http://www.w3.org/2000/svg" xmlns:xlink="http://www.w3.org/1999/xlink" data-name="Layer 1"><linearGradient id="linear-gradient" gradientUnits="userSpaceOnUse" x1="99.797" x2="99.797" y1="469.989" y2="82.851"><stop offset=".322" stop-color="#a163f5"/><stop offset=".466" stop-color="#b074ee"/><stop offset=".752" stop-color="#d8a1dd"/><stop offset=".898" stop-color="#efbad3"/></linearGradient><linearGradient id="linear-gradient-2" x1="133.077" x2="133.077" xlink:href="#linear-gradient" y1="470" y2="82.862"/><linearGradient id="linear-gradient-3" x1="256" x2="256" xlink:href="#linear-gradient" y1="470" y2="82.862"/><path d="m103.113 203.8a6 6 0 0 0 -9.534 7.287l2.9 3.8a6 6 0 0 0 9.535-7.287z" fill="url(#linear-gradient)"/><path d="m110.857 223.808a6 6 0 0 0 -1.123 8.41l37.153 48.6a6 6 0 0 0 9.534-7.287l-37.153-48.6a6 6 0 0 0 -8.411-1.123z" fill="url(#linear-gradient-2)"/><path d="m419.571 66.31a6.226 6.226 0 0 0 -5.24-3.31h-235.331a6 6 0 0 0 0 12h64.043l-84.22 94.674-50.962-94.674h29.139a6 6 0 0 0 0-12h-39.331a6.226 6.226 0 0 0 -5.24 3.31l-61.669 110.712a6.092 6.092 0 0 0 .642 6.834l220 262.507a5.993 5.993 0 0 0 9.2.021l220-262.474a6.182 6.182 0 0 0 .642-6.89zm-15.44 8.69-50.954 94.667-84.217-94.667zm-148.131 3.431 85.017 95.569h-170.034zm-158.335 2.911 49.89 92.658h-101.442zm-48.665 104.658h104.46l84.628 225.8zm207 239.383-89.728-239.383h179.456zm17.911-13.575 84.632-225.808h104.457zm90.534-237.808 49.89-92.658 51.552 92.658z" fill="url(#linear-gradient-3)"/></svg>