<svg id="Layer_1" height="512" viewBox="0 0 512 512" width="512" xmlns="http://www.w3.org/2000/svg" xmlns:xlink="http://www.w3.org/1999/xlink" data-name="Layer 1"><linearGradient id="linear-gradient" gradientUnits="userSpaceOnUse" x1="117.995" x2="117.995" y1="480" y2="45.982"><stop offset=".322" stop-color="#a163f5"/><stop offset=".466" stop-color="#b074ee"/><stop offset=".752" stop-color="#d8a1dd"/><stop offset=".898" stop-color="#efbad3"/></linearGradient><linearGradient id="linear-gradient-2" x1="291.871" x2="291.871" xlink:href="#linear-gradient" y1="480" y2="45.982"/><linearGradient id="linear-gradient-3" x1="246.114" x2="246.114" xlink:href="#linear-gradient" y1="480" y2="45.982"/><linearGradient id="linear-gradient-4" x1="273.921" x2="273.921" xlink:href="#linear-gradient" y1="480" y2="45.982"/><path d="m164.235 415.83-41.355-58.154a6.153 6.153 0 0 0 -4.88-2.676 6.16 6.16 0 0 0 -4.881 2.669l-41.361 57.917c-.112.156-.215.357-.312.523-8.729 15.075-8.586 33.384.384 48.943a53.046 53.046 0 0 0 92.377-.044c8.927-15.528 9.05-33.737.329-48.716-.093-.16-.193-.312-.301-.462zm-10.431 43.2a41.048 41.048 0 0 1 -71.577.048c-6.856-11.891-7.046-25.242-.535-36.676l36.3-50.758 36.308 50.919c6.494 11.337 6.318 24.616-.5 36.468z" fill="url(#linear-gradient)"/><path d="m294.386 149.211 3.454-3.453a6 6 0 0 0 -8.485-8.487l-3.454 3.454a6 6 0 0 0 8.485 8.486z" fill="url(#linear-gradient-2)"/><path d="m222.1 221.5 56.509-56.511a6 6 0 0 0 -8.486-8.484l-56.51 56.511a6 6 0 0 0 8.487 8.484z" fill="url(#linear-gradient-3)"/><path d="m396.345 20h-.1a50.39 50.39 0 0 0 -35.839 14.925l-36.53 36.617-5.776-5.775a27.821 27.821 0 0 0 -19.8-8.35 26.943 26.943 0 0 0 -21.269 10.683 26.488 26.488 0 0 0 -5.248 12.694 26.936 26.936 0 0 0 7.676 22.741l7.687 7.687-100.777 100.8a6 6 0 1 0 8.485 8.484l100.777-100.8 51.769 51.768-149.927 149.962a14.454 14.454 0 0 1 -3.527 2.589l-53.62 28.019-26.058-26.06 28.832-52.884a14.473 14.473 0 0 1 2.468-3.3l19.588-19.593a6 6 0 0 0 0-8.484 6 6 0 0 0 -8.485 0l-19.587 19.592a26.442 26.442 0 0 0 -4.518 6.038l-30.987 56.828a6 6 0 0 0 1.024 7.114l32.349 32.35a6 6 0 0 0 7.022 1.075l57.527-30.06a26.463 26.463 0 0 0 6.453-4.74l149.931-149.961 7.32 7.32a27.73 27.73 0 0 0 18.4 8.281 26.953 26.953 0 0 0 22.616-10.648 26.49 26.49 0 0 0 5.255-12.69 26.938 26.938 0 0 0 -7.674-22.757l-6.174-6.174 36.5-36.586a50.941 50.941 0 0 0 .023-71.916 50.4 50.4 0 0 0 -35.806-14.789zm1.366 148.566a15.015 15.015 0 0 1 -25.631 10.618l-84.137-84.135a15.016 15.016 0 0 1 21.236-21.236l84.134 84.137a14.913 14.913 0 0 1 4.398 10.616zm25.922-70.342-36.494 36.582-54.778-54.778 36.539-36.628a38.477 38.477 0 0 1 27.368-11.4h.077a38.5 38.5 0 0 1 27.362 11.322 38.907 38.907 0 0 1 -.074 54.902z" fill="url(#linear-gradient-4)"/></svg>