<svg id="Layer_1" height="512" viewBox="0 0 512 512" width="512" xmlns="http://www.w3.org/2000/svg" xmlns:xlink="http://www.w3.org/1999/xlink" data-name="Layer 1"><linearGradient id="linear-gradient" gradientUnits="userSpaceOnUse" x1="195.539" x2="195.539" y1="480" y2="45.982"><stop offset=".322" stop-color="#a163f5"/><stop offset=".466" stop-color="#b074ee"/><stop offset=".752" stop-color="#d8a1dd"/><stop offset=".898" stop-color="#efbad3"/></linearGradient><linearGradient id="linear-gradient-2" x1="243.768" x2="243.768" xlink:href="#linear-gradient" y2="45.982"/><linearGradient id="linear-gradient-3" x1="256" x2="256" xlink:href="#linear-gradient" y2="45.982"/><path d="m197.844 240h-4.611a6 6 0 0 0 0 12h4.611a6 6 0 0 0 0-12z" fill="url(#linear-gradient)"/><path d="m268.634 240h-49.734a6 6 0 0 0 0 12h49.733a6 6 0 0 0 0-12z" fill="url(#linear-gradient-2)"/><path d="m466 162h-11.051a25.957 25.957 0 0 0 -20 9.406 25.952 25.952 0 0 0 -20-9.406h-11.049a26.151 26.151 0 0 0 -25.9 26.242v41.758h-32v-3c0-6.617-4.883-12-11.5-12h-157c-6.617 0-12.5 5.383-12.5 12v3h-31v-41.758a26.15 26.15 0 0 0 -25.9-26.242h-11.049a25.956 25.956 0 0 0 -20 9.407 25.958 25.958 0 0 0 -20-9.407h-11.051a26.237 26.237 0 0 0 -26 26.242v135.516a26.237 26.237 0 0 0 26 26.242h11.051a25.958 25.958 0 0 0 20-9.407 25.956 25.956 0 0 0 20 9.407h11.049a26.15 26.15 0 0 0 25.9-26.242v-41.758h31v3c0 6.617 5.883 12 12.5 12h157c6.617 0 11.5-5.383 11.5-12v-3h32v41.758a26.151 26.151 0 0 0 25.9 26.242h11.05a25.952 25.952 0 0 0 20-9.406 25.957 25.957 0 0 0 20 9.406h11.05a26.237 26.237 0 0 0 26-26.242v-135.516a26.237 26.237 0 0 0 -26-26.242zm-344 162a14 14 0 0 1 -14 14h-11a14 14 0 0 1 -14-14v-76a6 6 0 0 0 -12 0v76a14 14 0 0 1 -14 14h-11a14 14 0 0 1 -14-14v-136a14 14 0 0 1 14-14h11a14 14 0 0 1 14 14v18a6 6 0 0 0 12 0v-18a14 14 0 0 1 14-14h11a14 14 0 0 1 14 14zm43-54h-31v-28h31zm12 15v-58h157.5l.008 58zm201-15h-32v-28h32zm51-81.758v135.529a14.263 14.263 0 0 1 -14.05 14.229h-11.05a14.139 14.139 0 0 1 -13.9-14.242v-135.516a14.139 14.139 0 0 1 13.9-14.242h11.05a14.263 14.263 0 0 1 14.05 14.229zm51 135.516a14.224 14.224 0 0 1 -14 14.242h-11.051a14.177 14.177 0 0 1 -13.949-14.229v-135.542a14.177 14.177 0 0 1 13.949-14.229h11.051a14.224 14.224 0 0 1 14 14.242z" fill="url(#linear-gradient-3)"/></svg>