<svg id="Layer_1" enable-background="new 0 0 512 512" height="512" viewBox="0 0 512 512" width="512" xmlns="http://www.w3.org/2000/svg" xmlns:xlink="http://www.w3.org/1999/xlink"><linearGradient id="lg1"><stop offset=".322" stop-color="#a163f5"/><stop offset=".466" stop-color="#b074ee"/><stop offset=".752" stop-color="#d8a1dd"/><stop offset=".898" stop-color="#efbad3"/></linearGradient><linearGradient id="SVGID_1_" gradientTransform="matrix(1 0 0 -1 0 514)" gradientUnits="userSpaceOnUse" x1="119" x2="119" xlink:href="#lg1" y1="30" y2="440.488"/><linearGradient id="SVGID_3_" gradientTransform="matrix(1 0 0 -1 0 514)" gradientUnits="userSpaceOnUse" x1="256.034" x2="256.034" xlink:href="#lg1" y1="30" y2="440.488"/><path d="m119 243.456c-3.314 0-6 2.686-6 6v4.61c0 3.314 2.686 6 6 6s6-2.686 6-6v-4.61c0-3.314-2.686-6-6-6z" fill="url(#SVGID_1_)"/><path d="m119 269.123c-3.314 0-6 2.686-6 6v39.733c0 3.314 2.686 6 6 6s6-2.686 6-6v-39.733c0-3.314-2.686-6-6-6z" fill="url(#SVGID_1_)"/><path d="m462.2 183-215.963-79.37c-1.342-.491-2.814-.491-4.156 0l-218.144 80.181c-2.328.867-3.872 3.09-3.87 5.575.001 2.505 1.545 4.75 3.883 5.648l67.05 26.045v150.958c-.053 2.446 1.413 4.669 3.681 5.585l13.654 5.388c87.291 34.415 184.392 34.415 271.683 0l13.946-5.388c2.348-.878 3.94-3.08 4.036-5.585v-150.958l58-22.652v98.573h-1.008c-5.843.058-10.779 4.352-11.645 10.131l-10.808 68.536c-.274 1.794.22 3.621 1.361 5.033 1.119 1.387 2.781 2.225 4.562 2.3h47.538c1.775-.059 3.438-.881 4.562-2.256 1.142-1.398 1.638-3.215 1.365-5l-10.808-68.614c-.866-5.779-5.802-10.072-11.645-10.13h-1.474v-105.4c.008-.801-.074-3.088-1.65-5.337-1.465-2.092-3.389-2.964-4.15-3.263zm-76.2 146.351-10.094 3.893c-67.607 26.67-141.732 32.124-212.515 15.637-3.243-.734-6.467 1.301-7.201 4.544-.724 3.2 1.247 6.39 4.433 7.175 27.418 6.389 55.477 9.619 83.63 9.625 46.564-.019 92.712-8.774 136.047-25.812l5.7-2.17v25.7l-10.148 3.893c-84.486 33.303-178.463 33.303-262.949 0l-9.9-3.893v-25.7l5.452 2.17c3.151 1.238 6.289 2.428 9.462 3.574 3.132 1.133 6.59-.487 7.723-3.619.237-.656.359-1.348.36-2.045v-.08c.002-2.539-1.59-4.807-3.979-5.667-2.974-1.07-6.12-2.175-9.064-3.332l-9.957-3.893v-103.601l139.087 54.179c.672.27 1.389.409 2.113.409.811.001 1.616-.138 2.381-.409l139.419-54.179zm-141.863-61.451-201.182-78.3 201.182-73.948 183.219 67.348h-183.219c-3.314 0-6 2.686-6 6s2.686 6 6 6h187.314zm201.35 103.1 9.685-62h14.122l9.685 62z" fill="url(#SVGID_3_)"/></svg>