<svg id="Layer_1" height="512" viewBox="0 0 512 512" width="512" xmlns="http://www.w3.org/2000/svg" xmlns:xlink="http://www.w3.org/1999/xlink" data-name="Layer 1"><linearGradient id="linear-gradient" gradientUnits="userSpaceOnUse" x1="255.5" x2="255.5" y1="470" y2="83"><stop offset=".322" stop-color="#a163f5"/><stop offset=".466" stop-color="#b074ee"/><stop offset=".752" stop-color="#d8a1dd"/><stop offset=".898" stop-color="#efbad3"/></linearGradient><linearGradient id="linear-gradient-2" x1="144" x2="144" xlink:href="#linear-gradient" y1="470" y2="82.862"/><linearGradient id="linear-gradient-3" x1="368" x2="368" xlink:href="#linear-gradient" y1="470" y2="82.862"/><linearGradient id="linear-gradient-4" x1="87.262" x2="87.262" xlink:href="#linear-gradient" y1="470" y2="82.862"/><linearGradient id="linear-gradient-5" x1="138.562" x2="138.562" xlink:href="#linear-gradient" y1="470" y2="82.862"/><path d="m464.5 63h-32a6 6 0 0 0 0 12h32a13.176 13.176 0 0 1 13.5 13.5v260.162a13.912 13.912 0 0 1 -8 12.708v-37.37a36 36 0 0 0 -36-36h-132a36 36 0 0 0 -36 36v29h-20v-29a36 36 0 0 0 -36-36h-71a6 6 0 0 0 0 12h71a24 24 0 0 1 24 24v90a24 24 0 0 1 -24 24h-132a24 24 0 0 1 -24-24v-90a24 24 0 0 1 24-24h19a6 6 0 0 0 0-12h-19a36 36 0 0 0 -36 36v37.621a14.072 14.072 0 0 1 -9-12.959v-260.162c0-7.72 6.78-13.5 14.5-13.5h32a6 6 0 0 0 0-12h-32c-14.337 0-26.5 11.163-26.5 25.5v260.162a26.174 26.174 0 0 0 21 25.438v39.9a36 36 0 0 0 36 36h132a36 36 0 0 0 36-36v-29h20v29a36 36 0 0 0 36 36h132a36 36 0 0 0 36-36v-40.03a25.891 25.891 0 0 0 20-25.308v-260.162a25.182 25.182 0 0 0 -25.5-25.5zm-198.5 310h-20v-8h20zm192 41a24 24 0 0 1 -24 24h-132a24 24 0 0 1 -24-24v-90a24 24 0 0 1 24-24h132a24 24 0 0 1 24 24z" fill="url(#linear-gradient)"/><path d="m62 324v90a16 16 0 0 0 16 16h132a16 16 0 0 0 16-16v-90a16 16 0 0 0 -16-16h-132a16 16 0 0 0 -16 16zm152 0v90a4 4 0 0 1 -4 4h-132a4 4 0 0 1 -4-4v-90a4 4 0 0 1 4-4h132a4 4 0 0 1 4 4z" fill="url(#linear-gradient-2)"/><path d="m434 308h-132a16 16 0 0 0 -16 16v90a16 16 0 0 0 16 16h132a16 16 0 0 0 16-16v-90a16 16 0 0 0 -16-16zm4 106a4 4 0 0 1 -4 4h-132a4 4 0 0 1 -4-4v-90a4 4 0 0 1 4-4h132a4 4 0 0 1 4 4z" fill="url(#linear-gradient-3)"/><path d="m84.873 344h4.777a6 6 0 0 0 0-12h-4.777a6 6 0 1 0 0 12z" fill="url(#linear-gradient-4)"/><path d="m111.473 344h54.177a6 6 0 0 0 0-12h-54.177a6 6 0 0 0 0 12z" fill="url(#linear-gradient-5)"/></svg>