<svg id="Layer_1" height="512" viewBox="0 0 512 512" width="512" xmlns="http://www.w3.org/2000/svg" xmlns:xlink="http://www.w3.org/1999/xlink" data-name="Layer 1"><linearGradient id="linear-gradient" gradientUnits="userSpaceOnUse" x1="258.751" x2="258.751" y1="480" y2="45.982"><stop offset=".322" stop-color="#a163f5"/><stop offset=".466" stop-color="#b074ee"/><stop offset=".752" stop-color="#d8a1dd"/><stop offset=".898" stop-color="#efbad3"/></linearGradient><linearGradient id="linear-gradient-2" x1="256" x2="256" xlink:href="#linear-gradient" y1="480" y2="45.982"/><path d="m242.9 337.753a5.941 5.941 0 0 0 5.912.1l139.581-76.59a6 6 0 0 0 -.006-10.52l-139.587-76.593a5.935 5.935 0 0 0 -8.8 5.26v52.09l-104.57-57.35a6.523 6.523 0 0 0 -6.215.1 6.27 6.27 0 0 0 -3.215 5.16v153.18a6.247 6.247 0 0 0 3.193 5.163 6.444 6.444 0 0 0 6.174.1l104.633-57.353v52.09a5.961 5.961 0 0 0 2.9 5.163zm9.1-148.207 121.113 66.454-121.113 66.454zm-114 132.908v-132.908l102 55.644v21.619z" fill="url(#linear-gradient)"/><g fill="url(#linear-gradient-2)"><path d="m256 20a236 236 0 0 0 -166.877 402.877 236 236 0 1 0 333.754-333.754 234.452 234.452 0 0 0 -166.877-69.123zm158.392 394.392a224 224 0 0 1 -316.784-316.784 224 224 0 0 1 316.784 316.784z"/><path d="m258.771 50.018c-93.255-1.232-172.7 59.846-199.279 144.156a6.006 6.006 0 0 0 5.714 7.826h.008a5.976 5.976 0 0 0 5.7-4.173c24.791-78.691 98.472-135.903 185.259-135.827 106.486.093 193.557 87.016 193.827 193.5.27 107.2-86.862 194.5-194 194.5-106.972 0-194-87.028-194-194q0-8.809.781-17.424a6 6 0 1 0 -11.939-1.134q-.829 9.171-.842 18.558c0 113.589 92.411 206 206 206 113.773 0 206.3-92.711 206-206.552-.3-112.067-91.172-203.948-203.229-205.43z"/></g></svg>