<svg id="Layer_1" height="512" viewBox="0 0 512 512" width="512" xmlns="http://www.w3.org/2000/svg" xmlns:xlink="http://www.w3.org/1999/xlink" data-name="Layer 1"><linearGradient id="linear-gradient" gradientUnits="userSpaceOnUse" x1="236" x2="236" y1="470" y2="82.862"><stop offset=".322" stop-color="#a163f5"/><stop offset=".466" stop-color="#b074ee"/><stop offset=".752" stop-color="#d8a1dd"/><stop offset=".898" stop-color="#efbad3"/></linearGradient><linearGradient id="linear-gradient-3" x1="256" x2="256" xlink:href="#linear-gradient" y1="470" y2="82.862"/><path d="m236 283.891a6 6 0 0 0 6-6v-4.778a6 6 0 0 0 -12 0v4.778a6 6 0 0 0 6 6z" fill="url(#linear-gradient)"/><path d="m236 359.891a6 6 0 0 0 6-6v-54.178a6 6 0 1 0 -12 0v54.178a6 6 0 0 0 6 6z" fill="url(#linear-gradient)"/><path d="m445.463 40h-378.926c-6.617 0-11.537 5.383-11.537 12v42.4a11.676 11.676 0 0 0 3.04 8.311l146.96 153.363v203.926a12.138 12.138 0 0 0 12.145 12h77.71a12.138 12.138 0 0 0 12.145-12v-203.926l147.191-153.074h-.266a13.805 13.805 0 0 0 3.075-8.6v-42.4c0-6.617-4.92-12-11.537-12zm-150.463 420h-78v-49h78zm150-369h-288a6 6 0 0 0 0 12h280.384l-139.112 144.855a11.655 11.655 0 0 0 -3.272 8.219v142.926h-78v-142.926a11.663 11.663 0 0 0 -3.271-8.218l-139.113-144.856h40.384a6 6 0 0 0 0-12h-48v-39h378z" fill="url(#linear-gradient-3)"/></svg>