<svg id="Layer_1" height="512" viewBox="0 0 512 512" width="512" xmlns="http://www.w3.org/2000/svg" xmlns:xlink="http://www.w3.org/1999/xlink" data-name="Layer 1"><linearGradient id="linear-gradient" gradientUnits="userSpaceOnUse" x1="145" x2="145" y1="484" y2="75.569"><stop offset=".322" stop-color="#a163f5"/><stop offset=".466" stop-color="#b074ee"/><stop offset=".752" stop-color="#d8a1dd"/><stop offset=".898" stop-color="#efbad3"/></linearGradient><linearGradient id="linear-gradient-3" x1="210.001" x2="210.001" xlink:href="#linear-gradient" y1="484" y2="75.569"/><linearGradient id="linear-gradient-4" x1="255.868" x2="255.868" xlink:href="#linear-gradient" y1="484" y2="75.569"/><path d="m151 73.113a6 6 0 0 0 -12 0v4.778a6 6 0 1 0 12 0z" fill="url(#linear-gradient)"/><path d="m145 93.713a6 6 0 0 0 -6 6v54.178a6 6 0 0 0 12 0v-54.178a6 6 0 0 0 -6-6z" fill="url(#linear-gradient)"/><path d="m210 212.155c0-.013 0-.026 0-.039s0-.025 0-.038z" fill="url(#linear-gradient-3)"/><path d="m430.253 176.69 46.876-66.82a12.649 12.649 0 0 0 -.3-14.829 12.908 12.908 0 0 0 -10.229-5.041h-153.6v-29.614a12.344 12.344 0 0 0 -12.076-12.386h-174.924v-8.663a19.5 19.5 0 0 0 -39 0v389.509c-13 .861-24.214 12.154-25.075 25.154h-2.325a27.929 27.929 0 0 0 -27.6 27.732v4.268a6.225 6.225 0 0 0 6.257 6h136.035a5.759 5.759 0 0 0 5.708-6v-4.268c0-15.075-11.973-27.732-27.047-27.732h-2.328c-.839-13-11.625-23.723-24.625-25.072v-211.928h48a6 6 0 0 0 0-12h-48v-145h174.609c.216 0 .391.485.391.7v145.3h-85a6.132 6.132 0 0 0 -6 6.116 5.933 5.933 0 0 0 6 5.884h41v43.158a5.912 5.912 0 0 0 6.152 5.842h203.684a12.841 12.841 0 0 0 9.53-3.819 12.348 12.348 0 0 0 1.286-15.339zm-331.253-137.353a7.5 7.5 0 0 1 15 0v389.663h-15zm53.953 426.663c7.872 0 14.379 6.354 15.242 14h-123.841c.863-7.646 7.37-14 15.243-14zm-14.372-12h-64.612c.864-7 7.362-13 15.234-13h34.143c7.872 0 14.371 6 15.235 13zm130.419-236h24.569l-24.569 27.482zm198.685 36.866c-.114.212-.253.134-.355.134h-190.623l34.771-38.69-.011.035a5.866 5.866 0 0 0 1.533-3.962v-110.383h153.976c.108 0 .244.178.356.395a.494.494 0 0 1 -.027.505l-49.232 70.232a6.037 6.037 0 0 0 -.082 6.793l49.673 74.52a.357.357 0 0 1 .021.421z" fill="url(#linear-gradient-4)"/></svg>