<svg id="Layer_1" height="512" viewBox="0 0 512 512" width="512" xmlns="http://www.w3.org/2000/svg" xmlns:xlink="http://www.w3.org/1999/xlink" data-name="Layer 1"><linearGradient id="linear-gradient" gradientUnits="userSpaceOnUse" x1="258" x2="258" y1="470" y2="82.862"><stop offset=".322" stop-color="#a163f5"/><stop offset=".466" stop-color="#b074ee"/><stop offset=".752" stop-color="#d8a1dd"/><stop offset=".898" stop-color="#efbad3"/></linearGradient><linearGradient id="linear-gradient-2" x1="125.893" x2="125.893" xlink:href="#linear-gradient" y1="470" y2="82.862"/><linearGradient id="linear-gradient-3" x1="178.903" x2="178.903" xlink:href="#linear-gradient" y1="470" y2="82.862"/><linearGradient id="linear-gradient-4" x1="256" x2="256" xlink:href="#linear-gradient" y1="470" y2="82.862"/><path d="m298.083 124.379a6.14 6.14 0 0 0 -4.676-2.379h-75.107a6.127 6.127 0 0 0 -5.9 5.047l-31.3 169.058a6.065 6.065 0 0 0 1.724 5.437 6 6 0 0 0 5.454 1.57l31.188-6.8-2.294 107.279a6 6 0 0 0 11.291 2.956l105.829-198.047a6 6 0 0 0 -6.211-8.758l-45.77 7.091 16.957-77.266a6.307 6.307 0 0 0 -1.185-5.188zm-29.371 88.3a6.137 6.137 0 0 0 1.487 5.465 6.032 6.032 0 0 0 5.292 1.856l42.555-6.575-88.339 165.325 1.92-89.791a6 6 0 0 0 -6-6.124 5.892 5.892 0 0 0 -1.279.068l-29.8 6.436 28.746-155.339h62.653z" fill="url(#linear-gradient)"/><path d="m93.719 205.6a6 6 0 0 0 5.667-4.033 167.256 167.256 0 0 1 62.106-81.757 6 6 0 0 0 -6.849-9.854 179.34 179.34 0 0 0 -66.591 87.672 6.006 6.006 0 0 0 5.667 7.972z" fill="url(#linear-gradient-2)"/><path d="m179.842 95.339c-2.442 1.159-4.888 2.39-7.272 3.66a6 6 0 1 0 5.639 10.592c2.223-1.183 4.5-2.331 6.781-3.412a6 6 0 1 0 -5.148-10.84z" fill="url(#linear-gradient-3)"/><g fill="url(#linear-gradient-4)"><path d="m256 20a236 236 0 0 0 -166.877 402.877 236 236 0 1 0 333.754-333.754 234.452 234.452 0 0 0 -166.877-69.123zm158.392 394.392a224 224 0 0 1 -316.784-316.784 224 224 0 0 1 316.784 316.784z"/><path d="m258.771 50.018c-93.256-1.232-172.7 59.846-199.278 144.156a6 6 0 0 0 5.713 7.826h.008a5.977 5.977 0 0 0 5.7-4.173c24.792-78.691 98.472-135.903 185.259-135.827 106.486.093 193.557 87.016 193.827 193.5.27 107.2-86.862 194.5-194 194.5-106.972 0-194-87.028-194-194q0-8.809.782-17.424a6 6 0 1 0 -11.94-1.134q-.828 9.171-.842 18.558c0 113.589 92.411 206 206 206 113.773 0 206.3-92.711 206-206.552-.3-112.067-91.171-203.948-203.229-205.43z"/></g></svg>