<svg id="Layer_1" height="512" viewBox="0 0 512 512" width="512" xmlns="http://www.w3.org/2000/svg" xmlns:xlink="http://www.w3.org/1999/xlink" data-name="Layer 1"><linearGradient id="linear-gradient" gradientUnits="userSpaceOnUse" x1="217.731" x2="217.731" y1="480" y2="45.982"><stop offset=".322" stop-color="#a163f5"/><stop offset=".466" stop-color="#b074ee"/><stop offset=".752" stop-color="#d8a1dd"/><stop offset=".898" stop-color="#efbad3"/></linearGradient><linearGradient id="linear-gradient-2" x1="453.449" x2="453.449" xlink:href="#linear-gradient" y1="480" y2="45.982"/><linearGradient id="linear-gradient-3" x1="326.604" x2="326.604" xlink:href="#linear-gradient" y1="480" y2="45.982"/><linearGradient id="linear-gradient-4" x1="408.382" x2="408.382" xlink:href="#linear-gradient" y1="480" y2="45.982"/><linearGradient id="linear-gradient-5" x1="263.852" x2="263.852" xlink:href="#linear-gradient" y1="480" y2="45.982"/><linearGradient id="linear-gradient-6" x1="232.577" x2="232.577" xlink:href="#linear-gradient" y1="480" y2="45.982"/><linearGradient id="linear-gradient-7" x1="231.828" x2="231.828" xlink:href="#linear-gradient" y1="480" y2="45.982"/><path d="m178.005 310.379a22.352 22.352 0 0 0 6.59 15.909l1.115 1.116a22.526 22.526 0 0 0 31.82 0l33.346-33.346a22.524 22.524 0 0 0 0-31.819l-1.116-1.116a22.527 22.527 0 0 0 -31.82 0l-33.34 33.346a22.353 22.353 0 0 0 -6.595 15.91zm48.422-40.771a10.513 10.513 0 0 1 14.849 0l1.116 1.117a10.512 10.512 0 0 1 0 14.849l-12.431 12.426-15.961-15.962zm-33.346 33.345 12.43-12.43 15.966 15.966-12.431 12.431a10.512 10.512 0 0 1 -14.849 0l-1.116-1.117a10.5 10.5 0 0 1 0-14.85z" fill="url(#linear-gradient)"/><path d="m476.852 182.69-45.1-6.467a6 6 0 0 0 -1.7 11.879l45.1 6.467a6.118 6.118 0 0 0 .859.062 6 6 0 0 0 .845-11.941z" fill="url(#linear-gradient-2)"/><path d="m323.9 81.953a6 6 0 0 0 5.933 5.15 6.093 6.093 0 0 0 .858-.062 6 6 0 0 0 5.088-6.791l-6.467-45.1a6 6 0 0 0 -11.879 1.7z" fill="url(#linear-gradient-3)"/><path d="m392.472 125.528a5.982 5.982 0 0 0 4.242-1.757l31.82-31.819a6 6 0 1 0 -8.485-8.485l-31.82 31.818a6 6 0 0 0 4.243 10.243z" fill="url(#linear-gradient-4)"/><path d="m262.222 157.9a5.982 5.982 0 0 0 4.242-1.757l3.26-3.26a6 6 0 0 0 -8.485-8.485l-3.26 3.26a6 6 0 0 0 4.243 10.242z" fill="url(#linear-gradient-5)"/><path d="m222.065 200.54 29.51-29.51a6 6 0 1 0 -8.486-8.484l-29.509 29.51a6 6 0 1 0 8.485 8.484z" fill="url(#linear-gradient-6)"/><path d="m291.841 85.408a24.2 24.2 0 0 0 -37.641 4.358 22.707 22.707 0 0 0 -3.036 7.44 24.2 24.2 0 0 0 4.576 20.168l-60.412 60.411a26.967 26.967 0 0 0 -7.843 20.742l1.784 28.543a14.956 14.956 0 0 1 -4.352 11.508l-22.217 22.214a6 6 0 1 0 8.485 8.485l22.215-22.214a26.959 26.959 0 0 0 7.843-20.742l-1.784-28.542a14.965 14.965 0 0 1 4.352-11.509l60.289-60.283 121.913 121.918-60.283 60.283a14.935 14.935 0 0 1 -11.509 4.35l-28.542-1.783a26.994 26.994 0 0 0 -20.742 7.843l-82.83 82.829-71.534-71.534 30.917-30.918a6 6 0 0 0 0-8.485 6 6 0 0 0 -8.485 0l-95.105 95.11a26.955 26.955 0 0 0 0 38.122l50.382 50.383a26.987 26.987 0 0 0 38.122 0l147.017-147.022a14.945 14.945 0 0 1 11.51-4.352l28.541 1.784a26.961 26.961 0 0 0 20.743-7.843l60.421-60.421a24.154 24.154 0 0 0 31.955-1.93l.05-.051a24.186 24.186 0 0 0 -.048-34.115zm-173.926 380.211a14.975 14.975 0 0 1 -21.152 0l-50.382-50.382a14.956 14.956 0 0 1 0-21.152l25.732-25.732 71.534 71.534zm34.217-34.219-71.532-71.532 21.49-21.49 71.534 71.534zm265.976-185.567-.038.037a12.171 12.171 0 0 1 -17.155-.034l-134.75-134.75a12.156 12.156 0 0 1 17.19-17.186l134.753 134.741a12.172 12.172 0 0 1 0 17.192z" fill="url(#linear-gradient-7)"/></svg>