<svg id="Layer_1" height="512" viewBox="0 0 512 512" width="512" xmlns="http://www.w3.org/2000/svg" xmlns:xlink="http://www.w3.org/1999/xlink" data-name="Layer 1"><linearGradient id="linear-gradient" gradientUnits="userSpaceOnUse" x1="130" x2="130" y1="484" y2="75.569"><stop offset=".322" stop-color="#a163f5"/><stop offset=".466" stop-color="#b074ee"/><stop offset=".752" stop-color="#d8a1dd"/><stop offset=".898" stop-color="#efbad3"/></linearGradient><linearGradient id="linear-gradient-2" x1="453" x2="453" xlink:href="#linear-gradient" y1="484" y2="75.569"/><linearGradient id="linear-gradient-4" x1="256" x2="256" xlink:href="#linear-gradient" y1="484" y2="75.569"/><path d="m57 221v38a12 12 0 0 0 12 12h122a12 12 0 0 0 12-12v-38a12 12 0 0 0 -12-12h-122a12 12 0 0 0 -12 12zm133.541 38h-121.541v-38h121.533z" fill="url(#linear-gradient)"/><path d="m453 220a6 6 0 0 0 6-6v-4.778a6 6 0 1 0 -12 0v4.778a6 6 0 0 0 6 6z" fill="url(#linear-gradient-2)"/><path d="m453 319a6 6 0 0 0 6-6v-77.182a6 6 0 1 0 -12 0v77.182a6 6 0 0 0 6 6z" fill="url(#linear-gradient-2)"/><path d="m466 111h-219.248a13.927 13.927 0 0 1 -6.942-1.741l-64.382-36.8a26.072 26.072 0 0 0 -12.893-3.459h-116.535a26.179 26.179 0 0 0 -26 26.174v321.652a26.179 26.179 0 0 0 26 26.174h420a26.179 26.179 0 0 0 26-26.174v-279.626a26.2 26.2 0 0 0 -26-26.2zm14 60h-355a6 6 0 0 0 0 12h355v233.826a14.215 14.215 0 0 1 -14.174 14.174h-419.826a14 14 0 0 1 -14-14v-234h51a6 6 0 0 0 0-12h-51v-75.826a14.215 14.215 0 0 1 14.174-14.174h116.361a14.108 14.108 0 0 1 6.943 1.93l64.381 36.706a25.986 25.986 0 0 0 12.893 3.364h219.248a14 14 0 0 1 14 14z" fill="url(#linear-gradient-4)"/></svg>