<svg id="Layer_1" height="512" viewBox="0 0 512 512" width="512" xmlns="http://www.w3.org/2000/svg" xmlns:xlink="http://www.w3.org/1999/xlink" data-name="Layer 1"><linearGradient id="linear-gradient" gradientUnits="userSpaceOnUse" x1="379.388" x2="379.388" y1="484" y2="73.512"><stop offset=".322" stop-color="#a163f5"/><stop offset=".466" stop-color="#b074ee"/><stop offset=".752" stop-color="#d8a1dd"/><stop offset=".898" stop-color="#efbad3"/></linearGradient><linearGradient id="linear-gradient-2" x1="72" x2="72" xlink:href="#linear-gradient" y1="484" y2="73.512"/><linearGradient id="linear-gradient-4" x1="256" x2="256" xlink:href="#linear-gradient" y1="484" y2="73.512"/><path d="m348.452 278h61.871a23.5 23.5 0 1 0 0-47h-61.871a23.5 23.5 0 1 0 0 47zm0-35h61.871a11.5 11.5 0 1 1 0 23h-61.871a11.5 11.5 0 1 1 0-23z" fill="url(#linear-gradient)"/><path d="m72 220.218a6 6 0 0 0 -6 6v4.782a6 6 0 0 0 12 0v-4.778a6 6 0 0 0 -6-6.004z" fill="url(#linear-gradient-2)"/><path d="m72 246.818a6 6 0 0 0 -6 6v60.182a6 6 0 0 0 12 0v-60.182a6 6 0 0 0 -6-6z" fill="url(#linear-gradient-2)"/><path d="m466 120h-77.457c9.636-25.263 3.286-55-16.945-75.237-27.66-27.663-71.761-28.563-98.308-2.02-8.222 8.222-13.712 18.539-17.29 29.611-3.578-11.072-9.068-21.389-17.29-29.611-26.547-26.543-70.647-25.643-98.31 2.02-20.229 20.231-26.579 49.974-16.943 75.237h-77.457a25.954 25.954 0 0 0 -26 25.912v54.961a6.11 6.11 0 0 0 6 6.127h14v253.973a26.053 26.053 0 0 0 26 26.027h380a26.053 26.053 0 0 0 26-26.027v-253.973h14a6.11 6.11 0 0 0 6-6.127v-54.961a25.954 25.954 0 0 0 -26-25.912zm-184.225-68.771c21.868-21.868 58.355-20.962 81.337 2.02 18.032 18.032 22.888 45.023 12.376 66.751h-113.43c-.564-23.044 2.759-51.814 19.717-68.771zm-132.887 2.02c22.981-22.981 59.469-23.888 81.337-2.02 16.957 16.957 20.281 45.727 19.717 68.771h-113.43c-10.512-21.727-5.656-48.72 12.376-66.751zm139.112 421.751h-64v-183a6 6 0 0 0 -12 0v183h-146a14 14 0 0 1 -14-14v-254h160v43a6 6 0 0 0 12 0v-43h64zm172-14.027a14.039 14.039 0 0 1 -14 14.027h-146v-268h160zm20-265.973h-448v-49.088a13.94 13.94 0 0 1 14-13.912h420a13.94 13.94 0 0 1 14 13.912z" fill="url(#linear-gradient-4)"/></svg>