<svg id="Layer_1" height="512" viewBox="0 0 512 512" width="512" xmlns="http://www.w3.org/2000/svg" xmlns:xlink="http://www.w3.org/1999/xlink" data-name="Layer 1"><linearGradient id="linear-gradient" gradientUnits="userSpaceOnUse" x1="256" x2="256" y1="484" y2="75.569"><stop offset=".322" stop-color="#a163f5"/><stop offset=".466" stop-color="#b074ee"/><stop offset=".752" stop-color="#d8a1dd"/><stop offset=".898" stop-color="#efbad3"/></linearGradient><linearGradient id="linear-gradient-2" x1="125" x2="125" xlink:href="#linear-gradient" y1="484" y2="75.569"/><path d="m411.837 91.239a243.137 243.137 0 0 0 -311.674 0 29.223 29.223 0 0 0 -10.215 26.243 230.739 230.739 0 0 0 -49.948 242.318v29.29a62.993 62.993 0 0 0 57.518 62.7 31.037 31.037 0 0 0 30.6 25.476c17.182-.066 30.882-14.45 30.882-31.628v-74.638a6 6 0 0 0 -12 0v74.81c0 10.336-8.062 19.128-18.4 19.45a19.033 19.033 0 0 1 -19.6-19.08v-145.039c0-10.337 8.062-19.129 18.395-19.45a19.033 19.033 0 0 1 19.605 19.08v28.229a6 6 0 0 0 12 0v-27.669c0-17.178-13.694-31.57-30.871-31.649a31.058 31.058 0 0 0 -30.648 25.476 62.579 62.579 0 0 0 -35.7 15.115 198.014 198.014 0 0 1 -2.668-32.38 195.612 195.612 0 0 1 54.232-135.545 29.655 29.655 0 0 0 2.95.415q1.334.119 2.655.119a29.01 29.01 0 0 0 18.686-6.8 184.694 184.694 0 0 1 236.728 0 29.119 29.119 0 0 0 24.282 6.258 195.61 195.61 0 0 1 54.241 135.554 198.094 198.094 0 0 1 -2.67 32.4 62.644 62.644 0 0 0 -35.735-15.132 30.988 30.988 0 0 0 -61.482 5.609v145.409a31.008 31.008 0 0 0 61.519 5.613 62.962 62.962 0 0 0 57.481-62.705v-29.288a230.735 230.735 0 0 0 -49.948-242.314 29.222 29.222 0 0 0 -10.215-26.247zm-8.837 354.941a19 19 0 1 1 -38 0v-145.409a19 19 0 1 1 38 0zm-306-138.915v132.421a51.251 51.251 0 0 1 -45-50.6v-31.224a51.25 51.25 0 0 1 45-50.597zm-49.887-29.372a209.536 209.536 0 0 0 4.57 43.469 62.812 62.812 0 0 0 -7.234 13.226 218.793 218.793 0 0 1 50.21-204.612 29.53 29.53 0 0 0 7.016 7.3 207.46 207.46 0 0 0 -54.562 140.617zm359.201-153.193a17.192 17.192 0 0 1 -13.225 6.178 17.221 17.221 0 0 1 -11.028-4.006 196.7 196.7 0 0 0 -252.12 0 17.219 17.219 0 0 1 -22.082-26.426 231.137 231.137 0 0 1 296.284 0 17.24 17.24 0 0 1 2.171 24.254zm53.686 264.388a51.251 51.251 0 0 1 -45 50.6v-132.423a51.25 51.25 0 0 1 45 50.6zm15-111.2a218.211 218.211 0 0 1 -7.452 56.7 62.838 62.838 0 0 0 -7.234-13.22 208.594 208.594 0 0 0 -50-184.113 29.142 29.142 0 0 0 7.028-7.286 217.4 217.4 0 0 1 57.658 147.924z" fill="url(#linear-gradient)"/><g fill="url(#linear-gradient-2)"><path d="m131 302.113a6 6 0 0 0 -12 0v4.778a6 6 0 0 0 12 0z"/><path d="m125 322.713a6 6 0 0 0 -6 6v58.178a6 6 0 0 0 12 0v-58.178a6 6 0 0 0 -6-6z"/></g></svg>