<svg id="Layer_1" height="512" viewBox="0 0 512 512" width="512" xmlns="http://www.w3.org/2000/svg" xmlns:xlink="http://www.w3.org/1999/xlink" data-name="Layer 1"><linearGradient id="linear-gradient" gradientUnits="userSpaceOnUse" x1="122.637" x2="122.637" y1="480" y2="45.982"><stop offset=".322" stop-color="#a163f5"/><stop offset=".466" stop-color="#b074ee"/><stop offset=".752" stop-color="#d8a1dd"/><stop offset=".898" stop-color="#efbad3"/></linearGradient><linearGradient id="linear-gradient-2" x1="92.221" x2="92.221" xlink:href="#linear-gradient" y1="480" y2="45.982"/><linearGradient id="linear-gradient-3" x1="255.986" x2="255.986" xlink:href="#linear-gradient" y1="480" y2="45.982"/><path d="m119.689 126.914a5.976 5.976 0 0 0 3.638-1.231c1.753-1.34 3.581-2.6 5.431-3.753a6 6 0 1 0 -6.337-10.19c-2.175 1.352-4.321 2.834-6.378 4.406a6 6 0 0 0 3.646 10.768z" fill="url(#linear-gradient)"/><path d="m105.937 144.633a6 6 0 0 0 -10.052-6.555 114.144 114.144 0 0 0 -15.828 39.837c-5.006 25.707-2.543 53.683 7.122 80.9a6 6 0 1 0 11.308-4.015c-8.947-25.2-11.247-50.991-6.661-74.542a102.138 102.138 0 0 1 14.111-35.625z" fill="url(#linear-gradient-2)"/><path d="m358.067 54.008c-33.074 0-67.405 12.624-102.1 37.534-34.216-23.853-69.218-36.442-101.462-36.442-52.928 0-96.04 32.612-114.794 84.886a6 6 0 0 0 5.66 8.01h.007a5.994 5.994 0 0 0 5.642-3.98c7.209-20.153 18.363-37.316 32.88-50.35 19.353-17.377 43.768-26.566 70.605-26.566 30.828 0 64.716 12.689 98 36.7a6 6 0 0 0 7.083-.046c33.782-25.047 66.912-37.746 98.479-37.746 26.906 0 51.287 9.224 70.512 26.677 19.375 17.588 32.634 42.7 38.345 72.626 17.7 91.651-39.633 213.774-207.6 280l-.093.039a8.407 8.407 0 0 1 -6.5-.022c-77.806-31.328-137.984-76.982-174.031-132.028-26.958-41.172-39.5-86.21-36.2-128.78a6 6 0 1 0 -11.964-.99c-3.52 45.231 9.688 92.913 38.125 136.343 37.4 57.113 99.494 104.346 179.532 136.571a20.292 20.292 0 0 0 15.571.022c174.35-68.766 233.579-196.915 214.945-293.418-12.642-66.239-59.996-109.04-120.642-109.04z" fill="url(#linear-gradient-3)"/></svg>