<svg id="Layer_1" height="512" viewBox="0 0 512 512" width="512" xmlns="http://www.w3.org/2000/svg" xmlns:xlink="http://www.w3.org/1999/xlink" data-name="Layer 1"><linearGradient id="linear-gradient" gradientUnits="userSpaceOnUse" x1="256" x2="256" y1="484" y2="75.569"><stop offset=".322" stop-color="#a163f5"/><stop offset=".466" stop-color="#b074ee"/><stop offset=".752" stop-color="#d8a1dd"/><stop offset=".898" stop-color="#efbad3"/></linearGradient><linearGradient id="linear-gradient-4" x1="136" x2="136" xlink:href="#linear-gradient" y1="484" y2="75.569"/><g fill="url(#linear-gradient)"><path d="m166 380h180a14 14 0 0 0 14-14v-180a14 14 0 0 0 -14-14h-180a14 14 0 0 0 -14 14v180a14 14 0 0 0 14 14zm154-12h-128v-23.667a25.664 25.664 0 0 1 21.124-25.133 37.718 37.718 0 0 0 29.75-27.419 35.743 35.743 0 0 0 12.426 2.219h1.4a35.743 35.743 0 0 0 12.429-2.222 37.718 37.718 0 0 0 29.75 27.419 25.664 25.664 0 0 1 21.121 25.136zm-89-109.919v-21.162a23.919 23.919 0 0 1 23.919-23.919h1.162a23.919 23.919 0 0 1 23.919 23.919v21.162a23.919 23.919 0 0 1 -23.919 23.919h-1.162a23.919 23.919 0 0 1 -23.919-23.919zm-67-72.081a1.986 1.986 0 0 1 1.981-2h180.038a1.986 1.986 0 0 1 1.981 2v180.036a1.956 1.956 0 0 1 -1.981 1.964h-14.019v-23.667a37.66 37.66 0 0 0 -30.977-36.944 25.4 25.4 0 0 1 -20.659-22.1 35.943 35.943 0 0 0 12.636-27.213v-20.824a36.576 36.576 0 0 0 -36.3-36.252h-1.4a36.576 36.576 0 0 0 -36.3 36.252v20.824a36.011 36.011 0 0 0 12.708 27.214 25.575 25.575 0 0 1 -20.827 22.1 37.575 37.575 0 0 0 -30.881 36.943v23.667h-14.019a1.956 1.956 0 0 1 -1.981-1.964z"/><path d="m148.481 407a6 6 0 0 0 6 6h203.038a6 6 0 0 0 0-12h-203.038a6 6 0 0 0 -6 6z"/><path d="m154.481 445h203.038a6 6 0 0 0 0-12h-203.038a6 6 0 0 0 0 12z"/></g><path d="m136 116.891a6 6 0 0 0 6-6v-4.778a6 6 0 0 0 -12 0v4.778a6 6 0 0 0 6 6z" fill="url(#linear-gradient-4)"/><path d="m130 186.891a6 6 0 0 0 12 0v-54.178a6 6 0 1 0 -12 0z" fill="url(#linear-gradient-4)"/><path d="m380 73h-90v-42a14 14 0 0 0 -14-14h-40.25a13.75 13.75 0 0 0 -13.75 13.75v42.25h-90a26 26 0 0 0 -26 26v40a6 6 0 0 0 12 0v-40a14 14 0 0 1 14-14h90v21h-3.062c-12.307 0-22.742 9.655-23.03 21.957a22.555 22.555 0 0 0 22.723 23.043h74.431c12.307 0 22.742-9.655 23.03-21.957a22.555 22.555 0 0 0 -22.723-23.043h-3.369v-21h90a14 14 0 0 1 14 14v370a14 14 0 0 1 -14 14h-248a14 14 0 0 1 -14-14v-288a6 6 0 0 0 -12 0v288a26 26 0 0 0 26 26h248a26 26 0 0 0 26-26v-370a26 26 0 0 0 -26-26zm-146-42a2 2 0 0 1 2-2h41a2 2 0 0 1 2 2v86a2 2 0 0 1 -2 2h-41a2 2 0 0 1 -2-2zm56.211 87h3.158a10.5 10.5 0 1 1 0 21h-74.738a10.5 10.5 0 1 1 0-21h3.158a14.074 14.074 0 0 0 13.961 13h40.5a14.074 14.074 0 0 0 13.961-13z" fill="url(#linear-gradient)"/></svg>