<svg id="Layer_1" height="512" viewBox="0 0 512 512" width="512" xmlns="http://www.w3.org/2000/svg" xmlns:xlink="http://www.w3.org/1999/xlink" data-name="Layer 1"><linearGradient id="linear-gradient" gradientUnits="userSpaceOnUse" x1="201.651" x2="201.651" y1="470" y2="82.862"><stop offset=".322" stop-color="#a163f5"/><stop offset=".466" stop-color="#b074ee"/><stop offset=".752" stop-color="#d8a1dd"/><stop offset=".898" stop-color="#efbad3"/></linearGradient><linearGradient id="linear-gradient-2" x1="256.5" x2="256.5" xlink:href="#linear-gradient" y1="470" y2="82.862"/><linearGradient id="linear-gradient-3" x1="82" x2="82" xlink:href="#linear-gradient" y1="470" y2="82.862"/><path d="m234.651 194.38a33 33 0 1 0 -33 33 33.038 33.038 0 0 0 33-33zm-54 0a21 21 0 1 1 21 21 21.024 21.024 0 0 1 -21-21z" fill="url(#linear-gradient)"/><path d="m446 88h-379a38 38 0 0 0 -38 38v260a38 38 0 0 0 38 38h379a38 38 0 0 0 38-38v-260a38 38 0 0 0 -38-38zm26 298a26 26 0 0 1 -26 26h-379a26 26 0 0 1 -26-26v-260a26 26 0 0 1 26-26h379a26 26 0 0 1 26 26z" fill="url(#linear-gradient-2)"/><path d="m88 144.218a6 6 0 0 0 -12 0v4.782a6 6 0 0 0 12 0z" fill="url(#linear-gradient-3)"/><path d="m82 164.818a6 6 0 0 0 -6 6v61.182a6 6 0 0 0 12 0v-61.182a6 6 0 0 0 -6-6z" fill="url(#linear-gradient-3)"/><path d="m446 112h-308a6 6 0 0 0 0 12h308a2 2 0 0 1 2 2v161.185l-98.06-108.223a6 6 0 0 0 -8.619-.282l-142.955 138.4-51.112-44.02a6 6 0 0 0 -7.957.112l-74.297 67.698v-214.87a2 2 0 0 1 2-2h29a6 6 0 0 0 0-12h-29a14 14 0 0 0 -14 14v260a14 14 0 0 0 14 14h379a14 14 0 0 0 14-14v-260a14 14 0 0 0 -14-14zm-379 276a2 2 0 0 1 -2-2v-28.9l78.45-71.483 118.878 102.383zm381-2a2 2 0 0 1 -2 2h-165.282l-73.218-63.059 137.712-133.327 102.788 113.442z" fill="url(#linear-gradient-2)"/></svg>