<svg id="Layer_1" height="512" viewBox="0 0 512 512" width="512" xmlns="http://www.w3.org/2000/svg" xmlns:xlink="http://www.w3.org/1999/xlink" data-name="Layer 1"><linearGradient id="linear-gradient" gradientUnits="userSpaceOnUse" x1="222" x2="222" y1="484" y2="75.569"><stop offset=".322" stop-color="#a163f5"/><stop offset=".466" stop-color="#b074ee"/><stop offset=".752" stop-color="#d8a1dd"/><stop offset=".898" stop-color="#efbad3"/></linearGradient><linearGradient id="linear-gradient-2" x1="214.088" x2="214.088" xlink:href="#linear-gradient" y1="484" y2="75.569"/><linearGradient id="linear-gradient-3" x1="256" x2="256" xlink:href="#linear-gradient" y1="484" y2="75.569"/><linearGradient id="linear-gradient-6" x1="53" x2="53" xlink:href="#linear-gradient" y1="484" y2="75.569"/><path d="m166 152h112a12 12 0 0 0 12-12v-26a12 12 0 0 0 -12-12h-112a12 12 0 0 0 -12 12v26a12 12 0 0 0 12 12zm0-38h111.451l.008 26h-111.459z" fill="url(#linear-gradient)"/><path d="m159.826 192h108.525a6 6 0 0 0 0-12h-108.525a6 6 0 0 0 0 12z" fill="url(#linear-gradient-2)"/><g fill="url(#linear-gradient-3)"><path d="m153.826 227a6 6 0 0 0 6 6h192.348a6 6 0 0 0 0-12h-192.348a6 6 0 0 0 -6 6z"/><path d="m352.174 263h-192.348a6 6 0 0 0 0 12h192.348a6 6 0 0 0 0-12z"/><path d="m297.314 410a27 27 0 0 0 0-54h-82.628a27 27 0 0 0 0 54zm-97.606-27a15.014 15.014 0 0 1 14.978-15h82.628a15 15 0 0 1 0 30h-82.628a15.014 15.014 0 0 1 -14.978-15z"/></g><path d="m59 301.218a6 6 0 0 0 -12 0v4.782a6 6 0 0 0 12 0z" fill="url(#linear-gradient-6)"/><path d="m53 321.818a6 6 0 0 0 -6 6v73.182a6 6 0 0 0 12 0v-73.182a6 6 0 0 0 -6-6z" fill="url(#linear-gradient-6)"/><path d="m491.791 269.708-66.88-93.093a26.34 26.34 0 0 0 -15.911-10.273v-42.907a5.786 5.786 0 0 0 -1.417-4.15l-65.314-68.438a6 6 0 0 0 -4.333-1.847h-210.836c-13.566 0-25.1 11.03-25.1 24.592v92.969a26.352 26.352 0 0 0 -14.911 10.054l-66.972 93.093h.012a5.958 5.958 0 0 0 -1.129 3.5v163.792a26 26 0 0 0 26 26h65a6 6 0 0 0 0-12h-64.923a14.119 14.119 0 0 1 -14.077-14.077v-157.923h78.9a14.161 14.161 0 0 1 12.044 6.97l10.477 17.983a26.4 26.4 0 0 0 22.364 13.047h202.427a26.348 26.348 0 0 0 22.368-12.994l10.478-17.912a14.278 14.278 0 0 1 12.042-7.094h78.9v158a14 14 0 0 1 -14 14h-315a6 6 0 0 0 0 12h314.923a26.154 26.154 0 0 0 26.077-26.077v-163.708a6 6 0 0 0 -1.175-3.5zm-389.791-2.708h-65.206l60.031-83.479a13.777 13.777 0 0 1 5.175-4.264zm242-197.068 45.443 47.068h-40.349c-2.845 0-5.094-1.879-5.094-4.723zm53 197.59a26.353 26.353 0 0 0 -17.267 12.331l-10.477 17.982a14.351 14.351 0 0 1 -12.044 7.165h-202.427a14.3 14.3 0 0 1 -12.044-7.111l-10.477-17.912a26.555 26.555 0 0 0 -18.264-12.619v-193.766c0-6.945 6.15-12.592 13.1-12.592h204.9v51.277a16.756 16.756 0 0 0 17.094 16.723h47.906zm12-.522v-88.171a13.952 13.952 0 0 1 6.175 4.693l60.031 83.478z" fill="url(#linear-gradient-3)"/></svg>