<svg id="Layer_1" height="512" viewBox="0 0 512 512" width="512" xmlns="http://www.w3.org/2000/svg" xmlns:xlink="http://www.w3.org/1999/xlink" data-name="Layer 1"><linearGradient id="linear-gradient" gradientUnits="userSpaceOnUse" x1="256" x2="256" y1="480" y2="45.982"><stop offset=".322" stop-color="#a163f5"/><stop offset=".466" stop-color="#b074ee"/><stop offset=".752" stop-color="#d8a1dd"/><stop offset=".898" stop-color="#efbad3"/></linearGradient><linearGradient id="linear-gradient-2" x1="102" x2="102" xlink:href="#linear-gradient" y1="480" y2="45.982"/><linearGradient id="linear-gradient-4" x1="256" x2="256" xlink:href="#linear-gradient" y1="480" y2="45.982"/><path d="m275.531 347h-39.062a14 14 0 1 0 0 28h39.062a14 14 0 1 0 0-28zm0 16h-39.062a2 2 0 1 1 0-4h39.062a2 2 0 1 1 0 4z" fill="url(#linear-gradient)"/><path d="m108 145.218a6 6 0 0 0 -12 0v4.782a6 6 0 0 0 12 0z" fill="url(#linear-gradient-2)"/><path d="m102 165.818a6 6 0 0 0 -6 6v61.182a6 6 0 0 0 12 0v-61.182a6 6 0 0 0 -6-6z" fill="url(#linear-gradient-2)"/><path d="m480 364.517v-262.597a26.119 26.119 0 0 0 -26.184-25.92h-395.632a26.119 26.119 0 0 0 -26.184 25.92v262.6a36.506 36.506 0 0 0 10.355 71.48h427.29a36.507 36.507 0 0 0 10.355-71.483zm-436-262.597a14.106 14.106 0 0 1 14.184-13.92h395.632a14.106 14.106 0 0 1 14.184 13.92v261.08h-126.338a26.246 26.246 0 0 0 -16.054 5.684l-15.878 12.395a13.991 13.991 0 0 1 -8.644 2.921h-91.174a13.941 13.941 0 0 1 -8.646-2.852l-15.873-12.532a26.185 26.185 0 0 0 -16.056-5.616h-125.337zm425.645 322.08h-427.29a24.5 24.5 0 0 1 0-49h126.982a14.206 14.206 0 0 1 8.646 3.123l15.873 12.4a26.054 26.054 0 0 0 16.056 5.477h91.174a25.976 25.976 0 0 0 16.054-5.414l15.878-12.53a14.125 14.125 0 0 1 8.644-3.056h127.983a24.5 24.5 0 0 1 0 49z" fill="url(#linear-gradient-4)"/><path d="m440 335v-213a6 6 0 0 0 -6-6h-271a6 6 0 0 0 0 12h265v201h-344v-201h37a6 6 0 0 0 0-12h-43a6 6 0 0 0 -6 6v213a6 6 0 0 0 6 6h356a6 6 0 0 0 6-6z" fill="url(#linear-gradient)"/></svg>