<svg id="Layer_1" height="512" viewBox="0 0 512 512" width="512" xmlns="http://www.w3.org/2000/svg" xmlns:xlink="http://www.w3.org/1999/xlink" data-name="Layer 1"><linearGradient id="linear-gradient" gradientUnits="userSpaceOnUse" x1="255.965" x2="255.965" y1="480" y2="45.982"><stop offset=".322" stop-color="#a163f5"/><stop offset=".466" stop-color="#b074ee"/><stop offset=".752" stop-color="#d8a1dd"/><stop offset=".898" stop-color="#efbad3"/></linearGradient><linearGradient id="linear-gradient-2" x1="256" x2="256" xlink:href="#linear-gradient" y1="480" y2="45.982"/><linearGradient id="linear-gradient-3" x1="109" x2="109" xlink:href="#linear-gradient" y1="480" y2="45.982"/><path d="m270 379.394v-22.13a27.963 27.963 0 0 0 14.531-24.658 28.4 28.4 0 0 0 -28.234-28.5 28.623 28.623 0 0 0 -15.297 52.986v22.3a14.5 14.5 0 0 0 29 0zm-12-25.96v25.96a2.5 2.5 0 0 1 -5 0v-25.96a6 6 0 0 0 -3.677-5.533 16.438 16.438 0 0 1 -9.925-15.3c0-8.944 7.739-16.5 16.9-16.5a16.388 16.388 0 0 1 16.234 16.5 15.934 15.934 0 0 1 -10.63 15.206 6 6 0 0 0 -3.902 5.627z" fill="url(#linear-gradient)"/><path d="m346 349a90 90 0 1 0 -90 90 90.1 90.1 0 0 0 90-90zm-168 0a78 78 0 1 1 78 78 78.087 78.087 0 0 1 -78-78z" fill="url(#linear-gradient-2)"/><path d="m109 259.066a6 6 0 0 0 6-6v-4.61a6 6 0 0 0 -12 0v4.61a6 6 0 0 0 6 6z" fill="url(#linear-gradient-3)"/><path d="m103 323.855a6 6 0 0 0 12 0v-49.732a6 6 0 0 0 -12 0z" fill="url(#linear-gradient-3)"/><path d="m409 211h-17v-70.751c0-63.542-51.348-115.249-114.89-115.249h-42.231c-63.54 0-114.879 51.709-114.879 115.249v70.751h-17a26 26 0 0 0 -26 26v25a6 6 0 0 0 12 0v-25a14 14 0 0 1 14-14h306a14 14 0 0 1 14 14v224a14 14 0 0 1 -14 14h-306a14 14 0 0 1 -14-14v-157a6 6 0 0 0 -12 0v157a26 26 0 0 0 26 26h306a26 26 0 0 0 26-26v-224a26 26 0 0 0 -26-26zm-171-174h36v38.67c-2-.07-2.812.33-4.12.33h-25.219c-2.172 0-4.661-.323-6.661-.133zm-66 174h-40v-70.751c0-54.007 41-98.455 94-102.87v40.573a72.98 72.98 0 0 0 -54 70.485zm159 0h-147v-62.557a60.445 60.445 0 0 1 60.668-60.443h25.2c33.539 0 61.132 26.909 61.132 60.437zm49 0h-37v-62.57c0-34.676-25-63.774-57-71.084v-39.966c53 4.417 94 48.864 94 102.869z" fill="url(#linear-gradient-2)"/></svg>