<svg id="Layer_1" height="512" viewBox="0 0 512 512" width="512" xmlns="http://www.w3.org/2000/svg" xmlns:xlink="http://www.w3.org/1999/xlink" data-name="Layer 1"><linearGradient id="linear-gradient" gradientUnits="userSpaceOnUse" x1="106" x2="106" y1="480" y2="45.982"><stop offset=".322" stop-color="#a163f5"/><stop offset=".466" stop-color="#b074ee"/><stop offset=".752" stop-color="#d8a1dd"/><stop offset=".898" stop-color="#efbad3"/></linearGradient><linearGradient id="linear-gradient-3" x1="256" x2="256" xlink:href="#linear-gradient" y1="480" y2="45.982"/><path d="m106 170.525a6 6 0 0 0 6-6v-4.816a6 6 0 0 0 -12 0v4.816a6 6 0 0 0 6 6z" fill="url(#linear-gradient)"/><path d="m100 254.255a6 6 0 0 0 12 0v-67.728a6 6 0 0 0 -12 0z" fill="url(#linear-gradient)"/><path d="m425 40h-87a6 6 0 0 0 -6 6v249.563c0 41.842-33.412 76.561-75.252 76.966a76.085 76.085 0 0 1 -76.748-76v-250.529a6 6 0 0 0 -6-6h-87.468a5.532 5.532 0 0 0 -5.532 5.532v108.468a6 6 0 0 0 12 0v-16h75v157.41c0 48.449 38.687 88.649 87.133 89.118a88.1 88.1 0 0 0 88.867-88v-158.528h75v157.421c0 90.371-72.864 164.706-163.235 164.579-90.028-.127-162.765-73.409-162.765-163.468v-100.532a6 6 0 0 0 -12 0v99.305c0 97 78.2 176.8 175.2 176.7 96.661-.109 174.8-78.782 174.8-175.468v-250.537a6 6 0 0 0 -6-6zm-257 86h-75v-23h75zm0-35h-75v-39h75zm251 35h-75v-23h75zm0-35h-75v-39h75z" fill="url(#linear-gradient-3)"/></svg>