<svg id="Layer_1" height="512" viewBox="0 0 512 512" width="512" xmlns="http://www.w3.org/2000/svg" xmlns:xlink="http://www.w3.org/1999/xlink" data-name="Layer 1"><linearGradient id="linear-gradient" gradientUnits="userSpaceOnUse" x1="147.5" x2="147.5" y1="480" y2="45.982"><stop offset=".322" stop-color="#a163f5"/><stop offset=".466" stop-color="#b074ee"/><stop offset=".752" stop-color="#d8a1dd"/><stop offset=".898" stop-color="#efbad3"/></linearGradient><linearGradient id="linear-gradient-2" x1="201.5" x2="201.5" xlink:href="#linear-gradient" y1="480" y2="45.982"/><linearGradient id="linear-gradient-3" x1="256" x2="256" xlink:href="#linear-gradient" y1="480" y2="45.982"/><linearGradient id="linear-gradient-4" x1="310" x2="310" xlink:href="#linear-gradient" y1="480" y2="45.982"/><linearGradient id="linear-gradient-5" x1="364.5" x2="364.5" xlink:href="#linear-gradient" y1="480" y2="45.982"/><linearGradient id="linear-gradient-6" x1="254.5" x2="254.5" xlink:href="#linear-gradient" y1="480" y2="45.982"/><linearGradient id="linear-gradient-7" x1="107" x2="107" xlink:href="#linear-gradient" y1="480" y2="45.982"/><path d="m170 172.5v-52.46a22.5 22.5 0 0 0 -45 0v52.46a22.5 22.5 0 0 0 45 0zm-33 0v-52.46a10.5 10.5 0 0 1 21 0v52.46a10.5 10.5 0 0 1 -21 0z" fill="url(#linear-gradient)"/><path d="m224 172.5v-52.46a22.5 22.5 0 0 0 -45 0v52.46a22.5 22.5 0 0 0 45 0zm-33 0v-52.46a10.5 10.5 0 0 1 21 0v52.46a10.5 10.5 0 0 1 -21 0z" fill="url(#linear-gradient-2)"/><path d="m278 172.5v-52.46a22 22 0 1 0 -44 0v52.46a22 22 0 1 0 44 0zm-32 0v-52.46a10.007 10.007 0 1 1 20 0v52.46a10.007 10.007 0 1 1 -20 0z" fill="url(#linear-gradient-3)"/><path d="m332 172.5v-52.46a22 22 0 1 0 -44 0v52.46a22 22 0 1 0 44 0zm-32 0v-52.46a10.007 10.007 0 1 1 20 0v52.46a10.007 10.007 0 1 1 -20 0z" fill="url(#linear-gradient-4)"/><path d="m387 172.5v-52.46a22.5 22.5 0 0 0 -45 0v52.46a22.5 22.5 0 0 0 45 0zm-33 0v-52.46a10.5 10.5 0 0 1 21 0v52.46a10.5 10.5 0 0 1 -21 0z" fill="url(#linear-gradient-5)"/><path d="m125 406a26 26 0 0 0 26 26h207a26 26 0 0 0 26-26v-103a26 26 0 0 0 -26-26h-207a26 26 0 0 0 -26 26zm12-103a14 14 0 0 1 14-14h207a14 14 0 0 1 14 14v103a14 14 0 0 1 -14 14h-207a14 14 0 0 1 -14-14z" fill="url(#linear-gradient-6)"/><path d="m107 65.525a6 6 0 0 0 6-6v-4.816a6 6 0 0 0 -12 0v4.816a6 6 0 0 0 6 6z" fill="url(#linear-gradient-7)"/><path d="m101 149.255a6 6 0 0 0 12 0v-67.728a6 6 0 1 0 -12 0z" fill="url(#linear-gradient-7)"/><path d="m424.716 61.862-42.286-35.717a26.127 26.127 0 0 0 -16.82-6.145h-261.47a26.217 26.217 0 0 0 -26.14 26.14v47.86a6 6 0 0 0 12 0v-47.86a14.182 14.182 0 0 1 14.14-14.14h261.47a14.014 14.014 0 0 1 9.038 3.309l42.321 35.717a14.041 14.041 0 0 1 5.031 10.692v384.282a14.041 14.041 0 0 1 -14 14h-304a14.041 14.041 0 0 1 -14-14v-330a6 6 0 0 0 -12 0v330a26 26 0 0 0 26 26h303.86a26.217 26.217 0 0 0 26.14-26.14v-384.142a26.017 26.017 0 0 0 -9.284-19.856z" fill="url(#linear-gradient-3)"/></svg>