<svg id="Layer_1" height="512" viewBox="0 0 512 512" width="512" xmlns="http://www.w3.org/2000/svg" xmlns:xlink="http://www.w3.org/1999/xlink" data-name="Layer 1"><linearGradient id="linear-gradient" gradientUnits="userSpaceOnUse" x1="256" x2="256" y1="484" y2="75.569"><stop offset=".322" stop-color="#a163f5"/><stop offset=".466" stop-color="#b074ee"/><stop offset=".752" stop-color="#d8a1dd"/><stop offset=".898" stop-color="#efbad3"/></linearGradient><linearGradient id="linear-gradient-2" x1="195" x2="195" xlink:href="#linear-gradient" y1="484" y2="75.569"/><path d="m389 213.153a6 6 0 0 0 -6 6v56.133a127.188 127.188 0 0 1 -126.014 127.073l-3.916-.024a127.188 127.188 0 0 1 -124.07-127.049v-56.133a6 6 0 0 0 -12 0v56.133c0 74.345 58.547 135.252 132 138.911v64.803h-35a6 6 0 0 0 0 12h84a6 6 0 0 0 0-12h-37v-64.727c74.385-2.643 134-63.969 134-138.987v-56.133a6 6 0 0 0 -6-6z" fill="url(#linear-gradient)"/><path d="m195 226.125a6 6 0 0 0 6-6v-4.778a6 6 0 1 0 -12 0v4.778a6 6 0 0 0 6 6z" fill="url(#linear-gradient-2)"/><path d="m201 290.125v-48.177a6 6 0 1 0 -12 0v48.177a6 6 0 0 0 12 0z" fill="url(#linear-gradient-2)"/><path d="m253.5 370h5a91.5 91.5 0 0 0 91.5-91.5v-166a91.5 91.5 0 0 0 -91.5-91.5h-5a91.5 91.5 0 0 0 -91.5 91.5v26.5a6 6 0 0 0 12 0v-26.734c0-29.93 16-56.04 41-69.6v40.346a6.167 6.167 0 0 0 5.814 6.249 6 6 0 0 0 6.186-6v-45.982a76.815 76.815 0 0 1 23-4.43v59.163a6.167 6.167 0 0 0 5.814 6.249 6 6 0 0 0 6.186-6v-59.412a76.815 76.815 0 0 1 23 4.43v45.733a6.167 6.167 0 0 0 5.814 6.249 6 6 0 0 0 6.186-6v-40.6c25 13.56 41 39.67 41 69.6v76.739h-164v-8a6 6 0 0 0 -12 0v97.5a91.5 91.5 0 0 0 91.5 91.5zm-79.5-169h164v77.458a79.447 79.447 0 0 1 -79.291 79.542h-5.418a79.447 79.447 0 0 1 -79.291-79.542z" fill="url(#linear-gradient)"/></svg>