<?xml version="1.0" encoding="UTF-8"?>
<svg xmlns="http://www.w3.org/2000/svg" xmlns:xlink="http://www.w3.org/1999/xlink" id="Layer_1" data-name="Layer 1" viewBox="0 0 512 512" width="512" height="512"><defs><linearGradient id="linear-gradient" x1="256" y1="480" x2="256" y2="45.982" gradientUnits="userSpaceOnUse"><stop offset="0.322" stop-color="#a163f5"/><stop offset="0.466" stop-color="#b074ee"/><stop offset="0.752" stop-color="#d8a1dd"/><stop offset="0.898" stop-color="#efbad3"/></linearGradient><linearGradient id="linear-gradient-2" x1="96" y1="480" x2="96" y2="45.982" xlink:href="#linear-gradient"/><linearGradient id="linear-gradient-3" x1="416" y1="480" x2="416" y2="45.982" xlink:href="#linear-gradient"/><linearGradient id="linear-gradient-5" x1="41" y1="480" x2="41" y2="45.982" xlink:href="#linear-gradient"/></defs><path d="M360.5,256A104.5,104.5,0,1,0,256,360.5,104.619,104.619,0,0,0,360.5,256Zm-197,0A92.5,92.5,0,1,1,256,348.5,92.6,92.6,0,0,1,163.5,256Z" style="fill:url(#linear-gradient)"/><path d="M96,228.562A27.438,27.438,0,1,0,123.437,256,27.469,27.469,0,0,0,96,228.562Zm0,42.876A15.438,15.438,0,1,1,111.437,256,15.455,15.455,0,0,1,96,271.438Z" style="fill:url(#linear-gradient-2)"/><path d="M443.437,256A27.437,27.437,0,1,0,416,283.438,27.469,27.469,0,0,0,443.437,256Zm-42.874,0A15.437,15.437,0,1,1,416,271.438,15.455,15.455,0,0,1,400.563,256Z" style="fill:url(#linear-gradient-3)"/><path d="M262,314.962v-6.956a29,29,0,0,0-6-57.372,17,17,0,1,1,17-17,6,6,0,1,0,12,0,29.046,29.046,0,0,0-23-28.372v-8.224a6,6,0,0,0-12,0v8.224a29,29,0,0,0,6,57.372,16.989,16.989,0,0,1,.726,33.963,5.514,5.514,0,0,0-1.452,0A17.006,17.006,0,0,1,239,279.634a6,6,0,0,0-12,0,29.048,29.048,0,0,0,23,28.372v6.956a6,6,0,0,0,12,0Z" style="fill:url(#linear-gradient)"/><path d="M47,202.218a6,6,0,0,0-12,0V207a6,6,0,0,0,12,0Z" style="fill:url(#linear-gradient-5)"/><path d="M41,222.818a6,6,0,0,0-6,6V290a6,6,0,0,0,12,0V228.818A6,6,0,0,0,41,222.818Z" style="fill:url(#linear-gradient-5)"/><path d="M475,112H159a6,6,0,0,0,0,12H424v17.982A46.018,46.018,0,0,0,470.018,188H489V324H470.245A46.381,46.381,0,0,0,424,370.245V388H87V370a46,46,0,0,0-46-46H23V188H41.227A45.773,45.773,0,0,0,87,142.227V124h30a6,6,0,0,0,0-12H37a26,26,0,0,0-26,26V374a26,26,0,0,0,26,26H475a26,26,0,0,0,26-26V138A26,26,0,0,0,475,112ZM23,138a14.227,14.227,0,0,1,14.245-14H75v17.982A33.86,33.86,0,0,1,41.227,176H23ZM75,388H37.245A14.227,14.227,0,0,1,23,374V336H41.227A33.845,33.845,0,0,1,75,370Zm414-14a14.227,14.227,0,0,1-14.245,14H436V370a34.248,34.248,0,0,1,34.245-34H489Zm0-198H470.245A34.264,34.264,0,0,1,436,141.982V124h38.755A14.227,14.227,0,0,1,489,138Z" style="fill:url(#linear-gradient)"/></svg>
