<svg id="Layer_1" height="512" viewBox="0 0 512 512" width="512" xmlns="http://www.w3.org/2000/svg" xmlns:xlink="http://www.w3.org/1999/xlink" data-name="Layer 1"><linearGradient id="linear-gradient" gradientUnits="userSpaceOnUse" x1="256" x2="256" y1="470" y2="82.862"><stop offset=".322" stop-color="#a163f5"/><stop offset=".466" stop-color="#b074ee"/><stop offset=".752" stop-color="#d8a1dd"/><stop offset=".898" stop-color="#efbad3"/></linearGradient><linearGradient id="linear-gradient-4" x1="163" x2="163" xlink:href="#linear-gradient" y1="470" y2="82.862"/><g fill="url(#linear-gradient)"><path d="m218.734 124.052a6 6 0 0 0 8.474 8.5 40.844 40.844 0 0 1 57.584 0 6 6 0 0 0 8.474-8.5 52.869 52.869 0 0 0 -74.532 0z"/><path d="m322.143 101.187a6 6 0 0 0 4.238-10.247 99.771 99.771 0 0 0 -140.762 0 6 6 0 1 0 8.477 8.493 87.756 87.756 0 0 1 123.808 0 5.978 5.978 0 0 0 4.239 1.754z"/><path d="m160.994 66.327c52.387-52.338 137.625-52.338 190.012 0a6 6 0 1 0 8.481-8.488c-57.063-57.012-149.911-57.012-206.974 0a6 6 0 1 0 8.481 8.488z"/></g><path d="m163 174.891a6 6 0 0 0 -6 6v5.18a6 6 0 1 0 12 0v-5.18a6 6 0 0 0 -6-6z" fill="url(#linear-gradient-4)"/><path d="m163 203.736a6 6 0 0 0 -6 6v48.34a6 6 0 0 0 12 0v-48.34a6 6 0 0 0 -6-6z" fill="url(#linear-gradient-4)"/><path d="m352.711 153h-193.422a25.289 25.289 0 0 0 -25.289 25.289v195.37c0 67.409 54.106 123.077 121.515 123.34 67.577.264 122.485-54.634 122.485-122.151v-133.848a6 6 0 0 0 -12 0v34h-104v-22.042a22.056 22.056 0 0 0 16-21.344v-19.961a22.056 22.056 0 0 0 -16-21.344v-25.309h90.711a13.289 13.289 0 0 1 13.289 13.289v26.711h12v-26.711a25.363 25.363 0 0 0 -25.289-25.289zm-206.711 25.589a13.454 13.454 0 0 1 13.289-13.589h90.711v25.309a22.056 22.056 0 0 0 -16 21.344v19.961a22.056 22.056 0 0 0 16 21.344v22.042h-104zm220 108.411v87.848c0 60.738-49.262 110.152-110 110.152s-110-49.414-110-110.152v-87.848zm-100-75.347v19.961a10 10 0 1 1 -20 0v-19.961a10 10 0 1 1 20 0z" fill="url(#linear-gradient)"/></svg>