<svg id="Layer_1" height="512" viewBox="0 0 512 512" width="512" xmlns="http://www.w3.org/2000/svg" xmlns:xlink="http://www.w3.org/1999/xlink" data-name="Layer 1"><linearGradient id="linear-gradient" gradientUnits="userSpaceOnUse" x1="256.048" x2="256.048" y1="484" y2="75.569"><stop offset=".322" stop-color="#a163f5"/><stop offset=".466" stop-color="#b074ee"/><stop offset=".752" stop-color="#d8a1dd"/><stop offset=".898" stop-color="#efbad3"/></linearGradient><linearGradient id="linear-gradient-2" x1="256" x2="256" xlink:href="#linear-gradient" y1="484" y2="75.569"/><linearGradient id="linear-gradient-3" x1="125.893" x2="125.893" xlink:href="#linear-gradient" y1="484" y2="75.569"/><linearGradient id="linear-gradient-4" x1="178.903" x2="178.903" xlink:href="#linear-gradient" y1="484" y2="75.569"/><linearGradient id="linear-gradient-5" x1="256.069" x2="256.069" xlink:href="#linear-gradient" y1="484" y2="75.569"/><path d="m140.125 356.744a31.03 31.03 0 0 0 30.967 31.113 31.351 31.351 0 0 0 31.341-31.113c0-4.491-1.433-8.758-2.433-12.618v-119.653l158-33.457v72.005a31 31 0 1 0 13.971 25.868 38.084 38.084 0 0 0 -1.971-10.806v-132.955a20.94 20.94 0 0 0 -25.273-20.528l-140.334 29.668a20.849 20.849 0 0 0 -16.393 20.532v155.533a32.384 32.384 0 0 0 -16.659-4.7 31.243 31.243 0 0 0 -31.216 31.111zm200.783-48.826a19.029 19.029 0 1 1 19.092-19.029 19.082 19.082 0 0 1 -19.092 19.029zm-140.908-133.118a8.8 8.8 0 0 1 6.877-8.786l140.465-29.668a8.76 8.76 0 0 1 7.423 1.813 8.86 8.86 0 0 1 3.235 6.969v33.624l-158 33.457zm-28.659 162.83c6.98 0 12.659 3.782 16.659 9.395v.975h-.129c1.474 2 2.313 5.631 2.313 8.928a19.03 19.03 0 1 1 -38.059-.138 19.27 19.27 0 0 1 19.216-19.16z" fill="url(#linear-gradient)"/><path d="m256 20a236 236 0 0 0 -166.877 402.877 236 236 0 1 0 333.754-333.754 234.452 234.452 0 0 0 -166.877-69.123zm158.392 394.392a224 224 0 0 1 -316.784-316.784 224 224 0 0 1 316.784 316.784z" fill="url(#linear-gradient-2)"/><path d="m154.643 109.953a179.331 179.331 0 0 0 -66.591 87.672 6 6 0 1 0 11.334 3.939 167.254 167.254 0 0 1 62.106-81.758 6 6 0 1 0 -6.849-9.853z" fill="url(#linear-gradient-3)"/><path d="m175.4 110.3a5.974 5.974 0 0 0 2.814-.705c2.231-1.187 4.512-2.335 6.78-3.412a6 6 0 0 0 -5.146-10.841c-2.433 1.156-4.88 2.387-7.273 3.661a6 6 0 0 0 2.825 11.3z" fill="url(#linear-gradient-4)"/><path d="m256.977 50.072c-111.577-.521-202.946 88.264-206.836 198.728a6 6 0 1 0 11.992.391 193.912 193.912 0 0 1 190.757-187.097c106.823-1.678 196.501 85.988 197.11 192.822.609 107.483-86.652 195.171-194 195.171-95.437 0-174.991-69.543-191.041-160.14a5.989 5.989 0 0 0 -5.9-4.947 5.991 5.991 0 0 0 -5.919 7c17.02 96.574 101.502 170.07 202.86 170.07 113.714 0 206.2-92.615 206-206.375-.2-112.827-92.2-205.095-205.023-205.623z" fill="url(#linear-gradient-5)"/></svg>