<svg id="Layer_1" height="512" viewBox="0 0 512 512" width="512" xmlns="http://www.w3.org/2000/svg" xmlns:xlink="http://www.w3.org/1999/xlink" data-name="Layer 1"><linearGradient id="linear-gradient" gradientUnits="userSpaceOnUse" x1="134" x2="134" y1="484" y2="73.512"><stop offset=".322" stop-color="#a163f5"/><stop offset=".466" stop-color="#b074ee"/><stop offset=".752" stop-color="#d8a1dd"/><stop offset=".898" stop-color="#efbad3"/></linearGradient><linearGradient id="linear-gradient-3" x1="256" x2="256" xlink:href="#linear-gradient" y1="484" y2="73.512"/><linearGradient id="linear-gradient-4" x1="291.839" x2="291.839" xlink:href="#linear-gradient" y1="484" y2="73.512"/><linearGradient id="linear-gradient-5" x1="220.114" x2="220.114" xlink:href="#linear-gradient" y1="484" y2="73.512"/><path d="m134 207.218a6 6 0 0 0 -6 6v4.782a6 6 0 0 0 12 0v-4.778a6 6 0 0 0 -6-6.004z" fill="url(#linear-gradient)"/><path d="m134 233.818a6 6 0 0 0 -6 6v41.182a6 6 0 0 0 12 0v-41.182a6 6 0 0 0 -6-6z" fill="url(#linear-gradient)"/><path d="m256 10a246 246 0 0 0 -173.948 419.948 246 246 0 1 0 347.9-347.9 244.386 244.386 0 0 0 -173.952-72.048zm165.462 411.464a234 234 0 0 1 -337.08-324.541 234 234 0 1 1 337.08 324.541z" fill="url(#linear-gradient-3)"/><path d="m256 30.089a225.091 225.091 0 0 0 -152.281 59.045 6 6 0 0 0 -.194 8.671l310.675 310.67a6 6 0 0 0 4.243 1.757h.134a6.006 6.006 0 0 0 4.294-1.949 225.908 225.908 0 0 0 -166.871-378.194zm57 260.22-100.634-100.634 100.634-82.644zm34 34-22-22v-209.558a11 11 0 0 1 22 0zm71.179 71.18-59.179-59.18v-30.854a49.461 49.461 0 0 0 0-98.91v-113.794a22.872 22.872 0 0 0 -45.7-1.273l-109.419 89.712-87.37-87.369a213.914 213.914 0 0 1 301.668 301.668zm-59.179-102.034v-74.91a37.463 37.463 0 0 1 0 74.91z" fill="url(#linear-gradient-4)"/><path d="m97.805 103.525a6.06 6.06 0 0 0 -4.377-1.756 5.924 5.924 0 0 0 -4.294 1.869 225.609 225.609 0 0 0 -54.982 109.475 5.808 5.808 0 0 0 5.714 6.887h.394a5.794 5.794 0 0 0 5.693-4.691 213.432 213.432 0 0 1 47.868-98.878l70.559 70.569h-37.806a21.327 21.327 0 0 0 -21.574 21.565v94.87a21.327 21.327 0 0 0 21.574 21.565h70.7l115.943 95.327a22.91 22.91 0 0 0 45.783-1.078v-37.6l36.489 36.493a213.966 213.966 0 0 1 -353.489-162.228v-.058a5.75 5.75 0 0 0 -5.718-5.856h-.382a5.872 5.872 0 0 0 -5.9 5.766v.154a225.97 225.97 0 0 0 378.145 167.05 6.284 6.284 0 0 0 1.678-2.359 6 6 0 0 0 -1.351-6.416zm95.195 209.475h-66.426a9.32 9.32 0 0 1 -9.574-9.565v-94.87a9.32 9.32 0 0 1 9.574-9.565h49.8l16.626 16.623zm120 91.968-108-88.417v-88.926l108 108.014zm34 14.281a11 11 0 0 1 -22 0v-71.608l22 22z" fill="url(#linear-gradient-5)"/></svg>