<svg id="Layer_1" height="512" viewBox="0 0 512 512" width="512" xmlns="http://www.w3.org/2000/svg" xmlns:xlink="http://www.w3.org/1999/xlink" data-name="Layer 1"><linearGradient id="linear-gradient" gradientUnits="userSpaceOnUse" x1="207" x2="207" y1="484" y2="73.512"><stop offset=".322" stop-color="#a163f5"/><stop offset=".466" stop-color="#b074ee"/><stop offset=".752" stop-color="#d8a1dd"/><stop offset=".898" stop-color="#efbad3"/></linearGradient><linearGradient id="linear-gradient-2" x1="209.088" x2="209.088" xlink:href="#linear-gradient" y1="484" y2="73.512"/><linearGradient id="linear-gradient-3" x1="256" x2="256" xlink:href="#linear-gradient" y1="484" y2="73.512"/><linearGradient id="linear-gradient-7" x1="121" x2="121" xlink:href="#linear-gradient" y1="484" y2="73.512"/><path d="m156 212h102a12 12 0 0 0 12-12v-26a12 12 0 0 0 -12-12h-102a12 12 0 0 0 -12 12v26a12 12 0 0 0 12 12zm0-38h101.452l.007 26h-101.459z" fill="url(#linear-gradient)"/><path d="m149.826 263h118.524a6 6 0 0 0 0-12h-118.524a6 6 0 0 0 0 12z" fill="url(#linear-gradient-2)"/><g fill="url(#linear-gradient-3)"><path d="m149.826 305h212.348a6 6 0 0 0 0-12h-212.348a6 6 0 0 0 0 12z"/><path d="m149.826 346h212.348a6 6 0 0 0 0-12h-212.348a6 6 0 0 0 0 12z"/><path d="m149.826 388h212.348a6 6 0 0 0 0-12h-212.348a6 6 0 0 0 0 12z"/><path d="m149.826 429h212.348a6 6 0 0 0 0-12h-212.348a6 6 0 0 0 0 12z"/></g><path d="m121 128a6 6 0 0 0 6-6v-4.778a6 6 0 0 0 -12 0v4.778a6 6 0 0 0 6 6z" fill="url(#linear-gradient-7)"/><path d="m115 204a6 6 0 0 0 12 0v-60.182a6 6 0 1 0 -12 0z" fill="url(#linear-gradient-7)"/><path d="m395.732 83h-57.732v-4c0-9.925-7.575-18-17.5-18h-29.5v-7.479c0-19.849-15.612-36.271-35.109-36.61a36.243 36.243 0 0 0 -36.891 36.21v7.879h-28.5c-9.925 0-18.5 8.075-18.5 18v4h-55.647a26.431 26.431 0 0 0 -26.353 26.353v56.647a6 6 0 0 0 12 0v-56.732a14.31 14.31 0 0 1 14.268-14.268h55.732v19c0 3.313 3.187 6 6.5 6h154c3.313 0 5.5-2.687 5.5-6v-19h57.647a14.4 14.4 0 0 1 14.353 14.353v359.741a13.906 13.906 0 0 1 -13.906 13.906h-279.741a14.4 14.4 0 0 1 -14.353-14.353v-260.647a6 6 0 0 0 -12 0v261.094a25.906 25.906 0 0 0 25.906 25.906h279.741a26.431 26.431 0 0 0 26.353-26.353v-359.379a26.346 26.346 0 0 0 -26.268-26.268zm-69.732 25h-142v-29c0-3.309 3.191-6 6.5-6h35c3.313 0 5.5-2.687 5.5-6v-13.879a24.4 24.4 0 0 1 7.488-17.375 23.427 23.427 0 0 1 17.07-6.837c13 .226 23.442 11.266 23.442 24.612v13.479c0 3.313 3.187 6 6.5 6h35c3.309 0 5.5 2.691 5.5 6z" fill="url(#linear-gradient-3)"/></svg>