<svg id="Layer_1" height="512" viewBox="0 0 512 512" width="512" xmlns="http://www.w3.org/2000/svg" xmlns:xlink="http://www.w3.org/1999/xlink" data-name="Layer 1"><linearGradient id="linear-gradient" gradientUnits="userSpaceOnUse" x1="129.17" x2="129.17" y1="470" y2="82.862"><stop offset=".322" stop-color="#a163f5"/><stop offset=".466" stop-color="#b074ee"/><stop offset=".752" stop-color="#d8a1dd"/><stop offset=".898" stop-color="#efbad3"/></linearGradient><linearGradient id="linear-gradient-2" x1="187.398" x2="187.398" xlink:href="#linear-gradient" y2="82.862"/><linearGradient id="linear-gradient-3" x1="255.998" x2="255.998" xlink:href="#linear-gradient" y2="82.862"/><path d="m131.475 362a6 6 0 1 0 0-12h-4.61a6 6 0 0 0 0 12z" fill="url(#linear-gradient)"/><path d="m222.265 362a6 6 0 0 0 0-12h-69.733a6 6 0 0 0 0 12z" fill="url(#linear-gradient-2)"/><path d="m441.751 357.019c-.052-.026-.1-.051-.157-.075l-6.348-2.856c-9.246-4.545-15.246-13.832-15.246-23.688v-98.453c0-71.663-44.962-135.263-111.929-158.262a20.778 20.778 0 0 1 -14.022-19.66 38.994 38.994 0 1 0 -77.988.075 20.82 20.82 0 0 1 -13.981 19.64 168.4 168.4 0 0 0 -80.194 59.965 166.618 166.618 0 0 0 -31.886 98.242v46.053a6 6 0 0 0 12 0v-10h306v62.4c0 14.434 8.679 27.979 22.061 34.506.052.026.121.05.173.074l6.323 2.856c8.824 4.342 14.752 14.065 14.752 24.225 0 14.6-12.082 26.935-26.389 26.935h-337.706c-14.379 0-26.526-12.335-26.526-26.935a26.934 26.934 0 0 1 14.687-24.261l.1-.05 5.583-2.869c12.942-6.333 20.942-19.539 20.942-34.481v-10.4a6 6 0 0 0 -12 0v10.4c0 10.333-5.442 19.422-14.255 23.721-.033.017-.05.033-.083.05l-5.605 2.868c-12.989 6.359-21.373 20.1-21.373 35.022a38.779 38.779 0 0 0 38.53 38.939h111.786v7.581c0 32.079 26.25 58.868 58.327 58.413a57.547 57.547 0 0 0 56.673-57.374v-8.62h110.92c21.17 0 38.392-17.466 38.392-38.935a39.061 39.061 0 0 0 -21.561-35.046zm-310.143-216.279a156.3 156.3 0 0 1 74.417-55.666 32.856 32.856 0 0 0 22.039-31.049 27 27 0 1 1 54 0 32.767 32.767 0 0 0 22.109 31.009c50.636 17.39 87.7 59.832 99.681 110.966h-297.664a155.291 155.291 0 0 1 25.418-55.26zm276.392 115.26h-306v-24.053a156.287 156.287 0 0 1 1.841-23.947h302.333a157.871 157.871 0 0 1 1.826 23.947zm-106 183.62a45.5 45.5 0 0 1 -91 0v-8.62h91z" fill="url(#linear-gradient-3)"/></svg>