<svg id="Layer_1" height="512" viewBox="0 0 512 512" width="512" xmlns="http://www.w3.org/2000/svg" xmlns:xlink="http://www.w3.org/1999/xlink" data-name="Layer 1"><linearGradient id="linear-gradient" gradientUnits="userSpaceOnUse" x1="233" x2="233" y1="484" y2="75.569"><stop offset=".322" stop-color="#a163f5"/><stop offset=".466" stop-color="#b074ee"/><stop offset=".752" stop-color="#d8a1dd"/><stop offset=".898" stop-color="#efbad3"/></linearGradient><linearGradient id="linear-gradient-2" x1="225.17" x2="225.17" xlink:href="#linear-gradient" y1="484" y2="75.569"/><linearGradient id="linear-gradient-3" x1="272.082" x2="272.082" xlink:href="#linear-gradient" y1="484" y2="75.569"/><linearGradient id="linear-gradient-7" x1="139" x2="139" xlink:href="#linear-gradient" y1="484" y2="75.569"/><linearGradient id="linear-gradient-9" x1="256" x2="256" xlink:href="#linear-gradient" y1="484" y2="75.569"/><path d="m172 150h122a12 12 0 0 0 12-12v-38a12 12 0 0 0 -12-12h-122a12 12 0 0 0 -12 12v38a12 12 0 0 0 12 12zm0-50h121.533l.008 38h-121.541z" fill="url(#linear-gradient)"/><path d="m165.908 230h118.524a6 6 0 0 0 0-12h-118.524a6 6 0 0 0 0 12z" fill="url(#linear-gradient-2)"/><g fill="url(#linear-gradient-3)"><path d="m159.908 265a6 6 0 0 0 6 6h212.348a6 6 0 0 0 0-12h-212.348a6 6 0 0 0 -6 6z"/><path d="m378.256 301h-212.348a6 6 0 0 0 0 12h212.348a6 6 0 0 0 0-12z"/><path d="m378.256 342h-212.348a6 6 0 0 0 0 12h212.348a6 6 0 0 0 0-12z"/><path d="m378.256 384h-212.348a6 6 0 0 0 0 12h212.348a6 6 0 0 0 0-12z"/></g><path d="m139 49.218a6 6 0 0 0 -6 6v4.782a6 6 0 0 0 12 0v-4.782a6 6 0 0 0 -6-6z" fill="url(#linear-gradient-7)"/><path d="m139 75.818a6 6 0 0 0 -6 6v77.182a6 6 0 0 0 12 0v-77.182a6 6 0 0 0 -6-6z" fill="url(#linear-gradient-7)"/><path d="m364.607 21.849a6.161 6.161 0 0 0 -4.407-1.849h-226.755c-14.337 0-26.445 11.664-26.445 26v6h-5.719a26.411 26.411 0 0 0 -26.281 26.163v387.837a26.272 26.272 0 0 0 26.281 26h281.274c14.337 0 26.445-11.664 26.445-26v-6h1.719a26.411 26.411 0 0 0 26.281-26.163v-334.232a6.144 6.144 0 0 0 -1.808-4.151zm1.393 19.087 50.661 53.064h-44.461a6.533 6.533 0 0 1 -6.2-6.395zm59 392.783a14.324 14.324 0 0 1 -14.281 14.281h-277.274a14.487 14.487 0 0 1 -14.445-14.445v-253.555a6 6 0 0 0 -12 0v253.555a26.522 26.522 0 0 0 26.445 26.445h263.555v6a14 14 0 0 1 -14 14h-281.719a14.324 14.324 0 0 1 -14.281-14.281v-387.556a14.2 14.2 0 0 1 14.163-14.163h5.837v74a6 6 0 0 0 12 0v-92a14 14 0 0 1 14-14h221v55.605a18.449 18.449 0 0 0 18.4 18.395h52.6z" fill="url(#linear-gradient-9)"/></svg>