<svg id="Layer_1" height="512" viewBox="0 0 512 512" width="512" xmlns="http://www.w3.org/2000/svg" xmlns:xlink="http://www.w3.org/1999/xlink" data-name="Layer 1"><linearGradient id="linear-gradient" gradientUnits="userSpaceOnUse" x1="63.212" x2="63.212" y1="470" y2="82.862"><stop offset=".322" stop-color="#a163f5"/><stop offset=".466" stop-color="#b074ee"/><stop offset=".752" stop-color="#d8a1dd"/><stop offset=".898" stop-color="#efbad3"/></linearGradient><linearGradient id="linear-gradient-2" x1="117.945" x2="117.945" xlink:href="#linear-gradient" y1="470" y2="82.862"/><linearGradient id="linear-gradient-3" x1="255.794" x2="255.794" xlink:href="#linear-gradient" y1="470" y2="82.862"/><path d="m60.606 48a6 6 0 1 0 0 12h5.211a6 6 0 0 0 0-12z" fill="url(#linear-gradient)"/><path d="m89.615 60h56.659a6 6 0 0 0 0-12h-56.659a6 6 0 0 0 0 12z" fill="url(#linear-gradient-2)"/><path d="m405.076 69h-6.076v-23a26 26 0 0 0 -26-26h-253a6 6 0 0 0 0 12h252a14 14 0 0 1 14 14v63a14 14 0 0 1 -14 14h-320a14 14 0 0 1 -14-14v-63a14 14 0 0 1 14-14h26a6 6 0 0 0 0-12h-25.587a26.491 26.491 0 0 0 -26.413 26.413v62.5a26.161 26.161 0 0 0 26.085 26.087h320.83a26.161 26.161 0 0 0 26.085-26.085v-27.915h6.066c37.121 0 68.061 29.539 68.516 66.657a67.594 67.594 0 0 1 -67.633 68.343h-121a80.181 80.181 0 0 0 -79.949 79.946v2.054h-29.71c-3.314 0-6.29 2.379-6.29 5.692v145.72c0 23.488 19.4 42.588 42.877 42.588h.414a42.739 42.739 0 0 0 42.709-42.588v-145.72a5.851 5.851 0 0 0 -6.121-5.692h-31.879v-2.278a67.921 67.921 0 0 1 67.722-67.722h121.227a79.608 79.608 0 0 0 79.636-80.078c-.312-43.847-36.661-78.922-80.509-78.922zm-162.076 380.412a30.727 30.727 0 0 1 -30.709 30.588h-.414a30.871 30.871 0 0 1 -30.877-30.588v-93.412h62zm0-139.412v34h-62v-34z" fill="url(#linear-gradient-3)"/></svg>