<svg id="Layer_1" height="512" viewBox="0 0 512 512" width="512" xmlns="http://www.w3.org/2000/svg" xmlns:xlink="http://www.w3.org/1999/xlink" data-name="Layer 1"><linearGradient id="linear-gradient" gradientUnits="userSpaceOnUse" x1="209.92" x2="209.92" y1="484" y2="73.512"><stop offset=".322" stop-color="#a163f5"/><stop offset=".466" stop-color="#b074ee"/><stop offset=".752" stop-color="#d8a1dd"/><stop offset=".898" stop-color="#efbad3"/></linearGradient><linearGradient id="linear-gradient-2" x1="206.494" x2="206.494" xlink:href="#linear-gradient" y1="484" y2="73.512"/><linearGradient id="linear-gradient-3" x1="255.996" x2="255.996" xlink:href="#linear-gradient" y1="484" y2="73.512"/><path d="m210.45 367.65a6.009 6.009 0 0 0 -6.367 5.609l-.3 4.768a6 6 0 0 0 5.61 6.367c.129.008.256.012.384.012a6 6 0 0 0 5.983-5.621l.3-4.768a6 6 0 0 0 -5.61-6.367z" fill="url(#linear-gradient)"/><path d="m208.771 394.2a6.024 6.024 0 0 0 -6.367 5.61l-3.8 60.057a6 6 0 0 0 5.61 6.367c.129.008.257.012.385.012a6 6 0 0 0 5.982-5.622l3.8-60.058a6 6 0 0 0 -5.61-6.366z" fill="url(#linear-gradient-2)"/><path d="m260.71 23.209a6 6 0 0 0 -5.31-3.209h-.007a6 6 0 0 0 -5.316 3.231l-113.768 218.7a12.91 12.91 0 0 0 1.337 13.964l36.036 45.445a28.649 28.649 0 0 0 6.015 55.461l-10.926 128.692a6 6 0 0 0 5.978 6.507h162.451a6 6 0 0 0 5.979-6.507l-10.928-128.688a28.6 28.6 0 0 0 7.8-54.687l34.539-46.327a13.043 13.043 0 0 0 1.083-13.761zm-4.737 162.562a10.092 10.092 0 1 1 -10.091 10.091 10.1 10.1 0 0 1 10.091-10.091zm-74.693 294.229 10.443-123h128.5l10.442 123zm183.69-231.327-38.228 51.327h-91.742a6 6 0 0 0 0 12h93.467c9.159 0 17.023 7.492 16.94 16.65a16.505 16.505 0 0 1 -16.407 16.35h-145.521c-9.159 0-17.023-7.491-16.94-16.65a16.505 16.505 0 0 1 16.412-16.35h10.049a6 6 0 0 0 0-12h-5.244l-40.71-51.448c-.219-.276-.455-.712-.292-1.025l102.246-196.991v124.234a21.933 21.933 0 0 0 -15.316 21.272 22.267 22.267 0 0 0 20.378 21.839 22.066 22.066 0 0 0 6.938-43.434v-124.125l103.847 197.344c.159.303.329.734.123 1.007z" fill="url(#linear-gradient-3)"/></svg>