<svg id="Layer_1" height="512" viewBox="0 0 512 512" width="512" xmlns="http://www.w3.org/2000/svg" xmlns:xlink="http://www.w3.org/1999/xlink" data-name="Layer 1"><linearGradient id="linear-gradient" gradientUnits="userSpaceOnUse" x1="303.907" x2="303.907" y1="484" y2="75.569"><stop offset=".322" stop-color="#a163f5"/><stop offset=".466" stop-color="#b074ee"/><stop offset=".752" stop-color="#d8a1dd"/><stop offset=".898" stop-color="#efbad3"/></linearGradient><linearGradient id="linear-gradient-2" x1="259.501" x2="259.501" xlink:href="#linear-gradient" y1="484" y2="75.569"/><linearGradient id="linear-gradient-3" x1="255.984" x2="255.984" xlink:href="#linear-gradient" y1="484" y2="75.569"/><path d="m306.461 153.636 3.378-3.379a6 6 0 0 0 -8.485-8.485l-3.378 3.378a6 6 0 0 0 8.485 8.486z" fill="url(#linear-gradient)"/><path d="m227.972 223.64a6 6 0 0 0 8.486 0l54.572-54.573a6 6 0 1 0 -8.485-8.485l-54.573 54.572a6 6 0 0 0 0 8.486z" fill="url(#linear-gradient-2)"/><path d="m353.051 63.352-78.251 78.248a6 6 0 1 0 8.485 8.485l24.634-24.634 19.689 19.689-214.291 214.296-19.689-19.689 159.96-159.961a6 6 0 1 0 -8.488-8.486l-163.152 163.155a11.813 11.813 0 0 0 -2.979 5.02l-35.9 122a6 6 0 0 0 7.449 7.449l122-35.9a11.8 11.8 0 0 0 5.019-2.979l271.836-271.821a67.672 67.672 0 0 0 -.748-96.334c-26.625-25.827-69.344-24.767-95.574 1.462zm-16.951 90.275 22.273 22.273-214.294 214.3-22.279-22.279zm-278.41 300.683 10.395-35.332 24.937 24.937zm48.445-14.253-34.192-34.192 16.1-54.73 72.819 72.819zm66.118-21.685-19.689-19.689 214.294-214.293 19.689 19.689zm222.779-222.779-78.625-78.625 18.926-18.927 78.626 78.626zm45.856-45.855-18.444 18.444-78.626-78.626 18.444-18.444a55.6 55.6 0 0 1 78.626 78.626z" fill="url(#linear-gradient-3)"/></svg>