<svg id="Layer_1" height="512" viewBox="0 0 512 512" width="512" xmlns="http://www.w3.org/2000/svg" xmlns:xlink="http://www.w3.org/1999/xlink" data-name="Layer 1"><linearGradient id="linear-gradient" gradientUnits="userSpaceOnUse" x1="219" x2="219" y1="480" y2="45.982"><stop offset=".322" stop-color="#a163f5"/><stop offset=".466" stop-color="#b074ee"/><stop offset=".752" stop-color="#d8a1dd"/><stop offset=".898" stop-color="#efbad3"/></linearGradient><linearGradient id="linear-gradient-2" x1="293" x2="293" xlink:href="#linear-gradient" y1="480" y2="45.982"/><linearGradient id="linear-gradient-3" x1="256" x2="256" xlink:href="#linear-gradient" y1="480" y2="45.982"/><linearGradient id="linear-gradient-4" x1="178" x2="178" xlink:href="#linear-gradient" y1="480" y2="45.982"/><path d="m235 52h-32a6 6 0 0 0 -6 6v40a6 6 0 0 0 6 6h32a6 6 0 0 0 6-6v-40a6 6 0 0 0 -6-6zm-6 40h-20v-28h20z" fill="url(#linear-gradient)"/><path d="m309 52h-32a6 6 0 0 0 -6 6v40a6 6 0 0 0 6 6h32a6 6 0 0 0 6-6v-40a6 6 0 0 0 -6-6zm-6 40h-20v-28h20z" fill="url(#linear-gradient-2)"/><path d="m227.262 408h57.476a22.5 22.5 0 1 0 0-45h-57.476a22.5 22.5 0 1 0 0 45zm0-33h57.476a10.5 10.5 0 1 1 0 21h-57.476a10.5 10.5 0 1 1 0-21z" fill="url(#linear-gradient-3)"/><path d="m178 247a6 6 0 0 0 6-6v-4.778a6 6 0 1 0 -12 0v4.778a6 6 0 0 0 6 6z" fill="url(#linear-gradient-4)"/><path d="m178 330a6 6 0 0 0 6-6v-61.182a6 6 0 0 0 -12 0v61.182a6 6 0 0 0 6 6z" fill="url(#linear-gradient-4)"/><path d="m365.364 138h-23.364v-112a6.339 6.339 0 0 0 -6.383-6h-159.234a6.339 6.339 0 0 0 -6.383 6v112h-23.364a5.314 5.314 0 0 0 -5.636 5.53v233.106c0 63.612 51.388 115.364 115 115.364s115-51.752 115-115.364v-233.106a5.314 5.314 0 0 0 -5.636-5.53zm-183.364-106h148v106h-148zm177 166h-154a6 6 0 0 0 0 12h154v165.868c0 57.046-45.892 104.1-102.938 104.132-57.024.034-103.062-46.348-103.062-103.364v-166.636h10a6 6 0 0 0 0-12h-10v-48h206z" fill="url(#linear-gradient-3)"/></svg>