<svg id="Layer_1" height="512" viewBox="0 0 512 512" width="512" xmlns="http://www.w3.org/2000/svg" xmlns:xlink="http://www.w3.org/1999/xlink" data-name="Layer 1"><linearGradient id="linear-gradient" gradientUnits="userSpaceOnUse" x1="162" x2="162" y1="484" y2="73.512"><stop offset=".322" stop-color="#a163f5"/><stop offset=".466" stop-color="#b074ee"/><stop offset=".752" stop-color="#d8a1dd"/><stop offset=".898" stop-color="#efbad3"/></linearGradient><linearGradient id="linear-gradient-3" x1="256" x2="256" xlink:href="#linear-gradient" y1="484" y2="73.512"/><linearGradient id="linear-gradient-4" x1="255.5" x2="255.5" xlink:href="#linear-gradient" y1="484" y2="73.512"/><path d="m162 84.891a6 6 0 0 0 6-6v-4.778a6 6 0 0 0 -12 0v4.778a6 6 0 0 0 6 6z" fill="url(#linear-gradient)"/><path d="m156 164.891a6 6 0 0 0 12 0v-64.178a6 6 0 1 0 -12 0z" fill="url(#linear-gradient)"/><path d="m380 13h-248a26 26 0 0 0 -26 26v434a26 26 0 0 0 26 26h248a26 26 0 0 0 26-26v-434a26 26 0 0 0 -26-26zm14 460a14 14 0 0 1 -14 14h-248a14 14 0 0 1 -14-14v-434a14 14 0 0 1 14-14h248a14 14 0 0 1 14 14z" fill="url(#linear-gradient-3)"/><path d="m272 438h-33a16 16 0 0 0 0 32h33a16 16 0 0 0 0-32zm0 20h-33a4 4 0 0 1 0-8h33a4 4 0 0 1 0 8z" fill="url(#linear-gradient-4)"/><path d="m374 42h-236a6 6 0 0 0 -6 6v47a6 6 0 0 0 12 0v-41h224v356h-224v-273a6 6 0 0 0 -12 0v278a6 6 0 0 0 6 6h236a6 6 0 0 0 6-6v-367a6 6 0 0 0 -6-6z" fill="url(#linear-gradient-3)"/></svg>