<svg id="Layer_1" height="512" viewBox="0 0 512 512" width="512" xmlns="http://www.w3.org/2000/svg" xmlns:xlink="http://www.w3.org/1999/xlink" data-name="Layer 1"><linearGradient id="linear-gradient" gradientUnits="userSpaceOnUse" x1="255.994" x2="255.994" y1="484" y2="75.569"><stop offset=".322" stop-color="#a163f5"/><stop offset=".466" stop-color="#b074ee"/><stop offset=".752" stop-color="#d8a1dd"/><stop offset=".898" stop-color="#efbad3"/></linearGradient><linearGradient id="linear-gradient-2" x1="333.375" x2="333.375" xlink:href="#linear-gradient" y1="484" y2="75.569"/><linearGradient id="linear-gradient-3" x1="284.845" x2="284.845" xlink:href="#linear-gradient" y1="484" y2="75.569"/><path d="m364.227 47.545a25.789 25.789 0 0 0 -36.43 0 25.791 25.791 0 0 0 0 36.43l.44.44-133.531 93.132-3.694-3.694a38.9 38.9 0 0 0 -55.013 0l-11.223 11.223a6 6 0 0 0 0 8.485l79.144 79.139-91.078 91.078a390.628 390.628 0 0 0 -72.192 99.5 6 6 0 0 0 8.067 8.067 390.653 390.653 0 0 0 99.5-72.191l91.083-91.073 79.143 79.143a6 6 0 0 0 8.485 0l11.218-11.224a38.944 38.944 0 0 0 0-55.012l-3.694-3.695 93.132-133.533.441.442a25.76 25.76 0 1 0 36.43-36.43zm-224.494 343.129a378.6 378.6 0 0 1 -78.864 60.457 378.56 378.56 0 0 1 60.457-78.864l91.074-91.078 18.412 18.411zm189.928-23.158-6.98 6.98-185.181-185.178 6.979-6.98a26.9 26.9 0 0 1 38.043 0l147.139 147.136a26.931 26.931 0 0 1 0 38.042zm125.805-191.316a14.023 14.023 0 0 1 -19.237-.761l-55.123-55.123a6 6 0 0 0 -8.484 0 6 6 0 0 0 0 8.485l46.344 46.344-93.132 133.531-122.509-122.509 133.532-93.132 6.067 6.066a6 6 0 0 0 8.484-8.485l-15.126-15.126a13.778 13.778 0 0 1 0-19.46 13.777 13.777 0 0 1 19.461 0l100.227 100.228a13.777 13.777 0 0 1 -.504 19.942z" fill="url(#linear-gradient)"/><path d="m332.029 114.493-4.268 3.038a6 6 0 1 0 6.959 9.777l4.268-3.039a6 6 0 0 0 -6.959-9.776z" fill="url(#linear-gradient-2)"/><path d="m308.264 131.409-53.8 38.291a6 6 0 1 0 6.959 9.776l53.8-38.291a6 6 0 0 0 -6.959-9.776z" fill="url(#linear-gradient-3)"/></svg>