<svg id="Layer_1" height="512" viewBox="0 0 512 512" width="512" xmlns="http://www.w3.org/2000/svg" xmlns:xlink="http://www.w3.org/1999/xlink" data-name="Layer 1"><linearGradient id="linear-gradient" gradientUnits="userSpaceOnUse" x1="452.5" x2="452.5" y1="470" y2="82.862"><stop offset=".322" stop-color="#a163f5"/><stop offset=".466" stop-color="#b074ee"/><stop offset=".752" stop-color="#d8a1dd"/><stop offset=".898" stop-color="#efbad3"/></linearGradient><linearGradient id="linear-gradient-2" x1="392" x2="392" xlink:href="#linear-gradient" y1="470" y2="82.862"/><linearGradient id="linear-gradient-3" x1="229.192" x2="229.192" xlink:href="#linear-gradient" y1="470" y2="82.862"/><linearGradient id="linear-gradient-5" x1="117.931" x2="117.931" xlink:href="#linear-gradient" y1="470" y2="82.862"/><linearGradient id="linear-gradient-6" x1="170.116" x2="170.116" xlink:href="#linear-gradient" y1="470" y2="82.862"/><linearGradient id="linear-gradient-7" x1="229.893" x2="229.893" xlink:href="#linear-gradient" y1="470" y2="82.862"/><path d="m462 460h-19a6 6 0 0 0 0 12h19a6 6 0 0 0 0-12z" fill="url(#linear-gradient)"/><path d="m414 460h-44a6 6 0 0 0 0 12h44a6 6 0 0 0 0-12z" fill="url(#linear-gradient-2)"/><path d="m338 460h-91.355a613.871 613.871 0 0 0 76.391-64.925c26.373-26.644 47.412-53.588 62.532-80.081 19.1-33.464 28.783-66.341 28.783-97.717 0-97.751-83.062-177.277-185.159-177.277s-185.159 79.526-185.159 177.277c0 31.376 9.684 64.253 28.782 97.717 15.121 26.493 36.16 53.437 62.533 80.081a613.871 613.871 0 0 0 76.391 64.925h-94.739a6 6 0 0 0 0 12h221a6 6 0 0 0 0-12zm-194.288-73.533c-25.595-25.882-45.962-51.967-60.535-77.528-18.011-31.592-27.144-62.431-27.144-91.662 0-91.133 77.679-165.277 173.159-165.277s173.159 74.144 173.159 165.277c0 29.231-9.133 60.07-27.144 91.662-14.573 25.562-34.94 51.646-60.535 77.528a595.561 595.561 0 0 1 -85.48 71.074 595.5 595.5 0 0 1 -85.48-71.074z" fill="url(#linear-gradient-3)"/><path d="m229.192 298.7a80.5 80.5 0 1 0 -80.5-80.5 80.589 80.589 0 0 0 80.5 80.5zm0-149a68.5 68.5 0 1 1 -68.5 68.5 68.577 68.577 0 0 1 68.5-68.5z" fill="url(#linear-gradient-3)"/><path d="m146.976 113.218a6 6 0 1 0 -7.386-9.457 143.392 143.392 0 0 0 -52.911 87.092 6 6 0 0 0 4.815 6.987 6.086 6.086 0 0 0 1.093.1 6 6 0 0 0 5.894-4.915 131.407 131.407 0 0 1 48.495-79.807z" fill="url(#linear-gradient-5)"/><path d="m166.172 100a5.968 5.968 0 0 0 2.69-.641c2.471-1.242 5.012-2.419 7.553-3.5a6 6 0 0 0 -4.7-11.042c-2.773 1.181-5.547 2.467-8.242 3.823a6 6 0 0 0 2.7 11.361z" fill="url(#linear-gradient-6)"/><path d="m351.082 223.23a122.132 122.132 0 0 0 -121.89-127.222c-58.7 0-107.838 42.28-119.413 96.886a5.9 5.9 0 0 0 5.782 7.106h.185a5.93 5.93 0 0 0 5.785-4.749 110.217 110.217 0 0 1 109.626-87.225c59.068 1.036 107.092 49.246 108.021 108.316.967 61.46-48.746 111.619-109.986 111.619-54.8 0-100.356-40.357-108.646-92.916a5.927 5.927 0 0 0 -5.836-5.045h-.21a5.909 5.909 0 0 0 -5.835 6.816 121.989 121.989 0 0 0 122.783 103.172c64.186-1.16 116.945-52.618 119.634-116.758z" fill="url(#linear-gradient-7)"/></svg>