<svg id="Layer_1" height="512" viewBox="0 0 512 512" width="512" xmlns="http://www.w3.org/2000/svg" xmlns:xlink="http://www.w3.org/1999/xlink" data-name="Layer 1"><linearGradient id="linear-gradient" gradientUnits="userSpaceOnUse" x1="256.222" x2="256.222" y1="470" y2="82.862"><stop offset=".322" stop-color="#a163f5"/><stop offset=".466" stop-color="#b074ee"/><stop offset=".752" stop-color="#d8a1dd"/><stop offset=".898" stop-color="#efbad3"/></linearGradient><linearGradient id="linear-gradient-2" x1="256" x2="256" xlink:href="#linear-gradient" y1="470" y2="82.862"/><linearGradient id="linear-gradient-3" x1="256.223" x2="256.223" xlink:href="#linear-gradient" y1="470" y2="82.862"/><linearGradient id="linear-gradient-4" x1="89" x2="89" xlink:href="#linear-gradient" y1="470" y2="82.862"/><path d="m256.223 254.972a50.748 50.748 0 1 0 -50.858-50.748 50.861 50.861 0 0 0 50.858 50.748zm0-89.5a38.748 38.748 0 1 1 -38.858 38.748 38.846 38.846 0 0 1 38.858-38.744z" fill="url(#linear-gradient)"/><path d="m168.706 210h12.817a75.143 75.143 0 0 0 68.477 68.922v12.3a6 6 0 0 0 12 0v-12.3a74.726 74.726 0 0 0 68.922-68.922h12.372a6 6 0 0 0 0-12h-12.374a75.147 75.147 0 0 0 -68.92-68.475v-12.446a6 6 0 0 0 -12 0v12.446c-36 2.912-65.559 32.475-68.475 68.475h-12.819a6 6 0 0 0 0 12zm87.517-68.736a62.96 62.96 0 1 1 -62.961 62.96 63.032 63.032 0 0 1 62.961-62.96z" fill="url(#linear-gradient-2)"/><path d="m256.223 230.031a25.808 25.808 0 1 0 -25.857-25.807 25.861 25.861 0 0 0 25.857 25.807zm0-39.615a13.808 13.808 0 1 1 -13.857 13.808 13.848 13.848 0 0 1 13.857-13.808z" fill="url(#linear-gradient-3)"/><path d="m89 114.891a6 6 0 0 0 -6 6v5.18a6 6 0 0 0 12 0v-5.18a6 6 0 0 0 -6-6z" fill="url(#linear-gradient-4)"/><path d="m89 143.736a6 6 0 0 0 -6 6v66.34a6 6 0 1 0 12 0v-66.34a6 6 0 0 0 -6-6z" fill="url(#linear-gradient-4)"/><path d="m455.094 56h-126.2a31.46 31.46 0 0 0 -30.873-26h-84.04a31.46 31.46 0 0 0 -30.873 26h-126.202c-11.827 0-21.906 9.122-21.906 20.948v2.609c0 11.827 10.079 21.443 21.906 21.443h.094v205h-.094c-11.827 0-21.906 9.618-21.906 21.445v2.608a22.3 22.3 0 0 0 21.906 21.947h90.6l-26.841 107.359a18.222 18.222 0 0 0 17.677 22.641h6.158a18.418 18.418 0 0 0 17.678-14.049l7.676-30.951h172.292l7.676 30.951a18.418 18.418 0 0 0 17.678 14.049h6.158a18.222 18.222 0 0 0 17.677-22.641l-26.835-107.359h90.6a22.3 22.3 0 0 0 21.9-21.947v-2.608c0-11.827-10.079-21.445-21.906-21.445h-1.094v-205h1.094c11.827 0 21.906-9.616 21.906-21.443v-2.609c0-11.826-10.079-20.948-21.906-20.948zm-241.113-14h84.038a19.7 19.7 0 0 1 18.506 14h-121.05a19.7 19.7 0 0 1 18.506-14zm-63.444 423.238a6.258 6.258 0 0 1 -6.037 4.762h-6.158a6.222 6.222 0 0 1 -6.036-7.73l27.567-110.27h18.962zm22.317-40.238 4.026-16h158.24l4.026 16zm7.026-28 11.294-45h129.652l11.294 45zm199.814 65.27a6.222 6.222 0 0 1 -6.036 7.73h-6.158a6.214 6.214 0 0 1 -6.037-4.713l-28.322-113.287h18.986zm74.857-144.27a9.448 9.448 0 0 1 9.449 9.449v3.1a9.449 9.449 0 0 1 -9.449 9.451h-398.102a9.449 9.449 0 0 1 -9.449-9.449v-3.1a9.448 9.448 0 0 1 9.449-9.451zm9.449-237.449a9.449 9.449 0 0 1 -9.449 9.449h-299.051a5.5 5.5 0 0 0 0 11h286.5v205h-373v-205h45.5a5.5 5.5 0 0 0 0-11h-58.051a9.449 9.449 0 0 1 -9.449-9.449v-3.1a9.448 9.448 0 0 1 9.449-9.451h398.1a9.448 9.448 0 0 1 9.451 9.449z" fill="url(#linear-gradient-2)"/></svg>