<svg id="Layer_1" height="512" viewBox="0 0 512 512" width="512" xmlns="http://www.w3.org/2000/svg" xmlns:xlink="http://www.w3.org/1999/xlink" data-name="Layer 1"><linearGradient id="linear-gradient" gradientUnits="userSpaceOnUse" x1="82.204" x2="82.204" y1="484" y2="73.512"><stop offset=".322" stop-color="#a163f5"/><stop offset=".466" stop-color="#b074ee"/><stop offset=".752" stop-color="#d8a1dd"/><stop offset=".898" stop-color="#efbad3"/></linearGradient><linearGradient id="linear-gradient-2" x1="127.91" x2="127.91" xlink:href="#linear-gradient" y1="484" y2="73.512"/><linearGradient id="linear-gradient-3" x1="173.615" x2="173.615" xlink:href="#linear-gradient" y1="484" y2="73.512"/><linearGradient id="linear-gradient-4" x1="49" x2="49" xlink:href="#linear-gradient" y1="484" y2="73.512"/><linearGradient id="linear-gradient-6" x1="227.5" x2="227.5" xlink:href="#linear-gradient" y1="484" y2="73.512"/><linearGradient id="linear-gradient-7" x1="221.137" x2="221.137" xlink:href="#linear-gradient" y1="484" y2="73.512"/><linearGradient id="linear-gradient-8" x1="256" x2="256" xlink:href="#linear-gradient" y1="484" y2="73.512"/><path d="m102 208.148a19.795 19.795 0 1 0 -19.794 19.8 19.817 19.817 0 0 0 19.794-19.8zm-27.589 0a7.795 7.795 0 1 1 7.795 7.8 7.8 7.8 0 0 1 -7.797-7.8z" fill="url(#linear-gradient)"/><path d="m147.7 208.148a19.795 19.795 0 1 0 -19.8 19.8 19.817 19.817 0 0 0 19.8-19.8zm-27.589 0a7.795 7.795 0 1 1 7.794 7.8 7.8 7.8 0 0 1 -7.79-7.8z" fill="url(#linear-gradient-2)"/><path d="m193.409 208.148a19.794 19.794 0 1 0 -19.794 19.8 19.817 19.817 0 0 0 19.794-19.8zm-27.588 0a7.794 7.794 0 1 1 7.794 7.8 7.8 7.8 0 0 1 -7.794-7.8z" fill="url(#linear-gradient-3)"/><path d="m49 203.891a6 6 0 0 0 6-6v-4.778a6 6 0 0 0 -12 0v4.778a6 6 0 0 0 6 6z" fill="url(#linear-gradient-4)"/><path d="m43 273.891a6 6 0 0 0 12 0v-54.178a6 6 0 1 0 -12 0z" fill="url(#linear-gradient-4)"/><path d="m182 326h91a12 12 0 0 0 12-12v-20a12 12 0 0 0 -12-12h-91a12 12 0 0 0 -12 12v20a12 12 0 0 0 12 12zm0-32h90.835l.008 19h-90.843z" fill="url(#linear-gradient-6)"/><path d="m176 352h90.273a6 6 0 0 0 0-12h-90.273a6 6 0 0 0 0 12z" fill="url(#linear-gradient-7)"/><g fill="url(#linear-gradient-8)"><path d="m176 379h160a6 6 0 0 0 0-12h-160a6 6 0 0 0 0 12z"/><path d="m176 405h160a6 6 0 0 0 0-12h-160a6 6 0 0 0 0 12z"/><path d="m464.549 160h-2.188c-2.85-13.343-14.941-24-29.383-24h-7.978v-7.81a26.374 26.374 0 0 0 -26.212-26.19h-23.788v-48.81a18.366 18.366 0 0 0 -18.212-18.19h-201.576a18.366 18.366 0 0 0 -18.212 18.19v48.81h-23.788c-14.579 0-26.212 11.172-26.212 25.19v8.81h-7.978c-14.442 0-26.533 10.657-29.383 24h-2.589a26.127 26.127 0 0 0 -26.05 26.05v32.95a6 6 0 0 0 12 0v-32.548a14.494 14.494 0 0 1 14.451-14.452h417.5a14.091 14.091 0 0 1 14.049 14.05v149.5a14.491 14.491 0 0 1 -14.449 14.45h-92.551v-51h15.713c14.362 0 26.419-11.418 26.536-25.78a26.089 26.089 0 0 0 -26.4-26.22h-263.562c-14.362 0-26.419 11.418-26.536 25.78a26.089 26.089 0 0 0 26.4 26.22h15.849v51h-92.95a14.091 14.091 0 0 1 -14.05-14.05v-74.95a6 6 0 0 0 -12 0v74.551a26.527 26.527 0 0 0 26.449 26.449h92.551v70.052a6.235 6.235 0 0 0 2.045 4.3l39.291 38.37a8 8 0 0 0 5.589 2.278h166.621a18.509 18.509 0 0 0 18.454-18.454v-96.546h92.95a26.127 26.127 0 0 0 26.05-26.05v-149.5a26.529 26.529 0 0 0 -26.451-26.45zm-89.549-46h23.788a14.362 14.362 0 0 1 14.212 14.19v7.81h-38zm-226-60.81a6.356 6.356 0 0 1 6.212-6.19h201.576a6.356 6.356 0 0 1 6.212 6.19v82.81h-214zm-50 74c0-7.411 6.23-13.19 14.212-13.19h23.788v22h-38zm-36.812 32.81c2.584-6.607 9.146-12 16.834-12h353.956c7.688 0 14.25 5.393 16.834 12zm309.812 99h15.846a14.006 14.006 0 1 1 0 28h-15.846zm-232 28h-15.846a14.006 14.006 0 1 1 0-28h15.846zm40 169.606-18.909-18.606h18.909zm180 2.2a6.576 6.576 0 0 1 -6.454 6.19h-161.546v-27.084a11.667 11.667 0 0 0 -11.678-11.912h-28.322v-167h208z"/></g></svg>