<svg id="Layer_1" height="512" viewBox="0 0 512 512" width="512" xmlns="http://www.w3.org/2000/svg" xmlns:xlink="http://www.w3.org/1999/xlink" data-name="Layer 1"><linearGradient id="linear-gradient" gradientUnits="userSpaceOnUse" x1="112" x2="112" y1="484" y2="75.569"><stop offset=".322" stop-color="#a163f5"/><stop offset=".466" stop-color="#b074ee"/><stop offset=".752" stop-color="#d8a1dd"/><stop offset=".898" stop-color="#efbad3"/></linearGradient><linearGradient id="linear-gradient-3" x1="256" x2="256" xlink:href="#linear-gradient" y1="484" y2="75.569"/><path d="m112 367.891a6 6 0 0 0 6-6v-4.778a6 6 0 0 0 -12 0v4.778a6 6 0 0 0 6 6z" fill="url(#linear-gradient)"/><path d="m106 437.891a6 6 0 1 0 12 0v-54.178a6 6 0 0 0 -12 0z" fill="url(#linear-gradient)"/><path d="m364.546 280.231a71.729 71.729 0 0 1 -58.541-67.642 81.1 81.1 0 0 0 31-63.818v-44.7a81 81 0 1 0 -162 0v44.7a81.1 81.1 0 0 0 31 63.818 71.729 71.729 0 0 1 -58.541 67.642 83.271 83.271 0 0 0 -68.464 82.039v12.73a6 6 0 0 0 12 0v-12.73c0-34.373 24.441-64.156 58.283-70.175a83.57 83.57 0 0 0 68.133-71.945 80.906 80.906 0 0 0 77.168 0 83.569 83.569 0 0 0 68.133 71.95c33.842 6.014 58.283 35.8 58.283 70.17v82.919l-22.941 7.981a433.6 433.6 0 0 1 -284.138 0l-22.921-7.981v-28.189a6 6 0 0 0 -12 0v32.46a5.927 5.927 0 0 0 3.955 5.669l27.017 9.379a445.918 445.918 0 0 0 292.106 0l26.972-9.379a5.923 5.923 0 0 0 3.95-5.669v-87.19a83.271 83.271 0 0 0 -68.454-82.039zm-108.546-62.288a69.1 69.1 0 0 1 -69-69.172v-44.7a69 69 0 1 1 138 0v44.7a69.1 69.1 0 0 1 -69 69.172z" fill="url(#linear-gradient-3)"/></svg>