<svg id="Layer_1" height="512" viewBox="0 0 512 512" width="512" xmlns="http://www.w3.org/2000/svg" xmlns:xlink="http://www.w3.org/1999/xlink" data-name="Layer 1"><linearGradient id="linear-gradient" gradientUnits="userSpaceOnUse" x1="256" x2="256" y1="484" y2="73.512"><stop offset=".322" stop-color="#a163f5"/><stop offset=".466" stop-color="#b074ee"/><stop offset=".752" stop-color="#d8a1dd"/><stop offset=".898" stop-color="#efbad3"/></linearGradient><linearGradient id="linear-gradient-2" x1="226.208" x2="226.208" xlink:href="#linear-gradient" y1="484" y2="73.512"/><linearGradient id="linear-gradient-3" x1="222.173" x2="222.173" xlink:href="#linear-gradient" y1="484" y2="73.512"/><linearGradient id="linear-gradient-4" x1="85.003" x2="85.003" xlink:href="#linear-gradient" y1="484" y2="73.512"/><linearGradient id="linear-gradient-7" x1="387.949" x2="387.949" xlink:href="#linear-gradient" y1="484" y2="73.512"/><linearGradient id="linear-gradient-8" x1="446.393" x2="446.393" xlink:href="#linear-gradient" y1="484" y2="73.512"/><path d="m256 294.158a77 77 0 1 0 -77-77 77.087 77.087 0 0 0 77 77zm0-142a65 65 0 1 1 -65 65 65.073 65.073 0 0 1 65-65z" fill="url(#linear-gradient)"/><path d="m224.711 191.961a5.983 5.983 0 0 0 4.25-1.764c.821-.824 1.692-1.621 2.587-2.368a6 6 0 1 0 -7.688-9.214c-1.176.981-2.319 2.028-3.4 3.111a6 6 0 0 0 4.249 10.235z" fill="url(#linear-gradient-2)"/><path d="m229.338 259.679a6 6 0 0 0 6.383-10.161 38.239 38.239 0 0 1 -15.712-45.148 6 6 0 0 0 -11.308-4.018 50.241 50.241 0 0 0 20.637 59.327z" fill="url(#linear-gradient-3)"/><g fill="url(#linear-gradient-4)"><path d="m117.177 251h-64.348a6 6 0 0 0 0 12h64.348a6 6 0 1 0 0-12z"/><path d="m117.177 288h-64.348a6 6 0 0 0 0 12h64.348a6 6 0 1 0 0-12z"/><path d="m117.177 326h-64.348a6 6 0 0 0 0 12h64.348a6 6 0 1 0 0-12z"/></g><path d="m387.949 252.027a18.778 18.778 0 1 0 18.778 18.778 18.8 18.8 0 0 0 -18.778-18.778zm0 25.556a6.778 6.778 0 1 1 6.778-6.778 6.786 6.786 0 0 1 -6.778 6.778z" fill="url(#linear-gradient-7)"/><path d="m446.393 252.027a18.778 18.778 0 1 0 18.778 18.778 18.8 18.8 0 0 0 -18.778-18.778zm0 25.556a6.778 6.778 0 1 1 6.778-6.778 6.785 6.785 0 0 1 -6.778 6.778z" fill="url(#linear-gradient-8)"/><path d="m473.843 211h-2.843v-18.026a25.974 25.974 0 0 0 -25.974-25.974h-95.29a106.294 106.294 0 0 0 -187.472 0h-94.864a26.475 26.475 0 0 0 -26.4 26.4v17.6h-3a26 26 0 0 0 -26 26v115.492a25.508 25.508 0 0 0 25.508 25.508h3.492v17.174a5.826 5.826 0 0 0 5.826 5.826h112.592a5.582 5.582 0 0 0 5.582-5.582v-17.418h182v17.174a5.826 5.826 0 0 0 5.826 5.826h111.891a6.3 6.3 0 0 0 6.283-6.283v-16.717h3a26 26 0 0 0 26-26v-114.843a26.234 26.234 0 0 0 -26.157-26.157zm-29.243-32a14.44 14.44 0 0 1 14.4 14.4v17.6h-96.851a105.589 105.589 0 0 0 -6.9-32zm-188.6-56.174a94.332 94.332 0 1 1 -94.332 94.332 94.439 94.439 0 0 1 94.332-94.332zm-103 266.174h-100v-11h100zm306 0h-100v-11h100zm29-36.508a13.508 13.508 0 0 1 -13.508 13.508h-436.984a13.508 13.508 0 0 1 -13.508-13.508v-115.335a14.2 14.2 0 0 1 14.157-14.157h50.843a6 6 0 0 0 0-12h-36v-18.026a13.974 13.974 0 0 1 13.974-13.974h89.779a105.589 105.589 0 0 0 -6.9 32h-18.853a6 6 0 0 0 0 12h18.831a106.329 106.329 0 0 0 212.338 0h111.831a14.041 14.041 0 0 1 14 14z" fill="url(#linear-gradient)"/></svg>