<svg id="Layer_1" height="512" viewBox="0 0 512 512" width="512" xmlns="http://www.w3.org/2000/svg" xmlns:xlink="http://www.w3.org/1999/xlink" data-name="Layer 1"><linearGradient id="linear-gradient" gradientUnits="userSpaceOnUse" x1="256" x2="256" y1="484" y2="75.569"><stop offset=".322" stop-color="#a163f5"/><stop offset=".466" stop-color="#b074ee"/><stop offset=".752" stop-color="#d8a1dd"/><stop offset=".898" stop-color="#efbad3"/></linearGradient><linearGradient id="linear-gradient-3" x1="188.5" x2="188.5" xlink:href="#linear-gradient" y1="484" y2="75.569"/><linearGradient id="linear-gradient-4" x1="360.286" x2="360.286" xlink:href="#linear-gradient" y1="484" y2="75.569"/><linearGradient id="linear-gradient-6" x1="435" x2="435" xlink:href="#linear-gradient" y1="484" y2="75.569"/><linearGradient id="linear-gradient-8" x1="256.5" x2="256.5" xlink:href="#linear-gradient" y1="484" y2="75.569"/><path d="m445.836 142h-213.482a30.7 30.7 0 0 0 -29.683-24h-18.344l183.59-57.447a20.589 20.589 0 1 0 -3.273-11.472l-220.272 68.944.018-.025h-23.348a30.7 30.7 0 0 0 -29.683 24h-25.195a36.164 36.164 0 0 0 -36.164 36.164v268.672a36.164 36.164 0 0 0 36.164 36.164h379.672a36.164 36.164 0 0 0 36.164-36.164v-268.672a36.164 36.164 0 0 0 -36.164-36.164zm-60.557-101.169a8.656 8.656 0 1 1 -8.656 8.656 8.666 8.666 0 0 1 8.656-8.656zm-264.237 89.169h81.629a18.274 18.274 0 0 1 17.27 12h-116.169a18.275 18.275 0 0 1 17.27-12zm348.958 316.836a24.164 24.164 0 0 1 -24.164 24.164h-379.672a24.164 24.164 0 0 1 -24.164-24.164v-268.672a24.164 24.164 0 0 1 24.164-24.164h379.672a24.164 24.164 0 0 1 24.164 24.164z" fill="url(#linear-gradient)"/><path d="m399.118 199h-286.236a28.5 28.5 0 0 0 0 57h286.236a28.5 28.5 0 0 0 0-57zm0 45h-286.236a16.5 16.5 0 0 1 0-33h2.118v19.158a6 6 0 1 0 12 0v-19.158h18v19.158a6 6 0 1 0 12 0v-19.158h18v19.158a6 6 0 1 0 12 0v-19.158h18v19.158a6 6 0 1 0 12 0v-19.158h18v19.158a6 6 0 1 0 12 0v-19.158h18v19.158a6 6 0 1 0 12 0v-19.158h18v19.158a6 6 0 1 0 12 0v-19.158h18v19.158a6 6 0 1 0 12 0v-19.158h18v19.158a6 6 0 1 0 12 0v-19.158h18v19.158a6 6 0 1 0 12 0v-19.158h2.118a16.5 16.5 0 0 1 0 33z" fill="url(#linear-gradient)"/><path d="m109 283a18 18 0 0 0 -18 18v107a18 18 0 0 0 18 18h159a18 18 0 0 0 18-18v-107a18 18 0 0 0 -18-18zm165 125.414a5.494 5.494 0 0 1 -5.8 5.586h-159.486a5.426 5.426 0 0 1 -5.714-5.586v-3.414h171zm0-15.414h-171v-10h171zm0-22h-171v-10h171zm0-22h-171v-10h171zm0-22h-171v-10h171zm0-25.921v3.921h-171v-3.921a5.837 5.837 0 0 1 5.714-6.079h159.486a5.9 5.9 0 0 1 5.8 6.079z" fill="url(#linear-gradient-3)"/><path d="m360.286 314.246a40.5 40.5 0 1 0 40.5 40.5 40.546 40.546 0 0 0 -40.5-40.5zm0 69a28.5 28.5 0 1 1 15.447-52.432l-19.689 19.686a6 6 0 1 0 8.484 8.486l19.69-19.69a28.478 28.478 0 0 1 -23.932 43.947z" fill="url(#linear-gradient-4)"/><path d="m360.286 293.746a61 61 0 1 0 61 61 61.068 61.068 0 0 0 -61-61zm0 110a49 49 0 1 1 49-49 49.056 49.056 0 0 1 -49 49z" fill="url(#linear-gradient-4)"/><path d="m435 241.891a6 6 0 0 0 6-6v-4.778a6 6 0 0 0 -12 0v4.778a6 6 0 0 0 6 6z" fill="url(#linear-gradient-6)"/><path d="m429 321.891a6 6 0 1 0 12 0v-64.178a6 6 0 1 0 -12 0z" fill="url(#linear-gradient-6)"/><path d="m446.459 165h-379.918a13.54 13.54 0 0 0 -13.541 13.541v56.459a6 6 0 0 0 12 0v-56.459a1.54 1.54 0 0 1 1.541-1.541h379.918a1.54 1.54 0 0 1 1.541 1.541v267.918a1.54 1.54 0 0 1 -1.541 1.541h-379.918a1.54 1.54 0 0 1 -1.541-1.541v-169.459a6 6 0 0 0 -12 0v169.459a13.541 13.541 0 0 0 13.541 13.541h379.918a13.541 13.541 0 0 0 13.541-13.541v-267.918a13.54 13.54 0 0 0 -13.541-13.541z" fill="url(#linear-gradient-8)"/></svg>