<svg id="Layer_1" height="512" viewBox="0 0 512 512" width="512" xmlns="http://www.w3.org/2000/svg" xmlns:xlink="http://www.w3.org/1999/xlink" data-name="Layer 1"><linearGradient id="linear-gradient" gradientUnits="userSpaceOnUse" x1="256" x2="256" y1="480" y2="45.982"><stop offset=".322" stop-color="#a163f5"/><stop offset=".466" stop-color="#b074ee"/><stop offset=".752" stop-color="#d8a1dd"/><stop offset=".898" stop-color="#efbad3"/></linearGradient><linearGradient id="linear-gradient-2" x1="106.377" x2="106.377" xlink:href="#linear-gradient" y1="480" y2="45.982"/><linearGradient id="linear-gradient-3" x1="167.338" x2="167.338" xlink:href="#linear-gradient" y1="480" y2="45.982"/><path d="m256 343.016a87.016 87.016 0 1 0 -87.016-87.016 87.116 87.116 0 0 0 87.016 87.016zm0-162.032a75.016 75.016 0 1 1 -75.016 75.016 75.1 75.1 0 0 1 75.016-75.016z" fill="url(#linear-gradient)"/><path d="m69.377 197.136a6 6 0 0 0 5.667-4.032 193.246 193.246 0 0 1 71.756-94.466 6 6 0 0 0 -6.85-9.854 205.334 205.334 0 0 0 -76.24 100.38 6 6 0 0 0 5.667 7.972z" fill="url(#linear-gradient-2)"/><path d="m168.8 72.054c-2.809 1.334-5.61 2.744-8.324 4.189a6 6 0 1 0 5.64 10.592c2.554-1.36 5.19-2.687 7.834-3.943a6 6 0 1 0 -5.15-10.838z" fill="url(#linear-gradient-3)"/><path d="m256 20a236.193 236.193 0 0 0 -230.211 183.724 5.99 5.99 0 0 0 5.863 7.276h.007a5.976 5.976 0 0 0 5.839-4.646 224.06 224.06 0 0 1 376.894-108.746 224 224 0 0 1 -316.784 316.784 222.535 222.535 0 0 1 -65.608-158.392q0-4.389.176-8.749a6 6 0 1 0 -11.988-.5q-.188 4.61-.188 9.249a236 236 0 0 0 402.877 166.877 236 236 0 0 0 -166.877-402.877z" fill="url(#linear-gradient)"/></svg>