<svg id="Layer_1" height="512" viewBox="0 0 512 512" width="512" xmlns="http://www.w3.org/2000/svg" xmlns:xlink="http://www.w3.org/1999/xlink" data-name="Layer 1"><linearGradient id="linear-gradient" gradientUnits="userSpaceOnUse" x1="205" x2="205" y1="470" y2="82.862"><stop offset=".322" stop-color="#a163f5"/><stop offset=".466" stop-color="#b074ee"/><stop offset=".752" stop-color="#d8a1dd"/><stop offset=".898" stop-color="#efbad3"/></linearGradient><linearGradient id="linear-gradient-3" x1="298" x2="298" xlink:href="#linear-gradient" y1="470" y2="82.862"/><linearGradient id="linear-gradient-5" x1="392" x2="392" xlink:href="#linear-gradient" y1="470" y2="82.862"/><linearGradient id="linear-gradient-7" x1="120" x2="120" xlink:href="#linear-gradient" y1="470" y2="82.862"/><linearGradient id="linear-gradient-9" x1="255" x2="255" xlink:href="#linear-gradient" y1="470" y2="82.862"/><linearGradient id="linear-gradient-10" x1="116" x2="116" xlink:href="#linear-gradient" y1="470" y2="82.862"/><linearGradient id="linear-gradient-12" x1="256" x2="256" xlink:href="#linear-gradient" y1="470" y2="82.862"/><path d="m231 144a6 6 0 0 0 6-6v-44a6 6 0 0 0 -6-6h-52a6 6 0 0 0 -6 6v44a6 6 0 0 0 6 6zm-46-44h39v32h-39z" fill="url(#linear-gradient)"/><path d="m179 367a6 6 0 0 0 -6 6v45a6 6 0 0 0 6 6h52a6 6 0 0 0 6-6v-45a6 6 0 0 0 -6-6zm45 45h-39v-33h39z" fill="url(#linear-gradient)"/><path d="m324 144a6 6 0 0 0 6-6v-44a6 6 0 0 0 -6-6h-52a6 6 0 0 0 -6 6v44a6 6 0 0 0 6 6zm-46-44h40v32h-40z" fill="url(#linear-gradient-3)"/><path d="m272 367a6 6 0 0 0 -6 6v45a6 6 0 0 0 6 6h52a6 6 0 0 0 6-6v-45a6 6 0 0 0 -6-6zm46 45h-40v-33h40z" fill="url(#linear-gradient-3)"/><path d="m418 144a6 6 0 0 0 6-6v-44a6 6 0 0 0 -6-6h-52a6 6 0 0 0 -6 6v44a6 6 0 0 0 6 6zm-46-44h40v32h-40z" fill="url(#linear-gradient-5)"/><path d="m418 367h-52a6 6 0 0 0 -6 6v45a6 6 0 0 0 6 6h52a6 6 0 0 0 6-6v-45a6 6 0 0 0 -6-6zm-6 45h-40v-33h40z" fill="url(#linear-gradient-5)"/><path d="m146 88h-52a6 6 0 0 0 -6 6v44a6 6 0 0 0 6 6h52a6 6 0 0 0 6-6v-44a6 6 0 0 0 -6-6zm-6 44h-40v-32h40z" fill="url(#linear-gradient-7)"/><path d="m94 367a6 6 0 0 0 -6 6v45a6 6 0 0 0 6 6h52a6 6 0 0 0 6-6v-45a6 6 0 0 0 -6-6zm46 45h-40v-33h40z" fill="url(#linear-gradient-7)"/><path d="m86 166v178a6 6 0 0 0 6 6h326a6 6 0 0 0 6-6v-178a6 6 0 0 0 -6-6h-326a6 6 0 0 0 -6 6zm12 6h314v167h-314z" fill="url(#linear-gradient-9)"/><path d="m116 179.891a6 6 0 0 0 -6 6v5.18a6 6 0 1 0 12 0v-5.18a6 6 0 0 0 -6-6z" fill="url(#linear-gradient-10)"/><path d="m116 208.736a6 6 0 0 0 -6 6v56.34a6 6 0 0 0 12 0v-56.34a6 6 0 0 0 -6-6z" fill="url(#linear-gradient-10)"/><path d="m446 60h-309a6 6 0 0 0 0 12h309a14 14 0 0 1 14 14v340a14 14 0 0 1 -14 14h-380a14 14 0 0 1 -14-14v-340a14 14 0 0 1 14-14h29a6 6 0 0 0 0-12h-29a26 26 0 0 0 -26 26v340a26 26 0 0 0 26 26h380a26 26 0 0 0 26-26v-340a26 26 0 0 0 -26-26z" fill="url(#linear-gradient-12)"/></svg>