<svg id="Layer_1" height="512" viewBox="0 0 512 512" width="512" xmlns="http://www.w3.org/2000/svg" xmlns:xlink="http://www.w3.org/1999/xlink" data-name="Layer 1"><linearGradient id="linear-gradient" gradientUnits="userSpaceOnUse" x1="140" x2="140" y1="471.703" y2="83.981"><stop offset=".322" stop-color="#a163f5"/><stop offset=".466" stop-color="#b074ee"/><stop offset=".752" stop-color="#d8a1dd"/><stop offset=".898" stop-color="#efbad3"/></linearGradient><linearGradient id="linear-gradient-4" x1="56.706" x2="56.706" xlink:href="#linear-gradient" y1="471.703" y2="83.981"/><linearGradient id="linear-gradient-5" x1="450" x2="450" xlink:href="#linear-gradient" y1="471.703" y2="83.981"/><linearGradient id="linear-gradient-6" x1="96.854" x2="96.854" xlink:href="#linear-gradient" y1="471.703" y2="83.981"/><linearGradient id="linear-gradient-7" x1="137" x2="137" xlink:href="#linear-gradient" y1="471.703" y2="83.981"/><linearGradient id="linear-gradient-8" x1="420" x2="420" xlink:href="#linear-gradient" y1="471.703" y2="83.981"/><linearGradient id="linear-gradient-9" x1="390" x2="390" xlink:href="#linear-gradient" y1="471.703" y2="83.981"/><linearGradient id="linear-gradient-10" x1="360" x2="360" xlink:href="#linear-gradient" y1="471.703" y2="83.981"/><linearGradient id="linear-gradient-11" x1="256" x2="256" xlink:href="#linear-gradient" y1="471.703" y2="83.981"/><linearGradient id="linear-gradient-12" x1="40.998" x2="40.998" xlink:href="#linear-gradient" y1="471.703" y2="83.981"/><linearGradient id="linear-gradient-13" x1="100.422" x2="100.422" xlink:href="#linear-gradient" y1="471.703" y2="83.981"/><g fill="url(#linear-gradient)"><path d="m113.8 128.343a6 6 0 1 0 8.472 8.5 25.152 25.152 0 0 1 35.458 0 6 6 0 0 0 8.472-8.5 37.171 37.171 0 0 0 -52.402 0z"/><path d="m183.985 116.571a6 6 0 0 0 4.24-10.246 68.362 68.362 0 0 0 -96.45 0 6 6 0 0 0 8.479 8.492 56.344 56.344 0 0 1 79.492 0 5.979 5.979 0 0 0 4.239 1.754z"/><path d="m78.24 92.8a87.5 87.5 0 0 1 123.52 0 6 6 0 0 0 8.48-8.489 99.508 99.508 0 0 0 -140.48 0 6 6 0 0 0 8.48 8.489z"/></g><path d="m56.706 338.068a17.5 17.5 0 1 0 17.5 17.5 17.519 17.519 0 0 0 -17.5-17.5zm0 23a5.5 5.5 0 1 1 5.5-5.5 5.5 5.5 0 0 1 -5.5 5.498z" fill="url(#linear-gradient-4)"/><path d="m450 336.382a6 6 0 0 0 -6 6v26.371a6 6 0 0 0 12 0v-26.371a6 6 0 0 0 -6-6z" fill="url(#linear-gradient-5)"/><path d="m96.854 338.068a17.5 17.5 0 1 0 17.5 17.5 17.519 17.519 0 0 0 -17.5-17.5zm0 23a5.5 5.5 0 1 1 5.5-5.5 5.505 5.505 0 0 1 -5.5 5.498z" fill="url(#linear-gradient-6)"/><path d="m137 338.068a17.5 17.5 0 1 0 17.5 17.5 17.52 17.52 0 0 0 -17.5-17.5zm0 23a5.5 5.5 0 1 1 5.5-5.5 5.506 5.506 0 0 1 -5.5 5.498z" fill="url(#linear-gradient-7)"/><path d="m420 336.382a6 6 0 0 0 -6 6v26.371a6 6 0 0 0 12 0v-26.371a6 6 0 0 0 -6-6z" fill="url(#linear-gradient-8)"/><path d="m390 336.382a6 6 0 0 0 -6 6v26.371a6 6 0 0 0 12 0v-26.371a6 6 0 0 0 -6-6z" fill="url(#linear-gradient-9)"/><path d="m360 336.382a6 6 0 0 0 -6 6v26.371a6 6 0 0 0 12 0v-26.371a6 6 0 0 0 -6-6z" fill="url(#linear-gradient-10)"/><path d="m474 287h-246v-3.859a26.274 26.274 0 0 0 -26.145-26.141h-55.855v-103.069a6 6 0 0 0 -12 0v103.069h-55.855a26.274 26.274 0 0 0 -26.145 26.141v3.859h-14a25.84 25.84 0 0 0 -26 25.778v85.577a25.728 25.728 0 0 0 26 25.645h6v26.764a6.55 6.55 0 0 0 6.39 6.236h121.548a6.26 6.26 0 0 0 6.062-6.236v-26.764h156v26.764a6.26 6.26 0 0 0 6.062 6.236h121.548a6.55 6.55 0 0 0 6.39-6.236v-26.764h6a25.728 25.728 0 0 0 26-25.645v-85.577a25.84 25.84 0 0 0 -26-25.778zm-308 158h-110v-21h110zm290 0h-110v-21h110zm32-46a14 14 0 0 1 -14 14h-436a14 14 0 0 1 -14-14v-86a14 14 0 0 1 14-14h47a6 6 0 0 0 0-12h-21v-3.859a14.182 14.182 0 0 1 14.141-14.141h123.718a14.182 14.182 0 0 1 14.141 14.141v3.859h-89a6 6 0 0 0 0 12h347a14 14 0 0 1 14 14z" fill="url(#linear-gradient-11)"/><path d="m49.588 319.013a6 6 0 0 0 -6-6h-5.181a6 6 0 1 0 0 12h5.181a6 6 0 0 0 6-6z" fill="url(#linear-gradient-12)"/><path d="m67.252 325.013h66.341a6 6 0 1 0 0-12h-66.341a6 6 0 1 0 0 12z" fill="url(#linear-gradient-13)"/></svg>