<?xml version="1.0" encoding="UTF-8"?>
<svg xmlns="http://www.w3.org/2000/svg" xmlns:xlink="http://www.w3.org/1999/xlink" id="Layer_1" data-name="Layer 1" viewBox="0 0 512 512" width="512" height="512"><defs><linearGradient id="linear-gradient" x1="219" y1="484" x2="219" y2="73.512" gradientUnits="userSpaceOnUse"><stop offset="0.322" stop-color="#a163f5"/><stop offset="0.466" stop-color="#b074ee"/><stop offset="0.752" stop-color="#d8a1dd"/><stop offset="0.898" stop-color="#efbad3"/></linearGradient><linearGradient id="linear-gradient-3" x1="256" y1="484" x2="256" y2="73.512" xlink:href="#linear-gradient"/></defs><path d="M219,123.891a6,6,0,0,0,6-6v-4.778a6,6,0,0,0-12,0v4.778A6,6,0,0,0,219,123.891Z" style="fill:url(#linear-gradient)"/><path d="M219,239.891a6,6,0,0,0,6-6V139.713a6,6,0,1,0-12,0v94.178A6,6,0,0,0,219,239.891Z" style="fill:url(#linear-gradient)"/><path d="M396.609,404H203.255l.231-300.995a6,6,0,0,0-12-.01l-.236,307.436a5.575,5.575,0,0,0,1.908,4.177A5.371,5.371,0,0,0,196.869,416H391v7H183V26h8.546L191.52,61a6,6,0,0,0,12,.01l.031-41.026a5.712,5.712,0,0,0-1.741-4.107A7.657,7.657,0,0,0,197.094,14H115.1a6.118,6.118,0,0,0-6.1,6.1V492.5a6.519,6.519,0,0,0,6.5,6.5H396.559A6.46,6.46,0,0,0,403,492.559V410.391A6.41,6.41,0,0,0,396.609,404ZM391,487H369v-8.463a6,6,0,0,0-12,0V487H340V474.329a6,6,0,1,0-12,0V487H311v-8.463a6,6,0,0,0-12,0V487H282V474.329a6,6,0,1,0-12,0V487H253v-8.463a6,6,0,0,0-12,0V487H224V474.329a6,6,0,1,0-12,0V487H195v-8.463a6,6,0,0,0-12,0V487H166V474.329a6,6,0,1,0-12,0V487H121V464h12.612a6,6,0,0,0,0-12H121V435h8.4a6,6,0,0,0,0-12H121V406h12.612a6,6,0,0,0,0-12H121V377h8.4a6,6,0,0,0,0-12H121V348h12.612a6,6,0,0,0,0-12H121V319h8.4a6,6,0,0,0,0-12H121V290h12.612a6,6,0,0,0,0-12H121V261h8.4a6,6,0,0,0,0-12H121V232h12.612a6,6,0,0,0,0-12H121V203h8.4a6,6,0,0,0,0-12H121V174h12.612a6,6,0,0,0,0-12H121V145h8.4a6,6,0,0,0,0-12H121V116h12.612a6,6,0,0,0,0-12H121V87h8.4a6,6,0,0,0,0-12H121V58h12.612a6,6,0,0,0,0-12H121V26h50V429.371A5.34,5.34,0,0,0,176.57,435H391Z" style="fill:url(#linear-gradient-3)"/></svg>
