<svg id="Layer_1" height="512" viewBox="0 0 512 512" width="512" xmlns="http://www.w3.org/2000/svg" xmlns:xlink="http://www.w3.org/1999/xlink" data-name="Layer 1"><linearGradient id="linear-gradient" gradientUnits="userSpaceOnUse" x1="294.726" x2="294.726" y1="484" y2="75.569"><stop offset=".322" stop-color="#a163f5"/><stop offset=".466" stop-color="#b074ee"/><stop offset=".752" stop-color="#d8a1dd"/><stop offset=".898" stop-color="#efbad3"/></linearGradient><linearGradient id="linear-gradient-2" x1="256" x2="256" xlink:href="#linear-gradient" y1="484" y2="75.569"/><linearGradient id="linear-gradient-4" x1="107" x2="107" xlink:href="#linear-gradient" y1="484" y2="75.569"/><linearGradient id="linear-gradient-6" x1="249" x2="249" xlink:href="#linear-gradient" y1="484" y2="75.569"/><path d="m336.346 262h59.567a20 20 0 1 0 0-40h-59.568a82.744 82.744 0 1 0 0 40zm26.654-28h32.913a8.009 8.009 0 1 1 0 16h-32.913zm-12 0v16h-54.866a37.385 37.385 0 0 0 0-16zm-165.85 7.946a70.837 70.837 0 0 1 138.75-19.946h-32.351c-7.085-13-20.361-20.777-35.549-20.777a40.827 40.827 0 1 0 0 81.653 39.865 39.865 0 0 0 35.549-20.876h32.351a70.837 70.837 0 0 1 -138.75-20.054zm99.85.112a29 29 0 1 1 -29-29 29.034 29.034 0 0 1 29 29z" fill="url(#linear-gradient)"/><path d="m238 242.058a18 18 0 1 0 18-18 18.021 18.021 0 0 0 -18 18zm24 0a6 6 0 1 1 -6-6 6.007 6.007 0 0 1 6 6z" fill="url(#linear-gradient-2)"/><path d="m462 70h-412a29.914 29.914 0 0 0 -30 29.859v284.4a30.248 30.248 0 0 0 29 29.967v21.918a5.638 5.638 0 0 0 5.707 5.856h402.586a5.638 5.638 0 0 0 5.707-5.859v-21.918a30.248 30.248 0 0 0 29-29.967v-284.397a29.914 29.914 0 0 0 -30-29.859zm-11 360h-390v-16h390zm29-46a18 18 0 0 1 -18 18h-412a18 18 0 0 1 -18-18v-284a18 18 0 0 1 18-18h412a18 18 0 0 1 18 18z" fill="url(#linear-gradient-2)"/><path d="m107 148.891a6 6 0 0 0 6-6v-4.778a6 6 0 0 0 -12 0v4.778a6 6 0 0 0 6 6z" fill="url(#linear-gradient-4)"/><path d="m107 246.891a6 6 0 0 0 6-6v-76.178a6 6 0 1 0 -12 0v76.178a6 6 0 0 0 6 6z" fill="url(#linear-gradient-4)"/><path d="m447.391 109h-316.391a6 6 0 0 0 0 12h310v243h-366v-17.856a17.877 17.877 0 0 0 16-17.913v-52.7a17.877 17.877 0 0 0 -16-17.913v-31.118a17.877 17.877 0 0 0 16-17.913v-52.7a17.877 17.877 0 0 0 -16-17.913v-16.974h14a6 6 0 0 0 0-12h-20.25a5.75 5.75 0 0 0 -5.75 5.75v23.15a18.161 18.161 0 0 0 -18 17.981v52.7a18.163 18.163 0 0 0 18 17.982v30.987a18.161 18.161 0 0 0 -18 17.981v52.7a18.163 18.163 0 0 0 18 17.982v23.293a6.513 6.513 0 0 0 6.494 6.494h377.756a5.75 5.75 0 0 0 5.75-5.75v-255.641a5.609 5.609 0 0 0 -5.609-5.609zm-390.391 100v-53a6 6 0 0 1 6-6h10a6 6 0 0 1 6 6v53a6 6 0 0 1 -6 6h-10a6 6 0 0 1 -6-6zm6 126a6 6 0 0 1 -6-6v-53a6 6 0 0 1 6-6h10a6 6 0 0 1 6 6v53a6 6 0 0 1 -6 6z" fill="url(#linear-gradient-6)"/></svg>