<svg id="Layer_1" height="512" viewBox="0 0 512 512" width="512" xmlns="http://www.w3.org/2000/svg" xmlns:xlink="http://www.w3.org/1999/xlink" data-name="Layer 1"><linearGradient id="linear-gradient" gradientUnits="userSpaceOnUse" x1="174" x2="174" y1="470" y2="82.862"><stop offset=".322" stop-color="#a163f5"/><stop offset=".466" stop-color="#b074ee"/><stop offset=".752" stop-color="#d8a1dd"/><stop offset=".898" stop-color="#efbad3"/></linearGradient><linearGradient id="linear-gradient-3" x1="256" x2="256" xlink:href="#linear-gradient" y1="470" y2="82.862"/><path d="m174 85.891a6 6 0 0 0 -6 6v5.18a6 6 0 1 0 12 0v-5.18a6 6 0 0 0 -6-6z" fill="url(#linear-gradient)"/><path d="m174 114.736a6 6 0 0 0 -6 6v46.34a6 6 0 1 0 12 0v-46.34a6 6 0 0 0 -6-6z" fill="url(#linear-gradient)"/><path d="m449.281 54.858a25 25 0 0 0 -24.811-24.858h-235.47a6 6 0 0 0 0 12h234.908a13.258 13.258 0 0 1 13.245 11.173 13 13 0 0 1 -12.683 14.827h-336.377a13.262 13.262 0 0 1 -13.247-11.175 13 13 0 0 1 12.684-14.825h59.47a6 6 0 0 0 0-12h-58.708c-13.83 0-25.652 11.313-25.573 25.143a25 25 0 0 0 24.811 24.857h.47v352.008c-13.7.159-25.358 11.4-25.281 25.134a25 25 0 0 0 24.811 24.858h336.94a25 25 0 0 0 24.811-24.858c.077-13.731-11.578-24.975-25.281-25.134v-352.016c13.7-.159 25.358-11.403 25.281-25.134zm-50.281 25.142h13v352h-13zm-31 0h19v352h-19v-69.622a112.027 112.027 0 0 0 -77.329-106.378 112.027 112.027 0 0 0 77.329-106.378zm-40.587 308.856-63.5-63.41a11.213 11.213 0 0 0 -15.819.07l-63.5 63.328a69.621 69.621 0 0 0 -20.158 43.156h-8.436v-69.622c0-55.048 44.952-99.832 100-99.832s100 44.784 100 99.832v69.622h-8.437a69.586 69.586 0 0 0 -20.15-43.144zm8.11 43.144h-159.046a57.205 57.205 0 0 1 16.594-34.66l62.929-62.833 62.929 62.786a57.327 57.327 0 0 1 16.594 34.707zm-179.523-352h200v69.622c0 55.048-44.952 99.832-100 99.832s-100-44.784-100-99.832zm-31 0h19v69.622a112.027 112.027 0 0 0 77.33 106.378 112.027 112.027 0 0 0 -77.33 106.378v69.622h-19zm-25 0h13v352h-13zm324.47 364a13 13 0 0 1 0 26h-336.94a13 13 0 0 1 0-26z" fill="url(#linear-gradient-3)"/></svg>