<svg id="Layer_1" height="512" viewBox="0 0 512 512" width="512" xmlns="http://www.w3.org/2000/svg" xmlns:xlink="http://www.w3.org/1999/xlink" data-name="Layer 1"><linearGradient id="linear-gradient" gradientUnits="userSpaceOnUse" x1="256.027" x2="256.027" y1="484" y2="75.569"><stop offset=".322" stop-color="#a163f5"/><stop offset=".466" stop-color="#b074ee"/><stop offset=".752" stop-color="#d8a1dd"/><stop offset=".898" stop-color="#efbad3"/></linearGradient><linearGradient id="linear-gradient-2" x1="114.622" x2="114.622" xlink:href="#linear-gradient" y1="484" y2="75.569"/><linearGradient id="linear-gradient-3" x1="125.283" x2="125.283" xlink:href="#linear-gradient" y1="484" y2="75.569"/><linearGradient id="linear-gradient-4" x1="201.115" x2="201.115" xlink:href="#linear-gradient" y1="484" y2="75.569"/><path d="m351.686 300.575a6 6 0 0 0 -8.485 0l-7.761 7.76-14.975-14.974c45.82-59.179 41.588-144.851-12.7-199.135-58.865-58.874-154.665-58.874-213.539 0s-58.874 154.669 0 213.543a151.237 151.237 0 0 0 199.135 12.7l14.974 14.975-7.76 7.761a6 6 0 0 0 0 8.485l99.725 99.725a36.142 36.142 0 1 0 51.115-51.115zm-248.975-1.291c-54.195-54.2-54.195-142.377 0-196.573a139.157 139.157 0 0 1 196.573 0c54.195 54.2 54.195 142.377 0 196.573s-142.377 54.195-196.573 0zm199.868 13.429q2.637-2.4 5.19-4.944t4.944-5.19l14.242 14.242-10.134 10.134zm10.724 34.73 34.14-34.14 20.685 20.684-34.141 34.141zm129.626 95.486a24.167 24.167 0 0 1 -34.14 0l-66.316-66.316 34.14-34.14 66.316 66.316a24.167 24.167 0 0 1 0 34.14z" fill="url(#linear-gradient)"/><path d="m114.806 169.826a6 6 0 0 0 -7.466 4.032 102.761 102.761 0 0 0 7.485 76.811 6 6 0 0 0 10.611-5.606 90.662 90.662 0 0 1 -6.6-67.771 6 6 0 0 0 -4.03-7.466z" fill="url(#linear-gradient-2)"/><path d="m128.005 156.613c1.4-2.3 2.915-4.571 4.515-6.737a6 6 0 1 0 -9.653-7.128c-1.816 2.459-3.54 5.031-5.124 7.646a6 6 0 1 0 10.262 6.219z" fill="url(#linear-gradient-3)"/><path d="m288.823 113.322a122.27 122.27 0 0 0 -57.385-32.57 6 6 0 0 0 -7.438 5.828v.048a6.012 6.012 0 0 0 4.544 5.812 113.689 113.689 0 0 1 51.794 29.368c43.665 43.665 43.59 114.714-.075 158.38a112.166 112.166 0 0 1 -158.418 0c-43.665-43.666-43.533-114.715.132-158.38a109.907 109.907 0 0 1 66.623-32.043 6 6 0 1 0 -1.262-11.926 122.08 122.08 0 0 0 -73.865 35.483c-48.344 48.345-48.419 127.007-.076 175.351a124.156 124.156 0 0 0 175.37 0c48.344-48.344 48.4-127.006.056-175.351z" fill="url(#linear-gradient-4)"/></svg>