<?xml version="1.0" encoding="UTF-8"?>
<svg xmlns="http://www.w3.org/2000/svg" xmlns:xlink="http://www.w3.org/1999/xlink" id="Layer_1" data-name="Layer 1" viewBox="0 0 512 512" width="512" height="512"><defs><linearGradient id="linear-gradient" x1="311.551" y1="470" x2="311.551" y2="82.862" gradientUnits="userSpaceOnUse"><stop offset="0.322" stop-color="#a163f5"/><stop offset="0.466" stop-color="#b074ee"/><stop offset="0.752" stop-color="#d8a1dd"/><stop offset="0.898" stop-color="#efbad3"/></linearGradient><linearGradient id="linear-gradient-2" x1="377.46" y1="470" x2="377.46" y2="82.862" xlink:href="#linear-gradient"/><linearGradient id="linear-gradient-3" x1="328.37" y1="470" x2="328.37" y2="82.862" xlink:href="#linear-gradient"/><linearGradient id="linear-gradient-4" x1="256.217" y1="470" x2="256.217" y2="82.862" xlink:href="#linear-gradient"/></defs><path d="M213.107,412H410.146A5.711,5.711,0,0,0,416,406.2V210.744a5.92,5.92,0,0,0-10.115-4.26l-197.022,195.4A5.9,5.9,0,0,0,213.107,412ZM404,225.147V400H227.676Z" style="fill:url(#linear-gradient)"/><path d="M379.872,182.182l3.663-3.664a6,6,0,1,0-8.486-8.485l-3.663,3.664a6,6,0,0,0,8.486,8.485Z" style="fill:url(#linear-gradient-2)"/><path d="M302.086,259.967l61.052-61.053a6,6,0,0,0-8.485-8.484L293.6,251.482a6,6,0,1,0,8.485,8.485Z" style="fill:url(#linear-gradient-3)"/><path d="M487.129,27.471a6.171,6.171,0,0,0-6.62,1.234L223.221,279.665A6.023,6.023,0,0,0,227.427,290h.035a6.023,6.023,0,0,0,4.2-1.71L479,47.235V89H467.433a6,6,0,0,0,0,12H479v18H458.433a6,6,0,0,0,0,12H479v18H467.433a6,6,0,0,0,0,12H479v18H458.433a6,6,0,0,0,0,12H479v18H467.433a6,6,0,0,0,0,12H479v18H458.433a6,6,0,0,0,0,12H479v18H467.433a6,6,0,0,0,0,12H479v18H458.433a6,6,0,0,0,0,12H479v18H467.433a6,6,0,0,0,0,12H479v18H458.433a6,6,0,0,0,0,12H479v18H467.433a6,6,0,0,0,0,12H479v18H458.433a6,6,0,0,0,0,12H479v42H442V461.834a6,6,0,0,0-12,0V473H412V452.834a6,6,0,0,0-12,0V473H382V461.834a6,6,0,0,0-12,0V473H352V452.834a6,6,0,0,0-12,0V473H322V461.834a6,6,0,0,0-12,0V473H292V452.834a6,6,0,0,0-12,0V473H262V461.834a6,6,0,0,0-12,0V473H232V452.834a6,6,0,0,0-12,0V473H202V461.834a6,6,0,0,0-12,0V473H172V452.834a6,6,0,0,0-12,0V473H142V461.834a6,6,0,0,0-12,0V473H112V452.834a6,6,0,0,0-12,0V473H42.146L188.524,330.337a6.023,6.023,0,1,0-8.41-8.625L23.264,474.705a5.991,5.991,0,0,0-.737,7.759A6.217,6.217,0,0,0,27.637,485H485a6.018,6.018,0,0,0,6-6V33A6.189,6.189,0,0,0,487.129,27.471Z" style="fill:url(#linear-gradient-4)"/></svg>
