<svg id="Layer_1" height="512" viewBox="0 0 512 512" width="512" xmlns="http://www.w3.org/2000/svg" xmlns:xlink="http://www.w3.org/1999/xlink" data-name="Layer 1"><linearGradient id="linear-gradient" gradientUnits="userSpaceOnUse" x1="256" x2="256" y1="484.063" y2="73.575"><stop offset=".322" stop-color="#a163f5"/><stop offset=".466" stop-color="#b074ee"/><stop offset=".752" stop-color="#d8a1dd"/><stop offset=".898" stop-color="#efbad3"/></linearGradient><linearGradient id="linear-gradient-2" x1="256" x2="256" xlink:href="#linear-gradient" y1="484" y2="73.512"/><linearGradient id="linear-gradient-5" x1="133.678" x2="133.678" xlink:href="#linear-gradient" y1="484" y2="73.512"/><linearGradient id="linear-gradient-6" x1="173.382" x2="173.382" xlink:href="#linear-gradient" y1="484" y2="73.512"/><linearGradient id="linear-gradient-7" x1="256.311" x2="256.311" xlink:href="#linear-gradient" y1="484" y2="73.512"/><path d="m332.021 256a76.021 76.021 0 1 0 -76.021 76.021 76.107 76.107 0 0 0 76.021-76.021zm-140.042 0a64.021 64.021 0 1 1 64.021 64.021 64.094 64.094 0 0 1 -64.021-64.021z" fill="url(#linear-gradient)"/><g fill="url(#linear-gradient-2)"><path d="m285.979 256a29.979 29.979 0 1 0 -29.979 29.979 30.013 30.013 0 0 0 29.979-29.979zm-47.958 0a17.979 17.979 0 1 1 17.979 17.979 18 18 0 0 1 -17.979-17.979z"/><path d="m256 80.224c-96.924 0-175.776 78.853-175.776 175.776s78.852 175.776 175.776 175.776 175.776-78.853 175.776-175.776-78.852-175.776-175.776-175.776zm0 339.552c-90.307 0-163.776-73.469-163.776-163.776s73.469-163.776 163.776-163.776 163.776 73.469 163.776 163.776-73.469 163.776-163.776 163.776z"/><path d="m468.261 282.066a219.916 219.916 0 0 0 -1.592-61.6l25.64-24.589a6 6 0 0 0 1.343-6.735l-27.952-63.884a6.007 6.007 0 0 0 -5.936-3.579l-35.523 2.611a197.494 197.494 0 0 0 -44.641-42.521l1.044-35.5a6 6 0 0 0 -3.837-5.773l-65.024-25.096a6 6 0 0 0 -6.7 1.679l-23 26.665a219.9 219.9 0 0 0 -61.609 1.593l-24.598-25.637a6 6 0 0 0 -6.735-1.345l-63.883 27.945a6 6 0 0 0 -3.578 5.937l2.61 35.522a197.477 197.477 0 0 0 -42.521 44.644l-35.5-1.045a6.013 6.013 0 0 0 -5.769 3.842l-25.1 65.023a6 6 0 0 0 1.678 6.7l26.665 23.009a219.91 219.91 0 0 0 1.592 61.6l-25.635 24.591a6 6 0 0 0 -1.344 6.736l27.953 63.884a6 6 0 0 0 5.936 3.578l35.523-2.611a197.473 197.473 0 0 0 44.643 42.521l-1.044 35.5a6 6 0 0 0 3.833 5.769l65.025 25.1a6 6 0 0 0 6.7-1.679l23-26.665a219.826 219.826 0 0 0 61.6-1.593l24.59 25.639a6 6 0 0 0 6.735 1.345l63.892-27.947a6 6 0 0 0 3.578-5.937l-2.61-35.522a197.477 197.477 0 0 0 42.521-44.644l35.5 1.045a6 6 0 0 0 5.769-3.842l25.1-65.025a6 6 0 0 0 -1.678-6.7zm-6.426 86.453-34.542-1.019a6.019 6.019 0 0 0 -5.169 2.67 185.635 185.635 0 0 1 -44.205 46.416 6 6 0 0 0 -2.417 5.265l2.54 34.552-56.156 24.568-23.907-24.927a5.993 5.993 0 0 0 -5.41-1.748 207.918 207.918 0 0 1 -64.311 1.662 6.016 6.016 0 0 0 -5.317 2.031l-22.341 25.893-57.12-22.047 1.017-34.542a6 6 0 0 0 -2.669-5.168 185.666 185.666 0 0 1 -46.417-44.207 6.009 6.009 0 0 0 -5.261-2.418l-34.55 2.542-24.573-56.157 24.926-23.9a6 6 0 0 0 1.749-5.41 207.927 207.927 0 0 1 -1.662-64.312 6 6 0 0 0 -2.03-5.316l-25.891-22.347 22.046-57.121 34.542 1.021a6.028 6.028 0 0 0 5.169-2.67 185.635 185.635 0 0 1 44.2-46.416 6 6 0 0 0 2.417-5.265l-2.535-34.549 56.156-24.568 23.907 24.927a5.988 5.988 0 0 0 5.41 1.748 207.918 207.918 0 0 1 64.321-1.662 6.015 6.015 0 0 0 5.316-2.031l22.332-25.896 57.12 22.047-1.016 34.542a5.993 5.993 0 0 0 2.669 5.168 185.666 185.666 0 0 1 46.427 44.207 6.015 6.015 0 0 0 5.263 2.416l34.553-2.54 24.568 56.157-24.931 23.905a6 6 0 0 0 -1.749 5.41 207.958 207.958 0 0 1 1.662 64.312 6 6 0 0 0 2.03 5.316l25.885 22.34z"/></g><path d="m158.242 151.889a6 6 0 0 0 -8.485.089 147.858 147.858 0 0 0 -42.445 104.022 6 6 0 0 0 12 0 135.921 135.921 0 0 1 39.019-95.626 6 6 0 0 0 -.089-8.485z" fill="url(#linear-gradient-5)"/><path d="m170.808 147.528a5.971 5.971 0 0 0 3.581-1.19c1.609-1.2 3.273-2.383 4.943-3.518a6 6 0 1 0 -6.742-9.926c-1.815 1.232-3.622 2.519-5.373 3.823a6 6 0 0 0 3.591 10.811z" fill="url(#linear-gradient-6)"/><path d="m256.508 133.942a122.043 122.043 0 0 0 -118.436 90.639 5.935 5.935 0 0 0 5.761 7.419h.134a5.947 5.947 0 0 0 5.739-4.429c12.867-48.05 57.77-83.5 110.429-81.553 58.275 2.156 105.05 50.1 105.854 108.407a110 110 0 0 1 -219.389 12.975 5.974 5.974 0 0 0 -5.919-5.4h-.115a5.964 5.964 0 0 0 -5.914 6.6 122 122 0 0 0 243.239-17.832c-2.691-64.833-56.491-116.561-121.383-116.826z" fill="url(#linear-gradient-7)"/></svg>