<svg id="Layer_1" height="512" viewBox="0 0 512 512" width="512" xmlns="http://www.w3.org/2000/svg" xmlns:xlink="http://www.w3.org/1999/xlink" data-name="Layer 1"><linearGradient id="linear-gradient" gradientUnits="userSpaceOnUse" x1="307.067" x2="307.067" y1="484" y2="73.512"><stop offset=".322" stop-color="#a163f5"/><stop offset=".466" stop-color="#b074ee"/><stop offset=".752" stop-color="#d8a1dd"/><stop offset=".898" stop-color="#efbad3"/></linearGradient><linearGradient id="linear-gradient-2" x1="251.696" x2="251.696" xlink:href="#linear-gradient" y1="484" y2="73.512"/><linearGradient id="linear-gradient-3" x1="257.263" x2="257.263" xlink:href="#linear-gradient" y1="484" y2="73.512"/><path d="m307.112 158.754-4.872 2.116a6 6 0 1 0 4.781 11.007l4.873-2.116a6 6 0 0 0 -4.782-11.007z" fill="url(#linear-gradient)"/><path d="m279.987 170.536-61.364 26.655a6 6 0 1 0 4.777 11.009l61.365-26.655a6 6 0 0 0 -4.782-11.007z" fill="url(#linear-gradient-2)"/><path d="m399.272 175.406a67.72 67.72 0 1 0 -66.215-53.6l-188.717 73.973a67.451 67.451 0 0 0 -26.408-7.359 68.472 68.472 0 0 0 -70.132 48.888 6 6 0 0 0 11.493 3.448c6.849-22.954 28.46-40.492 53.992-40.492a56.255 56.255 0 1 1 -51.735 78.3 5.957 5.957 0 0 0 -5.5-3.562h-.011a5.986 5.986 0 0 0 -5.558 8.263 68.2 68.2 0 0 0 93.828 34.035l188.741 72.93a67.794 67.794 0 1 0 3.546-11.494l-179.97-69.541a68.081 68.081 0 0 0 -.032-105.328l180.015-70.567a67.8 67.8 0 0 0 62.663 42.106zm0-123.406a55.7 55.7 0 1 1 -55.7 55.7 55.766 55.766 0 0 1 55.7-55.7zm0 296.594a55.7 55.7 0 1 1 -55.7 55.7 55.767 55.767 0 0 1 55.7-55.7z" fill="url(#linear-gradient-3)"/></svg>