<svg id="Layer_1" height="512" viewBox="0 0 512 512" width="512" xmlns="http://www.w3.org/2000/svg" xmlns:xlink="http://www.w3.org/1999/xlink" data-name="Layer 1"><linearGradient id="linear-gradient" gradientUnits="userSpaceOnUse" x1="256" x2="256" y1="484" y2="73.512"><stop offset=".322" stop-color="#a163f5"/><stop offset=".466" stop-color="#b074ee"/><stop offset=".752" stop-color="#d8a1dd"/><stop offset=".898" stop-color="#efbad3"/></linearGradient><linearGradient id="linear-gradient-2" x1="130.099" x2="130.099" xlink:href="#linear-gradient" y1="484" y2="73.512"/><linearGradient id="linear-gradient-3" x1="121" x2="121" xlink:href="#linear-gradient" y1="484" y2="73.512"/><path d="m427.577 165.866a30.613 30.613 0 0 1 -29.577-30.315v-33.608a17.632 17.632 0 0 0 -8.887-15.738l-123.495-68.932a18.289 18.289 0 0 0 -17.659 0l-124.137 68.927c-5.967 3.323-9.822 9.5-9.822 15.743v33.608a30.613 30.613 0 0 1 -29.577 30.315 17.893 17.893 0 0 0 -17.423 18.008v68.26c0 100.441 60.131 191.488 153.2 231.956a7.251 7.251 0 0 0 1.723.486l29.236 11.224a17.954 17.954 0 0 0 6.457 1.2 17.369 17.369 0 0 0 7.486-1.687l26.2-12.251a251.536 251.536 0 0 0 112.043-93.008c27.255-40.934 41.655-89.401 41.655-140.162v-66.018a17.893 17.893 0 0 0 -17.423-18.008zm5.423 84.026c0 48.387-13.708 94.555-39.641 133.512a239.581 239.581 0 0 1 -106.811 88.641c-.074.031-.147.063-.219.1l-26.3 12.3a5.464 5.464 0 0 1 -2.412.562 6 6 0 0 1 -2.156-.4l-29.745-11.422a7.175 7.175 0 0 0 -1.343-.361c-88.335-38.694-145.373-125.244-145.373-220.69v-68.26a5.952 5.952 0 0 1 5.772-6.013 42.7 42.7 0 0 0 41.228-42.31v-33.608c0-1.9 1.5-4.057 3.653-5.253l124.136-68.931a6.3 6.3 0 0 1 5.987 0l123.5 68.932c2.463 1.371 2.729 4.133 2.729 5.256v33.608a42.7 42.7 0 0 0 41.228 42.31 5.952 5.952 0 0 1 5.767 6.009z" fill="url(#linear-gradient)"/><path d="m115 252.134a200.748 200.748 0 0 0 18.752 84.966 6 6 0 1 0 10.889-5.043 188.849 188.849 0 0 1 -17.641-79.923v-10.134a6 6 0 0 0 -12 0z" fill="url(#linear-gradient-2)"/><path d="m121 229a6 6 0 0 0 6-6v-6a6 6 0 0 0 -12 0v6a6 6 0 0 0 6 6z" fill="url(#linear-gradient-3)"/><path d="m416.279 188.523a54.849 54.849 0 0 1 -42.279-52.972v-26.544a6 6 0 0 0 -3.085-5.245l-112-62.241a6 6 0 0 0 -5.83 0l-112 62.241a6 6 0 0 0 -3.085 5.245v26.544a54.849 54.849 0 0 1 -42.279 52.972 6.034 6.034 0 0 0 -4.721 5.862v28.615a6 6 0 0 0 6 6 6 6 0 0 0 6-6v-24.018a66.464 66.464 0 0 0 28.128-17.35l119.937 37.19.091 238.515-16.978-6.451c-75.806-33.124-126.078-105.317-130.806-186.24a6 6 0 0 0 -11.977.7c4.987 85.462 58.078 161.684 138.118 196.6.088.039.176.076.267.11l25 9.5a6 6 0 0 0 4.651-.164l22-10.178c.152-.056.3-.112.442-.171 41.121-17.217 76.2-46.368 101.456-84.3 24.645-37.029 37.671-80.892 37.671-126.851v-55.507a6.034 6.034 0 0 0 -4.721-5.862zm-277.11-16.962a65.851 65.851 0 0 0 10.831-36.01v-23.014l101-56.131.057 149.85zm123.831-114.039 99 55.015v23.014a65.943 65.943 0 0 0 11.729 37.368l-110.668 34.528zm146 192.37c0 43.585-12.331 85.149-35.66 120.2-23.926 35.939-57.137 63.552-96.029 79.849-.283.1-.568.216-.768.31l-13.388 6.193-.09-236.424 119.035-37.141a66.411 66.411 0 0 0 26.9 16.1z" fill="url(#linear-gradient)"/></svg>