<svg id="Layer_1" height="512" viewBox="0 0 512 512" width="512" xmlns="http://www.w3.org/2000/svg" xmlns:xlink="http://www.w3.org/1999/xlink" data-name="Layer 1"><linearGradient id="linear-gradient" gradientUnits="userSpaceOnUse" x1="125.851" x2="125.851" y1="480" y2="45.982"><stop offset=".322" stop-color="#a163f5"/><stop offset=".466" stop-color="#b074ee"/><stop offset=".752" stop-color="#d8a1dd"/><stop offset=".898" stop-color="#efbad3"/></linearGradient><linearGradient id="linear-gradient-2" x1="224.695" x2="224.695" xlink:href="#linear-gradient" y1="480" y2="45.982"/><linearGradient id="linear-gradient-3" x1="183.52" x2="183.52" xlink:href="#linear-gradient" y1="480" y2="45.982"/><linearGradient id="linear-gradient-4" x1="255.992" x2="255.992" xlink:href="#linear-gradient" y1="480" y2="45.982"/><path d="m126.809 349.687-37.691 37.691a25.3 25.3 0 0 0 35.775 35.774l37.69-37.691a25.3 25.3 0 0 0 -35.774-35.774zm27.29 27.288-37.691 37.691a13.3 13.3 0 1 1 -18.8-18.8l37.69-37.691a13.3 13.3 0 1 1 18.8 18.8z" fill="url(#linear-gradient)"/><path d="m227.02 254.024 3.834-3.834a6 6 0 1 0 -8.484-8.486l-3.835 3.834a6 6 0 0 0 8.485 8.486z" fill="url(#linear-gradient-2)"/><path d="m209.5 263.055a6 6 0 0 0 -8.484 0l-43.484 43.483a6 6 0 1 0 8.485 8.484l43.483-43.483a6 6 0 0 0 0-8.484z" fill="url(#linear-gradient-3)"/><path d="m464.422 140.854a6.248 6.248 0 0 0 -4.808 1.887l-62.554 62.082-64.248-25.083-25.1-64.29 61.148-62.95a6.007 6.007 0 0 0 .891-7.188 6.218 6.218 0 0 0 -4.25-2.921 131.336 131.336 0 0 0 -51.423.278c-71.459 14.588-117.611 84.355-103.078 155.563l.027.131a21.643 21.643 0 0 1 -5.771 19.773l-21.33 21.289a5.988 5.988 0 1 0 8.453 8.484l21.283-21.289c7.948-7.947 11.083-19.423 8.736-30.719l-.025-.11c-13.2-64.684 29.02-128.1 94-141.364a119.639 119.639 0 0 1 35.652-1.872l-55.634 57.3a6 6 0 0 0 -1.272 6.363l27.464 70.335a6 6 0 0 0 3.417 3.409l70.336 27.459a6 6 0 0 0 6.409-1.33l57.139-56.705c6.432 60.6-34.482 117.533-95.651 130.021a115.711 115.711 0 0 1 -48.7-.068 33.321 33.321 0 0 0 -31.061 8.8l-147.135 147.124a50.317 50.317 0 1 1 -71.159-71.163l96.5-96.5a6 6 0 0 0 -8.485-8.485l-96.5 96.5a62.316 62.316 0 1 0 88.128 88.128l147.127-147.123a21.4 21.4 0 0 1 19.953-5.572 127.6 127.6 0 0 0 53.727.117c71.46-14.589 117.778-84.356 103.251-155.523a6.006 6.006 0 0 0 -5.457-4.788z" fill="url(#linear-gradient-4)"/></svg>