<svg id="Layer_1" height="512" viewBox="0 0 512 512" width="512" xmlns="http://www.w3.org/2000/svg" xmlns:xlink="http://www.w3.org/1999/xlink" data-name="Layer 1"><linearGradient id="linear-gradient" gradientUnits="userSpaceOnUse" x1="97" x2="97" y1="484" y2="73.512"><stop offset=".322" stop-color="#a163f5"/><stop offset=".466" stop-color="#b074ee"/><stop offset=".752" stop-color="#d8a1dd"/><stop offset=".898" stop-color="#efbad3"/></linearGradient><linearGradient id="linear-gradient-3" x1="255.882" x2="255.882" xlink:href="#linear-gradient" y1="484" y2="73.512"/><path d="m97 210a6 6 0 0 0 6-6v-4.778a6 6 0 1 0 -12 0v4.778a6 6 0 0 0 6 6z" fill="url(#linear-gradient)"/><path d="m97 284a6 6 0 0 0 6-6v-52.182a6 6 0 1 0 -12 0v52.182a6 6 0 0 0 6 6z" fill="url(#linear-gradient)"/><path d="m386.213 194h-.213v-146.595a27.633 27.633 0 0 0 -55.245-.818l-149.193 122.413h-90.94a26.621 26.621 0 0 0 -26.622 26.389v121.222a26.621 26.621 0 0 0 26.622 26.389h90.94l149.193 122.413a27.633 27.633 0 0 0 55.245-.813v-146.6h.213c33.939 0 61.55-28.061 61.55-62s-27.611-62-61.55-62zm-208.213 137h-87.378a14.609 14.609 0 0 1 -14.622-14.389v-121.222a14.609 14.609 0 0 1 14.622-14.389h87.378zm196 133.6a15.506 15.506 0 0 1 -16.422 15.378c-8.271-.485-14.578-7.652-14.578-15.937v-262.041a6 6 0 0 0 -12 0v247.872l-141-115.713v-156.318l141-115.713v97.872a6 6 0 0 0 12 0v-112.036c0-8.285 6.307-15.452 14.578-15.937a15.506 15.506 0 0 1 16.422 15.378zm12.213-158.6h-.213v-100h.213c27.322 0 49.55 22.678 49.55 50s-22.228 50-49.55 50z" fill="url(#linear-gradient-3)"/></svg>