<?xml version="1.0" encoding="UTF-8"?>
<svg xmlns="http://www.w3.org/2000/svg" xmlns:xlink="http://www.w3.org/1999/xlink" id="Layer_1" data-name="Layer 1" viewBox="0 0 512 512" width="512" height="512"><defs><linearGradient id="linear-gradient" x1="53" y1="480" x2="53" y2="45.982" gradientUnits="userSpaceOnUse"><stop offset="0.322" stop-color="#a163f5"/><stop offset="0.466" stop-color="#b074ee"/><stop offset="0.752" stop-color="#d8a1dd"/><stop offset="0.898" stop-color="#efbad3"/></linearGradient><linearGradient id="linear-gradient-3" x1="256" y1="480" x2="256" y2="45.982" xlink:href="#linear-gradient"/></defs><path d="M53,223.269a6,6,0,0,0,6-6v-4.778a6,6,0,1,0-12,0v4.778A6,6,0,0,0,53,223.269Z" style="fill:url(#linear-gradient)"/><path d="M47,300.269a6,6,0,0,0,12,0V239.092a6,6,0,1,0-12,0Z" style="fill:url(#linear-gradient)"/><path d="M466,117H353V88.273C353,67.871,336.8,51,316.4,51H195.6C175.2,51,159,67.871,159,88.273V117H46a26,26,0,0,0-26,26v84a6,6,0,0,0,12,0V193h8.333A55.667,55.667,0,0,0,96,137.333V129H416v7.854A56.311,56.311,0,0,0,472.146,193H480V384h-8.333A55.667,55.667,0,0,0,416,439.667V449H96v-9.051A55.949,55.949,0,0,0,40.051,384H32V269a6,6,0,0,0-12,0V435a26,26,0,0,0,26,26H466a26,26,0,0,0,26-26V143A26,26,0,0,0,466,117ZM84,136.854C84,161.115,64.6,181,40.333,181H32V142.521C32,134.8,38.28,129,46,129H84ZM319,117H193V88.273c0-1.654.944-3.273,2.6-3.273H316.4c1.654,0,2.6,1.619,2.6,3.273Zm22,0H331V88.273C331,80,324.673,73,316.4,73H195.6c-8.271,0-14.6,7-14.6,15.273V117H171V88.273C171,74.488,181.813,63,195.6,63H316.4C330.187,63,341,74.488,341,88.273ZM84,449H46a14.252,14.252,0,0,1-14-14.273V396h8.333A43.723,43.723,0,0,1,84,439.949Zm396-14.273A14.252,14.252,0,0,1,466,449H428v-9.051A43.723,43.723,0,0,1,471.667,396H480ZM480,181h-8.333C447.405,181,428,161.115,428,136.854V129h38c7.72,0,14,5.8,14,13.521Z" style="fill:url(#linear-gradient-3)"/></svg>
