<svg id="Layer_1" height="512" viewBox="0 0 512 512" width="512" xmlns="http://www.w3.org/2000/svg" xmlns:xlink="http://www.w3.org/1999/xlink" data-name="Layer 1"><linearGradient id="linear-gradient" gradientUnits="userSpaceOnUse" x1="211.367" x2="211.367" y1="484" y2="75.569"><stop offset=".322" stop-color="#a163f5"/><stop offset=".466" stop-color="#b074ee"/><stop offset=".752" stop-color="#d8a1dd"/><stop offset=".898" stop-color="#efbad3"/></linearGradient><linearGradient id="linear-gradient-2" x1="241" x2="241" xlink:href="#linear-gradient" y1="484" y2="75.569"/><linearGradient id="linear-gradient-4" x1="149" x2="149" xlink:href="#linear-gradient" y1="484" y2="75.569"/><linearGradient id="linear-gradient-6" x1="256" x2="256" xlink:href="#linear-gradient" y1="484" y2="75.569"/><path d="m173.8 286h75.128a6 6 0 1 0 0-12h-75.128a6 6 0 0 0 0 12z" fill="url(#linear-gradient)"/><path d="m308.2 306h-134.4a6 6 0 0 0 0 12h134.4a6 6 0 0 0 0-12z" fill="url(#linear-gradient-2)"/><path d="m308.2 339h-134.4a6 6 0 0 0 0 12h134.4a6 6 0 0 0 0-12z" fill="url(#linear-gradient-2)"/><path d="m149 186.218a6 6 0 0 0 -6 6v4.782a6 6 0 0 0 12 0v-4.778a6 6 0 0 0 -6-6.004z" fill="url(#linear-gradient-4)"/><path d="m149 212.818a6 6 0 0 0 -6 6v62.182a6 6 0 0 0 12 0v-62.182a6 6 0 0 0 -6-6z" fill="url(#linear-gradient-4)"/><path d="m385.615 187.628-21.825-17.915a25.533 25.533 0 0 0 -8.175-12.085l-108.615-89.111v-42.265a6.167 6.167 0 0 0 -5.815-6.252 6 6 0 0 0 -6.185 6v42.517l-108.615 89.111a25.635 25.635 0 0 0 -9.385 19.921v258.687a25.764 25.764 0 0 0 25.764 25.764h4.236v4.236a25.723 25.723 0 0 0 25.681 25.764h196.638a25.723 25.723 0 0 0 25.681-25.764v-258.687a25.635 25.635 0 0 0 -9.385-19.921zm-131.715-27.628c5.583 0 10.125 4.917 10.125 10.5s-4.542 10.5-10.125 10.5h-25.8c-5.583 0-10.125-4.917-10.125-10.5s4.542-10.5 10.125-10.5zm-111.219 290a13.709 13.709 0 0 1 -13.681-13.764v-27.236h224v27.236a13.709 13.709 0 0 1 -13.681 13.764zm240.319 16.236a13.709 13.709 0 0 1 -13.681 13.764h-196.638a13.709 13.709 0 0 1 -13.681-13.764v-4.236h180.319a25.682 25.682 0 0 0 25.541-23h18.14zm0-39.236h-18v-151a6 6 0 0 0 -12 0v121h-224v-219.451a13.674 13.674 0 0 1 4.994-10.642l101.006-82.871v63.964h-6.016c-10.988 0-20.73 7.684-22.654 18.5-2.467 13.859 8.256 26.5 21.77 26.5h24.916c10.988 0 20.73-7.684 22.654-18.5 2.467-13.859-8.256-26.5-21.77-26.5h-6.9v-63.964l101.006 82.871a13.674 13.674 0 0 1 4.994 10.642v56.451a6 6 0 0 0 12 0v-47.772l13 10.679a13.679 13.679 0 0 1 5 10.642z" fill="url(#linear-gradient-6)"/></svg>