<svg id="Layer_1" height="512" viewBox="0 0 512 512" width="512" xmlns="http://www.w3.org/2000/svg" xmlns:xlink="http://www.w3.org/1999/xlink" data-name="Layer 1"><linearGradient id="linear-gradient" gradientUnits="userSpaceOnUse" x1="330.64" x2="330.64" y1="480" y2="45.982"><stop offset=".322" stop-color="#a163f5"/><stop offset=".466" stop-color="#b074ee"/><stop offset=".752" stop-color="#d8a1dd"/><stop offset=".898" stop-color="#efbad3"/></linearGradient><linearGradient id="linear-gradient-2" x1="328.535" x2="328.535" xlink:href="#linear-gradient" y1="480" y2="45.982"/><linearGradient id="linear-gradient-8" x1="256.007" x2="256.007" xlink:href="#linear-gradient" y1="480" y2="45.982"/><linearGradient id="linear-gradient-9" x1="255.858" x2="255.858" xlink:href="#linear-gradient" y1="480" y2="45.982"/><linearGradient id="linear-gradient-10" x1="208.629" x2="208.629" xlink:href="#linear-gradient" y1="480" y2="45.982"/><linearGradient id="linear-gradient-11" x1="184.141" x2="184.141" xlink:href="#linear-gradient" y1="480" y2="45.982"/><linearGradient id="linear-gradient-12" x1="255.899" x2="255.899" xlink:href="#linear-gradient" y1="479.835" y2="45.817"/><path d="m323.054 66h15.172a6 6 0 0 0 0-12h-15.172a6 6 0 0 0 0 12z" fill="url(#linear-gradient)"/><path d="m323.054 95h10.963a6 6 0 0 0 0-12h-10.963a6 6 0 0 0 0 12z" fill="url(#linear-gradient-2)"/><path d="m323.054 124h15.172a6 6 0 0 0 0-12h-15.172a6 6 0 0 0 0 12z" fill="url(#linear-gradient)"/><path d="m323.054 153h10.963a6 6 0 0 0 0-12h-10.963a6 6 0 0 0 0 12z" fill="url(#linear-gradient-2)"/><path d="m323.054 182h15.172a6 6 0 0 0 0-12h-15.172a6 6 0 0 0 0 12z" fill="url(#linear-gradient)"/><path d="m323.054 211h10.963a6 6 0 1 0 0-12h-10.963a6 6 0 0 0 0 12z" fill="url(#linear-gradient-2)"/><path d="m323.054 240h15.172a6 6 0 0 0 0-12h-15.172a6 6 0 0 0 0 12z" fill="url(#linear-gradient)"/><path d="m310 257.048v-191.415c0-30.676-25.121-55.633-56-55.633s-56 24.957-56 55.633v193.011c-19.241 10.355-36.011 24.944-47.492 41.378a127.689 127.689 0 0 0 -22.958 73.527c0 70.828 57.729 128.451 128.688 128.451a128.418 128.418 0 0 0 53.762-244.952zm28.481 198.832a115.067 115.067 0 0 1 -82.243 34.12c-64.338 0-116.688-52.24-116.688-116.451a115.745 115.745 0 0 1 20.8-66.654c11.016-15.77 27.481-29.712 46.362-39.261a6 6 0 0 0 3.288-5.355v-196.646a44 44 0 0 1 88 0v195.314a6 6 0 0 0 3.648 5.52 116.5 116.5 0 0 1 36.833 189.413z" fill="url(#linear-gradient-8)"/><path d="m256 66a6 6 0 0 0 -6 6v261.034a42.758 42.758 0 1 0 12 .037v-261.071a6 6 0 0 0 -6-6zm30.627 309.392a30.769 30.769 0 1 1 -30.769-30.769 30.8 30.8 0 0 1 30.769 30.769z" fill="url(#linear-gradient-9)"/><path d="m215.363 306.3a6 6 0 0 0 -8.339-1.571c-1.289.88-2.574 1.809-3.818 2.76a6 6 0 0 0 7.289 9.534c1.074-.823 2.184-1.624 3.3-2.384a6 6 0 0 0 1.568-8.339z" fill="url(#linear-gradient-10)"/><path d="m188.481 321.8a86.907 86.907 0 0 0 -19.339 54.592 6 6 0 0 0 12 0 74.872 74.872 0 0 1 16.658-47.034 6 6 0 0 0 -9.319-7.56z" fill="url(#linear-gradient-11)"/><path d="m290.5 273.323a5.214 5.214 0 0 1 -3.5-4.8v-202.89c0-18.454-14.8-33.468-33-33.468s-33 15.014-33 33.468v56.367a6 6 0 0 0 12 0v-56.367a21.005 21.005 0 1 1 42 0v202.894a17.163 17.163 0 0 0 11.52 16.116c37.964 13.352 63.472 49.081 63.472 88.906a94.011 94.011 0 0 1 -27.373 66.711 92.836 92.836 0 0 1 -66.335 27.575c-52.1 0-94.478-42.3-94.478-94.286a95.352 95.352 0 0 1 60.172-88.072 17.3 17.3 0 0 0 11.022-15.901v-105.576a6 6 0 0 0 -12 0v105.576a5.286 5.286 0 0 1 -3.406 4.731c-40.546 15.919-67.788 55.8-67.788 99.242 0 58.606 47.765 106.286 106.478 106.286a104.758 104.758 0 0 0 74.849-31.118 105.937 105.937 0 0 0 30.859-75.168c0-44.91-28.73-85.188-71.492-100.226z" fill="url(#linear-gradient-12)"/></svg>