<svg id="Layer_1" height="512" viewBox="0 0 512 512" width="512" xmlns="http://www.w3.org/2000/svg" xmlns:xlink="http://www.w3.org/1999/xlink" data-name="Layer 1"><linearGradient id="linear-gradient" gradientUnits="userSpaceOnUse" x1="228.5" x2="228.5" y1="480" y2="45.982"><stop offset=".322" stop-color="#a163f5"/><stop offset=".466" stop-color="#b074ee"/><stop offset=".752" stop-color="#d8a1dd"/><stop offset=".898" stop-color="#efbad3"/></linearGradient><linearGradient id="linear-gradient-2" x1="224.564" x2="224.564" xlink:href="#linear-gradient" y1="480" y2="45.982"/><linearGradient id="linear-gradient-3" x1="257.67" x2="257.67" xlink:href="#linear-gradient" y1="480" y2="45.982"/><linearGradient id="linear-gradient-5" x1="144" x2="144" xlink:href="#linear-gradient" y1="480" y2="45.982"/><linearGradient id="linear-gradient-7" x1="256.023" x2="256.023" xlink:href="#linear-gradient" y1="480" y2="45.982"/><path d="m272 169h-87a12 12 0 0 0 -12 12v25a12 12 0 0 0 12 12h87a12 12 0 0 0 12-12v-25a12 12 0 0 0 -12-12zm-87 37v-25h87.045l.007 25z" fill="url(#linear-gradient)"/><path d="m182.291 275h84.545a6 6 0 0 0 0-12h-84.545a6 6 0 0 0 0 12z" fill="url(#linear-gradient-2)"/><path d="m333.048 296h-150.757a6 6 0 0 0 0 12h150.757a6 6 0 0 0 0-12z" fill="url(#linear-gradient-3)"/><path d="m333.048 329h-150.757a6 6 0 1 0 0 12h150.757a6 6 0 0 0 0-12z" fill="url(#linear-gradient-3)"/><path d="m144 70.525a6 6 0 0 0 6-6v-4.816a6 6 0 0 0 -12 0v4.816a6 6 0 0 0 6 6z" fill="url(#linear-gradient-5)"/><path d="m138 154.255a6 6 0 0 0 12 0v-67.728a6 6 0 1 0 -12 0z" fill="url(#linear-gradient-5)"/><path d="m376 20h-63.784a5.958 5.958 0 0 0 -5.919 5.013c-3.687 24.534-25.816 43.763-50.34 43.763s-46.657-19.229-50.342-43.763a5.958 5.958 0 0 0 -5.915-5.013h-61.83a25.886 25.886 0 0 0 -26 25.691l-.211 48.283a6 6 0 0 0 12 .052l.211-48.282a13.8 13.8 0 0 1 13.804-13.744h57.094c6.715 27.731 32.635 48.776 61.189 48.776s54.473-21.045 61.188-48.776h58.855a14 14 0 0 1 14 14v420a14 14 0 0 1 -14 14h-58.784a62.857 62.857 0 0 0 -122.516 0h-58.657a13.9 13.9 0 0 1 -9.92-4.122 14.355 14.355 0 0 1 -4.079-10.134l1.432-329.718a6 6 0 1 0 -12-.052l-1.431 329.245a26.752 26.752 0 0 0 7.828 19.28 25.9 25.9 0 0 0 18.169 7.5h63.574a6.049 6.049 0 0 0 6.018-5.145 50.834 50.834 0 0 1 100.643 0 6.048 6.048 0 0 0 6.023 5.146h63.7a26.076 26.076 0 0 0 26-26v-420a26 26 0 0 0 -26-26z" fill="url(#linear-gradient-7)"/></svg>