<svg id="Layer_1" height="512" viewBox="0 0 512 512" width="512" xmlns="http://www.w3.org/2000/svg" xmlns:xlink="http://www.w3.org/1999/xlink" data-name="Layer 1"><linearGradient id="linear-gradient" gradientUnits="userSpaceOnUse" x1="256" x2="256" y1="480" y2="45.982"><stop offset=".322" stop-color="#a163f5"/><stop offset=".466" stop-color="#b074ee"/><stop offset=".752" stop-color="#d8a1dd"/><stop offset=".898" stop-color="#efbad3"/></linearGradient><linearGradient id="linear-gradient-2" x1="195.706" x2="195.706" xlink:href="#linear-gradient" y1="480" y2="45.982"/><linearGradient id="linear-gradient-3" x1="231.508" x2="231.508" xlink:href="#linear-gradient" y1="480" y2="45.982"/><path d="m225.9 294.194 26.8 18.329a5.865 5.865 0 0 0 3.341 1.043 5.925 5.925 0 0 0 3.361-1.043l26.709-18.329c9-6.139 15.891-19.48 15.891-30.372v-37.722a5.858 5.858 0 0 0 -3.2-5.385l-40.236-19.8a5.923 5.923 0 0 0 -5.244 0l-40.137 19.744a5.843 5.843 0 0 0 -3.185 5.389v37.774c0 10.892 6.9 24.233 15.9 30.372zm36.1-78.259 28 13.907v33.98c0 6.969-4.9 16.529-10.662 20.458l-17.338 11.932zm-40 13.855 28-13.867v80.289l-17.339-11.932c-5.761-3.929-10.661-13.489-10.661-20.458z" fill="url(#linear-gradient)"/><path d="m190.021 384.6a6 6 0 0 0 -.335 8.478l3.227 3.493a6 6 0 1 0 8.814-8.142l-3.227-3.493a6 6 0 0 0 -8.479-.336z" fill="url(#linear-gradient-2)"/><path d="m207.655 412.524 38.893 42.093a6 6 0 0 0 8.814-8.144l-38.893-42.093a6 6 0 1 0 -8.814 8.144z" fill="url(#linear-gradient-3)"/><path d="m303.775 107.66 29.113-73.771a10.29 10.29 0 0 0 .136-7.481 9.988 9.988 0 0 0 -9.324-6.408h-135.141a10.28 10.28 0 0 0 -7.006 2.62 9.989 9.989 0 0 0 -2.537 11.026l29.209 74.014-5.846 38.44a6 6 0 0 0 5.934 6.9 6 6 0 0 0 5.934-5.1l5.308-34.9h72.888l42.713 280.82-79.156 85.232-79.157-85.232 31.016-203.915a6 6 0 0 0 -11.869-1.805l-31.157 204.862a9.932 9.932 0 0 0 2.553 8.292l81.3 87.557a9.982 9.982 0 0 0 14.628 0l81.3-87.557a9.931 9.931 0 0 0 2.554-8.293zm-85.293-6.66-27.215-69h129.466l-27.215 69z" fill="url(#linear-gradient)"/></svg>