<svg id="Layer_1" height="512" viewBox="0 0 512 512" width="512" xmlns="http://www.w3.org/2000/svg" xmlns:xlink="http://www.w3.org/1999/xlink" data-name="Layer 1"><linearGradient id="linear-gradient" gradientUnits="userSpaceOnUse" x1="256" x2="256" y1="470" y2="82.862"><stop offset=".322" stop-color="#a163f5"/><stop offset=".466" stop-color="#b074ee"/><stop offset=".752" stop-color="#d8a1dd"/><stop offset=".898" stop-color="#efbad3"/></linearGradient><linearGradient id="linear-gradient-3" x1="139.189" x2="139.189" xlink:href="#linear-gradient" y1="470" y2="82.862"/><linearGradient id="linear-gradient-4" x1="188.959" x2="188.959" xlink:href="#linear-gradient" y1="470" y2="82.862"/><linearGradient id="linear-gradient-5" x1="256.478" x2="256.478" xlink:href="#linear-gradient" y1="470" y2="82.862"/><path d="m256 453.961c109.046 0 197.761-88.8 197.761-197.961s-88.715-197.961-197.761-197.961-197.761 88.805-197.761 197.961 88.715 197.961 197.761 197.961zm-172.439-203.961h-13.215a185.367 185.367 0 0 1 50.132-121.038l9.346 9.347a6 6 0 1 0 8.485-8.485l-9.357-9.356a184.976 184.976 0 0 1 121.048-50.322v13.415a6 6 0 1 0 12 0v-13.415a184.976 184.976 0 0 1 121.048 50.322l-9.357 9.356a6 6 0 0 0 8.485 8.485l9.346-9.347a185.367 185.367 0 0 1 50.132 121.038h-13.215a6 6 0 0 0 0 12h13.215a185.367 185.367 0 0 1 -50.132 121.038l-9.346-9.347a6 6 0 0 0 -8.485 8.485l9.357 9.356a184.976 184.976 0 0 1 -121.048 50.322v-13.415a6 6 0 0 0 -12 0v13.415a184.976 184.976 0 0 1 -121.048-50.322l9.357-9.356a6 6 0 1 0 -8.485-8.485l-9.346 9.347a185.367 185.367 0 0 1 -50.132-121.038h13.215a6 6 0 1 0 0-12z" fill="url(#linear-gradient)"/><path d="m168.479 256a87.456 87.456 0 0 0 142 68.516l22.018 25.056a6 6 0 1 0 9.014-7.922l-22.18-25.238a87.582 87.582 0 0 0 -57.331-147.812v-23.5a6 6 0 0 0 -12 0v23.5a87.681 87.681 0 0 0 -81.521 87.4zm93.521-75.346a75.559 75.559 0 0 1 49.364 126.7l-49.364-56.176zm-12 0v72.785a6 6 0 0 0 1.493 3.961l51.042 58.082a75.543 75.543 0 1 1 -52.535-134.828z" fill="url(#linear-gradient)"/><path d="m112.916 212.618a5.991 5.991 0 0 0 7.637-3.7 143.309 143.309 0 0 1 46.66-65.479 6 6 0 0 0 -7.438-9.416 155.284 155.284 0 0 0 -50.556 70.955 6 6 0 0 0 3.697 7.64z" fill="url(#linear-gradient-3)"/><path d="m185.909 130.084a5.985 5.985 0 0 0 2.816-.705c1.92-1.023 3.892-2.016 5.863-2.951a6 6 0 1 0 -5.149-10.84c-2.135 1.015-4.274 2.091-6.355 3.2a6 6 0 0 0 2.825 11.3z" fill="url(#linear-gradient-4)"/><path d="m256 20a235.869 235.869 0 0 0 -234.78 214.466 6 6 0 0 0 11.948 1.087 223.772 223.772 0 1 1 381.052 178.847 223.752 223.752 0 0 1 -381.052-137.953 6 6 0 0 0 -11.948 1.087 235.694 235.694 0 0 0 401.489 145.341 236.168 236.168 0 0 0 0-333.75 234.093 234.093 0 0 0 -166.709-69.125z" fill="url(#linear-gradient-5)"/></svg>