<svg id="Layer_1" height="512" viewBox="0 0 512 512" width="512" xmlns="http://www.w3.org/2000/svg" xmlns:xlink="http://www.w3.org/1999/xlink" data-name="Layer 1"><linearGradient id="linear-gradient" gradientUnits="userSpaceOnUse" x1="119.5" x2="119.5" y1="470" y2="82.862"><stop offset=".322" stop-color="#a163f5"/><stop offset=".466" stop-color="#b074ee"/><stop offset=".752" stop-color="#d8a1dd"/><stop offset=".898" stop-color="#efbad3"/></linearGradient><linearGradient id="linear-gradient-2" x1="48" x2="48" xlink:href="#linear-gradient" y1="470" y2="82.862"/><linearGradient id="linear-gradient-4" x1="256" x2="256" xlink:href="#linear-gradient" y1="470" y2="82.862"/><path d="m172 292v-27a12 12 0 0 0 -12-12h-81a12 12 0 0 0 -12 12v27a12 12 0 0 0 12 12h81a12 12 0 0 0 12-12zm-93-1v-26h80.29l.008 26z" fill="url(#linear-gradient)"/><path d="m54 246.113a6 6 0 0 0 -12 0v4.778a6 6 0 1 0 12 0z" fill="url(#linear-gradient-2)"/><path d="m48 266.713a6 6 0 0 0 -6 6v54.178a6 6 0 0 0 12 0v-54.178a6 6 0 0 0 -6-6z" fill="url(#linear-gradient-2)"/><path d="m474.26 191.715a17.855 17.855 0 0 0 -18.182 16.375l-71.957 70.91h-33.121v-38.863a26.214 26.214 0 0 0 -26.137-26.137h-34.93a87.424 87.424 0 1 0 -85.907 0h-76.517a62.335 62.335 0 1 0 -71.463 0h-10.046a26 26 0 0 0 -26 26v169.109a25.891 25.891 0 0 0 25.891 25.891h22.109a6 6 0 0 0 0-12h-22a14 14 0 0 1 -14-14v-169a14 14 0 0 1 14-14h279a14 14 0 0 1 14 14v169a14 14 0 0 1 -14 14h-215a6 6 0 0 0 0 12h215.094a25.907 25.907 0 0 0 25.906-25.906v-35.094h33.121l71.957 71.04a17.986 17.986 0 0 0 18.159 16.532c9.921-.127 17.763-8.514 17.763-18.436v-233.024a18.258 18.258 0 0 0 -17.74-18.397zm-382.483 21.585a50.335 50.335 0 1 1 50.334-50.334 50.391 50.391 0 0 1 -50.334 50.334zm79.779-75.425a75.424 75.424 0 1 1 75.423 75.425 75.509 75.509 0 0 1 -75.423-75.421zm209.444 224.125h-30v-71h30zm75 66.042-63-62.661v-77.5l63-62.66zm24 15.506a6 6 0 0 1 -12 0v-233.837a6 6 0 0 1 12 0z" fill="url(#linear-gradient-4)"/></svg>