<svg id="Layer_1" height="512" viewBox="0 0 512 512" width="512" xmlns="http://www.w3.org/2000/svg" xmlns:xlink="http://www.w3.org/1999/xlink" data-name="Layer 1"><linearGradient id="linear-gradient" gradientUnits="userSpaceOnUse" x1="416.918" x2="416.918" y1="484" y2="75.569"><stop offset=".322" stop-color="#a163f5"/><stop offset=".466" stop-color="#b074ee"/><stop offset=".752" stop-color="#d8a1dd"/><stop offset=".898" stop-color="#efbad3"/></linearGradient><linearGradient id="linear-gradient-2" x1="52" x2="52" xlink:href="#linear-gradient" y1="484" y2="75.569"/><linearGradient id="linear-gradient-4" x1="256" x2="256" xlink:href="#linear-gradient" y1="484" y2="75.569"/><path d="m416.918 286.828a20.8 20.8 0 1 0 20.8 20.8 20.827 20.827 0 0 0 -20.8-20.8zm0 29.607a8.8 8.8 0 1 1 8.8-8.8 8.814 8.814 0 0 1 -8.8 8.8z" fill="url(#linear-gradient)"/><path d="m52 226.218a6 6 0 0 0 -6 6v4.782a6 6 0 0 0 12 0v-4.778a6 6 0 0 0 -6-6.004z" fill="url(#linear-gradient-2)"/><path d="m52 252.818a6 6 0 0 0 -6 6v77.182a6 6 0 0 0 12 0v-77.182a6 6 0 0 0 -6-6z" fill="url(#linear-gradient-2)"/><path d="m474 253h-11v-84.826a26.251 26.251 0 0 0 -26.174-26.174h-36.826v-75.77a26.544 26.544 0 0 0 -10.792-21.616 25.71 25.71 0 0 0 -22.982-3.679l-320.111 100.983.062.082h-.177a26 26 0 0 0 -26 26v278.285a25.715 25.715 0 0 0 25.715 25.715h391.232a26.13 26.13 0 0 0 26.053-26.053v-84.947h11a17.757 17.757 0 0 0 18-17.689v-72.163a18.148 18.148 0 0 0 -18-18.148zm-104.143-200.708a13.994 13.994 0 0 1 18.143 13.437v76.271h-302.553zm81.143 393.993a13.82 13.82 0 0 1 -14.053 13.715h-390.947a13.775 13.775 0 0 1 -14-13.715v-32.285h419zm0-44.285h-419v-190h62a6 6 0 0 0 0-12h-62v-31.826a14.215 14.215 0 0 1 14.174-14.174h390.773a14.1 14.1 0 0 1 14.053 14.053v31.947h-315a6 6 0 0 0 0 12h315v41h-66.981a12.157 12.157 0 0 0 -12.019 12.148v84.163a11.768 11.768 0 0 0 12.019 11.689h66.981zm29-58.689a5.749 5.749 0 0 1 -6 5.689h-90v-84h90a6.135 6.135 0 0 1 6 6.148z" fill="url(#linear-gradient-4)"/></svg>