<svg id="Layer_1" height="512" viewBox="0 0 512 512" width="512" xmlns="http://www.w3.org/2000/svg" xmlns:xlink="http://www.w3.org/1999/xlink" data-name="Layer 1"><linearGradient id="linear-gradient" gradientUnits="userSpaceOnUse" x1="256" x2="256" y1="484" y2="73.512"><stop offset=".322" stop-color="#a163f5"/><stop offset=".466" stop-color="#b074ee"/><stop offset=".752" stop-color="#d8a1dd"/><stop offset=".898" stop-color="#efbad3"/></linearGradient><linearGradient id="linear-gradient-2" x1="198" x2="198" xlink:href="#linear-gradient" y1="484" y2="73.512"/><linearGradient id="linear-gradient-4" x1="272" x2="272" xlink:href="#linear-gradient" y1="484" y2="73.512"/><path d="m341 126.354v-87.482a25.941 25.941 0 0 0 -26.024-25.872h-117.952a25.941 25.941 0 0 0 -26.024 25.872v87.482a36 36 0 0 0 -31 35.646v38a6 6 0 0 0 12 0v-38a24 24 0 0 1 24-24h160a24 24 0 0 1 24 24v188a24 24 0 0 1 -24 24h-160a24 24 0 0 1 -24-24v-108a6 6 0 0 0 -12 0v108a36 36 0 0 0 31 35.646v87.482a25.941 25.941 0 0 0 26.024 25.872h117.952a25.941 25.941 0 0 0 26.024-25.872v-87.482a36 36 0 0 0 31-35.646v-188a36 36 0 0 0 -31-35.646zm-12-.354h-146v-87.128a13.928 13.928 0 0 1 14.024-13.872h117.952a13.928 13.928 0 0 1 14.024 13.872zm0 347.128a13.928 13.928 0 0 1 -14.024 13.872h-117.952a13.928 13.928 0 0 1 -14.024-13.872v-87.128h146z" fill="url(#linear-gradient)"/><path d="m198 33.456a6 6 0 0 0 -6 6v4.61a6 6 0 0 0 12 0v-4.61a6 6 0 0 0 -6-6z" fill="url(#linear-gradient-2)"/><path d="m198 59.123a6 6 0 0 0 -6 6v39.733a6 6 0 0 0 12 0v-39.733a6 6 0 0 0 -6-6z" fill="url(#linear-gradient-2)"/><path d="m255 263h34a6 6 0 0 0 0-12h-28v-43.766a6 6 0 0 0 -12 0v50a5.8 5.8 0 0 0 6 5.766z" fill="url(#linear-gradient-4)"/><path d="m336 366a16 16 0 0 0 16-16v-188a16 16 0 0 0 -16-16h-160a16 16 0 0 0 -16 16v188a16 16 0 0 0 16 16zm-164-104h14a6 6 0 0 0 0-12h-14v-82.78l6.006 6.007a6 6 0 0 0 8.485 0 6.233 6.233 0 0 0 0-8.677l-6.356-6.55h68.865v12.234a6 6 0 1 0 12 0v-12.234h70.865l-6.357 6.55a6.233 6.233 0 0 0 0 8.677 6 6 0 0 0 8.485 0l6.007-6.007v82.78h-14a6 6 0 0 0 0 12h14v84.249l-7.006-7.006a5.985 5.985 0 0 0 -8.486 8.442l6.357 6.315h-69.865v-12.766a6 6 0 1 0 -12 0v12.766h-67.865l6.357-6.315a5.989 5.989 0 1 0 -8.486-8.453l-7.006 7.017z" fill="url(#linear-gradient)"/></svg>