<svg id="Layer_1" height="512" viewBox="0 0 512 512" width="512" xmlns="http://www.w3.org/2000/svg" xmlns:xlink="http://www.w3.org/1999/xlink" data-name="Layer 1"><linearGradient id="linear-gradient" gradientUnits="userSpaceOnUse" x1="158.149" x2="158.149" y1="480" y2="45.982"><stop offset=".322" stop-color="#a163f5"/><stop offset=".466" stop-color="#b074ee"/><stop offset=".752" stop-color="#d8a1dd"/><stop offset=".898" stop-color="#efbad3"/></linearGradient><linearGradient id="linear-gradient-2" x1="126.924" x2="126.924" xlink:href="#linear-gradient" y1="480" y2="45.982"/><linearGradient id="linear-gradient-3" x1="256" x2="256" xlink:href="#linear-gradient" y1="480" y2="45.982"/><path d="m192.018 432.319a6 6 0 1 0 5.513-10.658 131.45 131.45 0 0 1 -53.537-51.232c-11.968-20.757-17.6-43.433-16.286-65.575a6 6 0 0 0 -11.979-.711c-1.452 24.491 4.727 49.484 17.869 72.279a143.419 143.419 0 0 0 58.42 55.897z" fill="url(#linear-gradient)"/><path d="m124.375 285.2a5.993 5.993 0 0 0 7.436-4.088c.508-1.752 1.067-3.512 1.66-5.228a6 6 0 0 0 -11.344-3.914c-.657 1.9-1.276 3.853-1.84 5.8a6 6 0 0 0 4.088 7.43z" fill="url(#linear-gradient-2)"/><path d="m400.2 237.877-139.314-195.36a6 6 0 0 0 -4.881-2.517 6 6 0 0 0 -4.881 2.51l-132.283 185a6 6 0 0 0 9.762 6.98l127.4-178.165 134.269 188.29a131.126 131.126 0 0 1 18.092 70.31 143.712 143.712 0 0 1 -19.41 67.312c-27.586 47.963-78.527 77.763-132.954 77.763-54.324 0-105.21-29.727-132.8-77.584a144.272 144.272 0 0 1 -19.552-67.581 131.056 131.056 0 0 1 5.039-40.157 6 6 0 0 0 -5.752-7.678h-.007a6.012 6.012 0 0 0 -5.776 4.34 143.073 143.073 0 0 0 -5.5 43.837 156.3 156.3 0 0 0 21.151 73.232c29.727 51.564 84.597 83.591 143.197 83.591 58.709 0 113.637-32.1 143.348-83.782a155.765 155.765 0 0 0 21-72.963 142.981 142.981 0 0 0 -19.848-76.907z" fill="url(#linear-gradient-3)"/></svg>