<svg id="Layer_1" height="512" viewBox="0 0 512 512" width="512" xmlns="http://www.w3.org/2000/svg" xmlns:xlink="http://www.w3.org/1999/xlink" data-name="Layer 1"><linearGradient id="linear-gradient" gradientUnits="userSpaceOnUse" x1="227.5" x2="227.5" y1="469.793" y2="154.648"><stop offset=".322" stop-color="#a163f5"/><stop offset=".466" stop-color="#b074ee"/><stop offset=".752" stop-color="#d8a1dd"/><stop offset=".898" stop-color="#efbad3"/></linearGradient><linearGradient id="linear-gradient-2" x1="169.5" x2="169.5" xlink:href="#linear-gradient" y1="469.793" y2="154.648"/><linearGradient id="linear-gradient-3" x1="284.5" x2="284.5" xlink:href="#linear-gradient" y1="469.793" y2="154.648"/><linearGradient id="linear-gradient-4" x1="342.5" x2="342.5" xlink:href="#linear-gradient" y1="469.793" y2="154.648"/><linearGradient id="linear-gradient-5" x1="203.753" x2="203.753" xlink:href="#linear-gradient" y1="469.793" y2="154.648"/><linearGradient id="linear-gradient-6" x1="256" x2="256" xlink:href="#linear-gradient" y1="469.793" y2="154.648"/><linearGradient id="linear-gradient-9" x1="68.935" x2="68.935" xlink:href="#linear-gradient" y1="469.793" y2="154.648"/><linearGradient id="linear-gradient-10" x1="104.091" x2="104.091" xlink:href="#linear-gradient" y1="469.793" y2="154.648"/><linearGradient id="linear-gradient-11" x1="139.247" x2="139.247" xlink:href="#linear-gradient" y1="469.793" y2="154.648"/><linearGradient id="linear-gradient-13" x1="87" x2="87" xlink:href="#linear-gradient" y1="469.793" y2="154.648"/><path d="m242 284a6 6 0 0 0 6-6v-94a6 6 0 0 0 -6-6h-29a6 6 0 0 0 -6 6v94a6 6 0 0 0 6 6zm-23-94h16v83h-16z" fill="url(#linear-gradient)"/><path d="m184 236h-29a6 6 0 0 0 -6 6v37a6 6 0 0 0 6 6h29a6 6 0 0 0 6-6v-37a6 6 0 0 0 -6-6zm-6 37h-17v-25h17z" fill="url(#linear-gradient-2)"/><path d="m299 285a6 6 0 0 0 6-6v-63a6 6 0 0 0 -6-6h-29a6 6 0 0 0 -6 6v63a6 6 0 0 0 6 6zm-23-63h16v51h-16z" fill="url(#linear-gradient-3)"/><path d="m357 285a6 6 0 0 0 6-6v-84a6 6 0 0 0 -6-6h-29a6 6 0 0 0 -6 6v84a6 6 0 0 0 6 6zm-23-84h17v72h-17z" fill="url(#linear-gradient-4)"/><path d="m149.064 309a6 6 0 0 0 6 6h97.378a6 6 0 0 0 0-12h-97.378a6 6 0 0 0 -6 6z" fill="url(#linear-gradient-5)"/><g fill="url(#linear-gradient-6)"><path d="m149.064 337a6 6 0 0 0 6 6h201.872a6 6 0 0 0 0-12h-201.872a6 6 0 0 0 -6 6z"/><path d="m356.936 360h-201.872a6 6 0 1 0 0 12h201.872a6 6 0 0 0 0-12z"/><path d="m466 48h-420a36 36 0 0 0 -36 36v344a36 36 0 0 0 36 36h420a36 36 0 0 0 36-36v-344a36 36 0 0 0 -36-36zm24 380a24 24 0 0 1 -24 24h-420a24 24 0 0 1 -24-24v-344a24 24 0 0 1 24-24h420a24 24 0 0 1 24 24z"/></g><path d="m68.935 105.505a10.345 10.345 0 1 0 -10.344-10.344 10.356 10.356 0 0 0 10.344 10.344zm0-12a1.656 1.656 0 1 1 -1.656 1.656 1.658 1.658 0 0 1 1.656-1.656z" fill="url(#linear-gradient-9)"/><path d="m104.091 105.505a10.345 10.345 0 1 0 -10.344-10.344 10.357 10.357 0 0 0 10.344 10.344zm0-12a1.656 1.656 0 1 1 -1.656 1.656 1.658 1.658 0 0 1 1.656-1.656z" fill="url(#linear-gradient-10)"/><path d="m139.247 105.505a10.345 10.345 0 1 0 -10.347-10.344 10.356 10.356 0 0 0 10.347 10.344zm0-12a1.656 1.656 0 1 1 -1.656 1.656 1.658 1.658 0 0 1 1.656-1.656z" fill="url(#linear-gradient-11)"/><path d="m448 124h-321a6 6 0 0 0 0 12h319v271h-380v-271h19a6 6 0 0 0 0-12h-21a10 10 0 0 0 -10 10v275a10 10 0 0 0 10 10h384a10 10 0 0 0 10-10v-275a10 10 0 0 0 -10-10z" fill="url(#linear-gradient-6)"/><path d="m81 154.709v4.816a6 6 0 0 0 12 0v-4.816a6 6 0 0 0 -12 0z" fill="url(#linear-gradient-13)"/><path d="m87 175.527a6 6 0 0 0 -6 6v67.728a6 6 0 0 0 12 0v-67.728a6 6 0 0 0 -6-6z" fill="url(#linear-gradient-13)"/></svg>